<?xml version="1.0" encoding="UTF-8" standalone="no"?>
<!DOCTYPE svg PUBLIC "-//W3C//DTD SVG 1.1//EN"
 "http://www.w3.org/Graphics/SVG/1.1/DTD/svg11.dtd">
<!-- Generated by graphviz version 2.38.0 (20140413.2041)
 -->
<!-- Title: IPlugVST3 Pages: 1 -->
<svg width="585pt" height="192pt"
 viewBox="0.00 0.00 585.00 192.00" xmlns="http://www.w3.org/2000/svg" xmlns:xlink="http://www.w3.org/1999/xlink">
<g id="graph0" class="graph" transform="scale(1 1) rotate(0) translate(4 188)">
<title>IPlugVST3</title>
<polygon fill="white" stroke="none" points="-4,4 -4,-188 581,-188 581,4 -4,4"/>
<!-- Node1 -->
<g id="node1" class="node"><title>Node1</title>
<polygon fill="#bfbfbf" stroke="black" points="513,-88.5 513,-107.5 577,-107.5 577,-88.5 513,-88.5"/>
<text text-anchor="middle" x="545" y="-95.5" font-family="Helvetica,sans-Serif" font-size="10.00">IPlugVST3</text>
</g>
<!-- Node2 -->
<g id="node2" class="node"><title>Node2</title>
<g id="a_node2"><a xlink:href="class_i_plug_a_p_i_base.html" target="_top" xlink:title="The base class of an IPlug plug&#45;in, which interacts with the different plug&#45;in APIs. ">
<polygon fill="white" stroke="black" points="350,-164.5 350,-183.5 428,-183.5 428,-164.5 350,-164.5"/>
<text text-anchor="middle" x="389" y="-171.5" font-family="Helvetica,sans-Serif" font-size="10.00">IPlugAPIBase</text>
</a>
</g>
</g>
<!-- Node2&#45;&gt;Node1 -->
<g id="edge1" class="edge"><title>Node2&#45;&gt;Node1</title>
<path fill="none" stroke="midnightblue" d="M438.377,-167.801C451.356,-164.984 465.085,-160.903 477,-155 501.085,-143.068 523.721,-120.601 535.517,-107.725"/>
<polygon fill="midnightblue" stroke="midnightblue" points="437.318,-164.442 428.178,-169.8 438.664,-171.311 437.318,-164.442"/>
</g>
<!-- Node3 -->
<g id="node3" class="node"><title>Node3</title>
<g id="a_node3"><a xlink:href="class_i_plugin_base.html" target="_top" xlink:title="Base class that contains plug&#45;in info and state manipulation methods. ">
<polygon fill="white" stroke="black" points="186.5,-164.5 186.5,-183.5 257.5,-183.5 257.5,-164.5 186.5,-164.5"/>
<text text-anchor="middle" x="222" y="-171.5" font-family="Helvetica,sans-Serif" font-size="10.00">IPluginBase</text>
</a>
</g>
</g>
<!-- Node3&#45;&gt;Node2 -->
<g id="edge2" class="edge"><title>Node3&#45;&gt;Node2</title>
<path fill="none" stroke="midnightblue" d="M267.796,-174C293.429,-174 325.248,-174 349.709,-174"/>
<polygon fill="midnightblue" stroke="midnightblue" points="267.589,-170.5 257.589,-174 267.589,-177.5 267.589,-170.5"/>
</g>
<!-- Node4 -->
<g id="node4" class="node"><title>Node4</title>
<polygon fill="white" stroke="#bfbfbf" points="0,-164.5 0,-183.5 143,-183.5 143,-164.5 0,-164.5"/>
<text text-anchor="middle" x="71.5" y="-171.5" font-family="Helvetica,sans-Serif" font-size="10.00">EDITOR_DELEGATE_CLASS</text>
</g>
<!-- Node4&#45;&gt;Node3 -->
<g id="edge3" class="edge"><title>Node4&#45;&gt;Node3</title>
<path fill="none" stroke="midnightblue" d="M153.426,-174C164.952,-174 176.26,-174 186.23,-174"/>
<polygon fill="midnightblue" stroke="midnightblue" points="153.271,-170.5 143.271,-174 153.271,-177.5 153.271,-170.5"/>
</g>
<!-- Node5 -->
<g id="node5" class="node"><title>Node5</title>
<g id="a_node5"><a xlink:href="class_i_plug_v_s_t3_processor_base.html" target="_top" xlink:title="Shared VST3 processor code. ">
<polygon fill="white" stroke="black" points="321.5,-126.5 321.5,-145.5 456.5,-145.5 456.5,-126.5 321.5,-126.5"/>
<text text-anchor="middle" x="389" y="-133.5" font-family="Helvetica,sans-Serif" font-size="10.00">IPlugVST3ProcessorBase</text>
</a>
</g>
</g>
<!-- Node5&#45;&gt;Node1 -->
<g id="edge4" class="edge"><title>Node5&#45;&gt;Node1</title>
<path fill="none" stroke="midnightblue" d="M445.958,-124.31C456.306,-121.998 467,-119.507 477,-117 488.728,-114.059 501.516,-110.517 512.748,-107.292"/>
<polygon fill="midnightblue" stroke="midnightblue" points="445.189,-120.895 436.177,-126.467 446.696,-127.731 445.189,-120.895"/>
</g>
<!-- Node6 -->
<g id="node6" class="node"><title>Node6</title>
<g id="a_node6"><a xlink:href="class_i_plug_processor.html" target="_top" xlink:title="The base class for IPlug Audio Processing. ">
<polygon fill="white" stroke="black" points="179,-126.5 179,-145.5 265,-145.5 265,-126.5 179,-126.5"/>
<text text-anchor="middle" x="222" y="-133.5" font-family="Helvetica,sans-Serif" font-size="10.00">IPlugProcessor</text>
</a>
</g>
</g>
<!-- Node6&#45;&gt;Node5 -->
<g id="edge5" class="edge"><title>Node6&#45;&gt;Node5</title>
<path fill="none" stroke="midnightblue" d="M275.398,-136C289.987,-136 306.032,-136 321.324,-136"/>
<polygon fill="midnightblue" stroke="midnightblue" points="275.063,-132.5 265.063,-136 275.063,-139.5 275.063,-132.5"/>
</g>
<!-- Node7 -->
<g id="node7" class="node"><title>Node7</title>
<g id="a_node7"><a xlink:href="class_i_plug_v_s_t3_controller_base.html" target="_top" xlink:title="Shared VST3 controller code. ">
<polygon fill="white" stroke="black" points="322,-88.5 322,-107.5 456,-107.5 456,-88.5 322,-88.5"/>
<text text-anchor="middle" x="389" y="-95.5" font-family="Helvetica,sans-Serif" font-size="10.00">IPlugVST3ControllerBase</text>
</a>
</g>
</g>
<!-- Node7&#45;&gt;Node1 -->
<g id="edge6" class="edge"><title>Node7&#45;&gt;Node1</title>
<path fill="none" stroke="midnightblue" d="M466.434,-98C482.916,-98 499.433,-98 512.963,-98"/>
<polygon fill="midnightblue" stroke="midnightblue" points="466.204,-94.5001 456.204,-98 466.204,-101.5 466.204,-94.5001"/>
</g>
<!-- Node8 -->
<g id="node8" class="node"><title>Node8</title>
<polygon fill="white" stroke="#bfbfbf" points="301,-39 301,-69 477,-69 477,-39 301,-39"/>
<text text-anchor="start" x="309" y="-57" font-family="Helvetica,sans-Serif" font-size="10.00">Steinberg::Vst::SingleComponent</text>
<text text-anchor="middle" x="389" y="-46" font-family="Helvetica,sans-Serif" font-size="10.00">Effect</text>
</g>
<!-- Node8&#45;&gt;Node1 -->
<g id="edge7" class="edge"><title>Node8&#45;&gt;Node1</title>
<path fill="none" stroke="midnightblue" d="M452.308,-71.8022C473.097,-77.7419 495.37,-84.1056 512.758,-89.0736"/>
<polygon fill="midnightblue" stroke="midnightblue" points="453.144,-68.4012 442.567,-69.0192 451.221,-75.1319 453.144,-68.4012"/>
</g>
<!-- Node9 -->
<g id="node9" class="node"><title>Node9</title>
<polygon fill="white" stroke="#bfbfbf" points="350,-0.5 350,-19.5 428,-19.5 428,-0.5 350,-0.5"/>
<text text-anchor="middle" x="389" y="-7.5" font-family="Helvetica,sans-Serif" font-size="10.00">IMidiMapping</text>
</g>
<!-- Node9&#45;&gt;Node1 -->
<g id="edge8" class="edge"><title>Node9&#45;&gt;Node1</title>
<path fill="none" stroke="midnightblue" d="M438.021,-15.2977C451.224,-18.1095 465.157,-22.4132 477,-29 503.85,-43.9329 526.715,-73.0452 537.453,-88.2397"/>
<polygon fill="midnightblue" stroke="midnightblue" points="438.589,-11.8433 428.113,-13.4252 437.289,-18.7215 438.589,-11.8433"/>
</g>
</g>
</svg>
