<?xml version="1.0" encoding="UTF-8" standalone="no"?>
<!DOCTYPE svg PUBLIC "-//W3C//DTD SVG 1.1//EN"
 "http://www.w3.org/Graphics/SVG/1.1/DTD/svg11.dtd">
<!-- Generated by graphviz version 2.38.0 (20140413.2041)
 -->
<!-- Title: IVMultiSliderControl&lt; MAXNC &gt; Pages: 1 -->
<svg width="154pt" height="151pt"
 viewBox="0.00 0.00 153.50 151.00" xmlns="http://www.w3.org/2000/svg" xmlns:xlink="http://www.w3.org/1999/xlink">
<g id="graph0" class="graph" transform="scale(1 1) rotate(0) translate(4 147)">
<title>IVMultiSliderControl&lt; MAXNC &gt;</title>
<polygon fill="white" stroke="none" points="-4,4 -4,-147 149.5,-147 149.5,4 -4,4"/>
<!-- Node1 -->
<g id="node1" class="node"><title>Node1</title>
<polygon fill="#bfbfbf" stroke="black" points="12.5,-0.5 12.5,-30.5 122.5,-30.5 122.5,-0.5 12.5,-0.5"/>
<text text-anchor="start" x="20.5" y="-18.5" font-family="Helvetica,sans-Serif" font-size="10.00">IVMultiSliderControl</text>
<text text-anchor="middle" x="67.5" y="-7.5" font-family="Helvetica,sans-Serif" font-size="10.00">&lt; MAXNC &gt;</text>
</g>
<!-- Node2 -->
<g id="node2" class="node"><title>Node2</title>
<g id="a_node2"><a xlink:href="class_i_v_track_control_base.html" target="_top" xlink:title="A base class for mult&#45;strip/track controls, such as multi&#45;sliders, meters. ">
<polygon fill="white" stroke="black" points="13.5,-67.5 13.5,-86.5 121.5,-86.5 121.5,-67.5 13.5,-67.5"/>
<text text-anchor="middle" x="67.5" y="-74.5" font-family="Helvetica,sans-Serif" font-size="10.00">IVTrackControlBase</text>
</a>
</g>
</g>
<!-- Node2&#45;&gt;Node1 -->
<g id="edge1" class="edge"><title>Node2&#45;&gt;Node1</title>
<path fill="none" stroke="midnightblue" d="M67.5,-57.2349C67.5,-48.5864 67.5,-38.4969 67.5,-30.523"/>
<polygon fill="midnightblue" stroke="midnightblue" points="64.0001,-57.4751 67.5,-67.4751 71.0001,-57.4751 64.0001,-57.4751"/>
</g>
<!-- Node3 -->
<g id="node3" class="node"><title>Node3</title>
<g id="a_node3"><a xlink:href="class_i_control.html" target="_top" xlink:title="The lowest level base class of an IGraphics control. ">
<polygon fill="white" stroke="black" points="0,-123.5 0,-142.5 53,-142.5 53,-123.5 0,-123.5"/>
<text text-anchor="middle" x="26.5" y="-130.5" font-family="Helvetica,sans-Serif" font-size="10.00">IControl</text>
</a>
</g>
</g>
<!-- Node3&#45;&gt;Node2 -->
<g id="edge2" class="edge"><title>Node3&#45;&gt;Node2</title>
<path fill="none" stroke="midnightblue" d="M39.5172,-114.855C46.6167,-105.505 55.104,-94.3265 60.8557,-86.7511"/>
<polygon fill="midnightblue" stroke="midnightblue" points="36.5299,-113.002 33.2703,-123.083 42.105,-117.235 36.5299,-113.002"/>
</g>
<!-- Node4 -->
<g id="node4" class="node"><title>Node4</title>
<g id="a_node4"><a xlink:href="class_i_vector_base.html" target="_top" xlink:title="A base interface to be combined with IControl for vectorial controls &quot;IVControls&quot;, in order for them to share a common style If you need more flexibility, you&#39;re on your own! ">
<polygon fill="white" stroke="black" points="71.5,-123.5 71.5,-142.5 145.5,-142.5 145.5,-123.5 71.5,-123.5"/>
<text text-anchor="middle" x="108.5" y="-130.5" font-family="Helvetica,sans-Serif" font-size="10.00">IVectorBase</text>
</a>
</g>
</g>
<!-- Node4&#45;&gt;Node2 -->
<g id="edge3" class="edge"><title>Node4&#45;&gt;Node2</title>
<path fill="none" stroke="midnightblue" d="M95.4828,-114.855C88.3833,-105.505 79.896,-94.3265 74.1443,-86.7511"/>
<polygon fill="midnightblue" stroke="midnightblue" points="92.895,-117.235 101.73,-123.083 98.4701,-113.002 92.895,-117.235"/>
</g>
</g>
</svg>
