<?xml version="1.0" encoding="UTF-8" standalone="no"?>
<!DOCTYPE svg PUBLIC "-//W3C//DTD SVG 1.1//EN"
 "http://www.w3.org/Graphics/SVG/1.1/DTD/svg11.dtd">
<!-- Generated by graphviz version 2.38.0 (20140413.2041)
 -->
<!-- Title: IGraphicsPathBase Pages: 1 -->
<svg width="528pt" height="140pt"
 viewBox="0.00 0.00 528.00 140.00" xmlns="http://www.w3.org/2000/svg" xmlns:xlink="http://www.w3.org/1999/xlink">
<g id="graph0" class="graph" transform="scale(1 1) rotate(0) translate(4 136)">
<title>IGraphicsPathBase</title>
<polygon fill="white" stroke="none" points="-4,4 -4,-136 524,-136 524,4 -4,4"/>
<!-- Node1 -->
<g id="node1" class="node"><title>Node1</title>
<polygon fill="#bfbfbf" stroke="black" points="200.5,-56.5 200.5,-75.5 306.5,-75.5 306.5,-56.5 200.5,-56.5"/>
<text text-anchor="middle" x="253.5" y="-63.5" font-family="Helvetica,sans-Serif" font-size="10.00">IGraphicsPathBase</text>
</g>
<!-- Node3 -->
<g id="node3" class="node"><title>Node3</title>
<g id="a_node3"><a xlink:href="class_i_graphics_a_g_g.html" target="_top" xlink:title="IGraphics draw class using Antigrain Geometry. ">
<polygon fill="white" stroke="black" points="0,-0.5 0,-19.5 83,-19.5 83,-0.5 0,-0.5"/>
<text text-anchor="middle" x="41.5" y="-7.5" font-family="Helvetica,sans-Serif" font-size="10.00">IGraphicsAGG</text>
</a>
</g>
</g>
<!-- Node1&#45;&gt;Node3 -->
<g id="edge2" class="edge"><title>Node1&#45;&gt;Node3</title>
<path fill="none" stroke="midnightblue" d="M210.154,-53.959C170.113,-43.7598 111.467,-28.8217 74.9349,-19.5164"/>
<polygon fill="midnightblue" stroke="midnightblue" points="209.353,-57.3668 219.908,-56.4435 211.081,-50.5834 209.353,-57.3668"/>
</g>
<!-- Node4 -->
<g id="node4" class="node"><title>Node4</title>
<g id="a_node4"><a xlink:href="class_i_graphics_cairo.html" target="_top" xlink:title="IGraphics draw class using Cairo. ">
<polygon fill="white" stroke="black" points="101.5,-0.5 101.5,-19.5 187.5,-19.5 187.5,-0.5 101.5,-0.5"/>
<text text-anchor="middle" x="144.5" y="-7.5" font-family="Helvetica,sans-Serif" font-size="10.00">IGraphicsCairo</text>
</a>
</g>
</g>
<!-- Node1&#45;&gt;Node4 -->
<g id="edge3" class="edge"><title>Node1&#45;&gt;Node4</title>
<path fill="none" stroke="midnightblue" d="M226.981,-51.8622C206.77,-41.8492 179.513,-28.3458 161.969,-19.6545"/>
<polygon fill="midnightblue" stroke="midnightblue" points="225.473,-55.0209 235.987,-56.324 228.58,-48.7485 225.473,-55.0209"/>
</g>
<!-- Node5 -->
<g id="node5" class="node"><title>Node5</title>
<g id="a_node5"><a xlink:href="class_i_graphics_canvas.html" target="_top" xlink:title="IGraphics draw class HTML5 canvas. ">
<polygon fill="white" stroke="black" points="205.5,-0.5 205.5,-19.5 301.5,-19.5 301.5,-0.5 205.5,-0.5"/>
<text text-anchor="middle" x="253.5" y="-7.5" font-family="Helvetica,sans-Serif" font-size="10.00">IGraphicsCanvas</text>
</a>
</g>
</g>
<!-- Node1&#45;&gt;Node5 -->
<g id="edge4" class="edge"><title>Node1&#45;&gt;Node5</title>
<path fill="none" stroke="midnightblue" d="M253.5,-45.8045C253.5,-36.9102 253.5,-26.7798 253.5,-19.7511"/>
<polygon fill="midnightblue" stroke="midnightblue" points="250,-46.083 253.5,-56.083 257,-46.083 250,-46.083"/>
</g>
<!-- Node6 -->
<g id="node6" class="node"><title>Node6</title>
<g id="a_node6"><a xlink:href="class_i_graphics_nano_v_g.html" target="_top" xlink:title="IGraphics draw class using NanoVG. ">
<polygon fill="white" stroke="black" points="320,-0.5 320,-19.5 421,-19.5 421,-0.5 320,-0.5"/>
<text text-anchor="middle" x="370.5" y="-7.5" font-family="Helvetica,sans-Serif" font-size="10.00">IGraphicsNanoVG</text>
</a>
</g>
</g>
<!-- Node1&#45;&gt;Node6 -->
<g id="edge5" class="edge"><title>Node1&#45;&gt;Node6</title>
<path fill="none" stroke="midnightblue" d="M281.164,-52.2321C303.049,-42.1312 332.997,-28.3091 352.048,-19.5164"/>
<polygon fill="midnightblue" stroke="midnightblue" points="279.652,-49.075 272.039,-56.4435 282.585,-55.4308 279.652,-49.075"/>
</g>
<!-- Node7 -->
<g id="node7" class="node"><title>Node7</title>
<g id="a_node7"><a xlink:href="class_i_graphics_skia.html" target="_top" xlink:title="IGraphics draw class using Skia. ">
<polygon fill="white" stroke="black" points="439,-0.5 439,-19.5 520,-19.5 520,-0.5 439,-0.5"/>
<text text-anchor="middle" x="479.5" y="-7.5" font-family="Helvetica,sans-Serif" font-size="10.00">IGraphicsSkia</text>
</a>
</g>
</g>
<!-- Node1&#45;&gt;Node7 -->
<g id="edge6" class="edge"><title>Node1&#45;&gt;Node7</title>
<path fill="none" stroke="midnightblue" d="M299.167,-54.0884C341.864,-43.8865 404.748,-28.8612 443.857,-19.5164"/>
<polygon fill="midnightblue" stroke="midnightblue" points="298.223,-50.7153 289.31,-56.4435 299.85,-57.5237 298.223,-50.7153"/>
</g>
<!-- Node2 -->
<g id="node2" class="node"><title>Node2</title>
<g id="a_node2"><a xlink:href="class_i_graphics.html" target="_top" xlink:title="The lowest level base class of an IGraphics context. ">
<polygon fill="white" stroke="black" points="223,-112.5 223,-131.5 284,-131.5 284,-112.5 223,-112.5"/>
<text text-anchor="middle" x="253.5" y="-119.5" font-family="Helvetica,sans-Serif" font-size="10.00">IGraphics</text>
</a>
</g>
</g>
<!-- Node2&#45;&gt;Node1 -->
<g id="edge1" class="edge"><title>Node2&#45;&gt;Node1</title>
<path fill="none" stroke="midnightblue" d="M253.5,-101.805C253.5,-92.9102 253.5,-82.7798 253.5,-75.7511"/>
<polygon fill="midnightblue" stroke="midnightblue" points="250,-102.083 253.5,-112.083 257,-102.083 250,-102.083"/>
</g>
</g>
</svg>
