<?xml version="1.0" encoding="UTF-8" standalone="no"?>
<!DOCTYPE svg PUBLIC "-//W3C//DTD SVG 1.1//EN"
 "http://www.w3.org/Graphics/SVG/1.1/DTD/svg11.dtd">
<!-- Generated by graphviz version 2.38.0 (20140413.2041)
 -->
<!-- Title: IPlugProcessor Pages: 1 -->
<svg width="618pt" height="140pt"
 viewBox="0.00 0.00 618.00 140.00" xmlns="http://www.w3.org/2000/svg" xmlns:xlink="http://www.w3.org/1999/xlink">
<g id="graph0" class="graph" transform="scale(1 1) rotate(0) translate(4 136)">
<title>IPlugProcessor</title>
<polygon fill="white" stroke="none" points="-4,4 -4,-136 614,-136 614,4 -4,4"/>
<!-- Node1 -->
<g id="node1" class="node"><title>Node1</title>
<polygon fill="#bfbfbf" stroke="black" points="214.5,-112.5 214.5,-131.5 300.5,-131.5 300.5,-112.5 214.5,-112.5"/>
<text text-anchor="middle" x="257.5" y="-119.5" font-family="Helvetica,sans-Serif" font-size="10.00">IPlugProcessor</text>
</g>
<!-- Node2 -->
<g id="node2" class="node"><title>Node2</title>
<g id="a_node2"><a xlink:href="class_i_plug_a_a_x.html" target="_top" xlink:title="AAX API base class for an IPlug plug&#45;in. ">
<polygon fill="white" stroke="black" points="0,-56.5 0,-75.5 59,-75.5 59,-56.5 0,-56.5"/>
<text text-anchor="middle" x="29.5" y="-63.5" font-family="Helvetica,sans-Serif" font-size="10.00">IPlugAAX</text>
</a>
</g>
</g>
<!-- Node1&#45;&gt;Node2 -->
<g id="edge1" class="edge"><title>Node1&#45;&gt;Node2</title>
<path fill="none" stroke="midnightblue" d="M211.483,-110.101C166.082,-99.3484 98.0172,-83.2278 59.2823,-74.0537"/>
<polygon fill="midnightblue" stroke="midnightblue" points="210.835,-113.545 221.373,-112.444 212.449,-106.733 210.835,-113.545"/>
</g>
<!-- Node3 -->
<g id="node3" class="node"><title>Node3</title>
<g id="a_node3"><a xlink:href="class_i_plug_a_p_p.html" target="_top" xlink:title="Standalone application base class for an IPlug plug&#45;in. ">
<polygon fill="white" stroke="black" points="77.5,-56.5 77.5,-75.5 135.5,-75.5 135.5,-56.5 77.5,-56.5"/>
<text text-anchor="middle" x="106.5" y="-63.5" font-family="Helvetica,sans-Serif" font-size="10.00">IPlugAPP</text>
</a>
</g>
</g>
<!-- Node1&#45;&gt;Node3 -->
<g id="edge2" class="edge"><title>Node1&#45;&gt;Node3</title>
<path fill="none" stroke="midnightblue" d="M224.054,-109.039C195.642,-98.8786 155.563,-84.5457 130.314,-75.5164"/>
<polygon fill="midnightblue" stroke="midnightblue" points="222.979,-112.372 233.574,-112.444 225.336,-105.781 222.979,-112.372"/>
</g>
<!-- Node4 -->
<g id="node4" class="node"><title>Node4</title>
<g id="a_node4"><a xlink:href="class_i_plug_a_u.html" target="_top" xlink:title="AudioUnit v2 API base class for an IPlug plug&#45;in. ">
<polygon fill="white" stroke="black" points="154,-56.5 154,-75.5 207,-75.5 207,-56.5 154,-56.5"/>
<text text-anchor="middle" x="180.5" y="-63.5" font-family="Helvetica,sans-Serif" font-size="10.00">IPlugAU</text>
</a>
</g>
</g>
<!-- Node1&#45;&gt;Node4 -->
<g id="edge3" class="edge"><title>Node1&#45;&gt;Node4</title>
<path fill="none" stroke="midnightblue" d="M236.599,-106.342C222.589,-96.5169 204.617,-83.9132 192.841,-75.6545"/>
<polygon fill="midnightblue" stroke="midnightblue" points="234.932,-109.448 245.129,-112.324 238.951,-103.717 234.932,-109.448"/>
</g>
<!-- Node5 -->
<g id="node5" class="node"><title>Node5</title>
<g id="a_node5"><a xlink:href="class_i_plug_a_uv3.html" target="_top" xlink:title="AudioUnit v3 API base class for an IPlug plug&#45;in. ">
<polygon fill="white" stroke="black" points="225,-56.5 225,-75.5 290,-75.5 290,-56.5 225,-56.5"/>
<text text-anchor="middle" x="257.5" y="-63.5" font-family="Helvetica,sans-Serif" font-size="10.00">IPlugAUv3</text>
</a>
</g>
</g>
<!-- Node1&#45;&gt;Node5 -->
<g id="edge4" class="edge"><title>Node1&#45;&gt;Node5</title>
<path fill="none" stroke="midnightblue" d="M257.5,-101.805C257.5,-92.9102 257.5,-82.7798 257.5,-75.7511"/>
<polygon fill="midnightblue" stroke="midnightblue" points="254,-102.083 257.5,-112.083 261,-102.083 254,-102.083"/>
</g>
<!-- Node6 -->
<g id="node6" class="node"><title>Node6</title>
<g id="a_node6"><a xlink:href="class_i_plug_v_s_t2.html" target="_top" xlink:title="VST2.4 API base class for an IPlug plug&#45;in. ">
<polygon fill="white" stroke="black" points="308.5,-56.5 308.5,-75.5 372.5,-75.5 372.5,-56.5 308.5,-56.5"/>
<text text-anchor="middle" x="340.5" y="-63.5" font-family="Helvetica,sans-Serif" font-size="10.00">IPlugVST2</text>
</a>
</g>
</g>
<!-- Node1&#45;&gt;Node6 -->
<g id="edge5" class="edge"><title>Node1&#45;&gt;Node6</title>
<path fill="none" stroke="midnightblue" d="M279.599,-106.622C294.762,-96.7574 314.383,-83.9919 327.198,-75.6545"/>
<polygon fill="midnightblue" stroke="midnightblue" points="277.309,-103.937 270.835,-112.324 281.126,-109.804 277.309,-103.937"/>
</g>
<!-- Node8 -->
<g id="node8" class="node"><title>Node8</title>
<g id="a_node8"><a xlink:href="class_i_plug_v_s_t3_processor_base.html" target="_top" xlink:title="Shared VST3 processor code. ">
<polygon fill="white" stroke="black" points="391,-56.5 391,-75.5 526,-75.5 526,-56.5 391,-56.5"/>
<text text-anchor="middle" x="458.5" y="-63.5" font-family="Helvetica,sans-Serif" font-size="10.00">IPlugVST3ProcessorBase</text>
</a>
</g>
</g>
<!-- Node1&#45;&gt;Node8 -->
<g id="edge7" class="edge"><title>Node1&#45;&gt;Node8</title>
<path fill="none" stroke="midnightblue" d="M299.081,-109.829C337.031,-99.6333 392.31,-84.7823 426.8,-75.5164"/>
<polygon fill="midnightblue" stroke="midnightblue" points="298.098,-106.469 289.349,-112.444 299.915,-113.229 298.098,-106.469"/>
</g>
<!-- Node11 -->
<g id="node11" class="node"><title>Node11</title>
<g id="a_node11"><a xlink:href="class_i_plug_w_a_m.html" target="_top" xlink:title="WebAudioModule (WAM) API base class. ">
<polygon fill="white" stroke="black" points="544.5,-56.5 544.5,-75.5 606.5,-75.5 606.5,-56.5 544.5,-56.5"/>
<text text-anchor="middle" x="575.5" y="-63.5" font-family="Helvetica,sans-Serif" font-size="10.00">IPlugWAM</text>
</a>
</g>
</g>
<!-- Node1&#45;&gt;Node11 -->
<g id="edge10" class="edge"><title>Node1&#45;&gt;Node11</title>
<path fill="none" stroke="midnightblue" d="M310.558,-113.393C366.625,-105.125 457.545,-91.0648 535.5,-76 538.296,-75.4598 541.194,-74.8686 544.095,-74.2557"/>
<polygon fill="midnightblue" stroke="midnightblue" points="309.891,-109.953 300.505,-114.868 310.907,-116.879 309.891,-109.953"/>
</g>
<!-- Node7 -->
<g id="node7" class="node"><title>Node7</title>
<g id="a_node7"><a xlink:href="class_i_plug_reaper_v_s_t2.html" target="_top" xlink:title="Reaper specific VST2.4 API base class for an IPlug plug&#45;in. ">
<polygon fill="white" stroke="black" points="292,-0.5 292,-19.5 389,-19.5 389,-0.5 292,-0.5"/>
<text text-anchor="middle" x="340.5" y="-7.5" font-family="Helvetica,sans-Serif" font-size="10.00">IPlugReaperVST2</text>
</a>
</g>
</g>
<!-- Node6&#45;&gt;Node7 -->
<g id="edge6" class="edge"><title>Node6&#45;&gt;Node7</title>
<path fill="none" stroke="midnightblue" d="M340.5,-45.8045C340.5,-36.9102 340.5,-26.7798 340.5,-19.7511"/>
<polygon fill="midnightblue" stroke="midnightblue" points="337,-46.083 340.5,-56.083 344,-46.083 337,-46.083"/>
</g>
<!-- Node9 -->
<g id="node9" class="node"><title>Node9</title>
<g id="a_node9"><a xlink:href="class_i_plug_v_s_t3.html" target="_top" xlink:title="VST3 base class for a non&#45;distributed IPlug VST3 plug&#45;in. ">
<polygon fill="white" stroke="black" points="416.5,-0.5 416.5,-19.5 480.5,-19.5 480.5,-0.5 416.5,-0.5"/>
<text text-anchor="middle" x="448.5" y="-7.5" font-family="Helvetica,sans-Serif" font-size="10.00">IPlugVST3</text>
</a>
</g>
</g>
<!-- Node8&#45;&gt;Node9 -->
<g id="edge8" class="edge"><title>Node8&#45;&gt;Node9</title>
<path fill="none" stroke="midnightblue" d="M455,-46.1005C453.34,-37.1357 451.437,-26.8579 450.121,-19.7511"/>
<polygon fill="midnightblue" stroke="midnightblue" points="451.586,-46.8875 456.849,-56.083 458.469,-45.6128 451.586,-46.8875"/>
</g>
<!-- Node10 -->
<g id="node10" class="node"><title>Node10</title>
<g id="a_node10"><a xlink:href="class_i_plug_v_s_t3_processor.html" target="_top" xlink:title="VST3 Processor API&#45;base class for a distributed IPlug VST3 plug&#45;in. ">
<polygon fill="white" stroke="black" points="499,-0.5 499,-19.5 610,-19.5 610,-0.5 499,-0.5"/>
<text text-anchor="middle" x="554.5" y="-7.5" font-family="Helvetica,sans-Serif" font-size="10.00">IPlugVST3Processor</text>
</a>
</g>
</g>
<!-- Node8&#45;&gt;Node10 -->
<g id="edge9" class="edge"><title>Node8&#45;&gt;Node10</title>
<path fill="none" stroke="midnightblue" d="M483.074,-51.1774C500.739,-41.2407 524.013,-28.1492 539.114,-19.6545"/>
<polygon fill="midnightblue" stroke="midnightblue" points="480.924,-48.3708 473.924,-56.324 484.356,-54.4718 480.924,-48.3708"/>
</g>
</g>
</svg>
