<?xml version="1.0" encoding="UTF-8" standalone="no"?>
<!DOCTYPE svg PUBLIC "-//W3C//DTD SVG 1.1//EN"
 "http://www.w3.org/Graphics/SVG/1.1/DTD/svg11.dtd">
<!-- Generated by graphviz version 2.38.0 (20140413.2041)
 -->
<!-- Title: ISwitchControlBase Pages: 1 -->
<svg width="468pt" height="196pt"
 viewBox="0.00 0.00 468.00 196.00" xmlns="http://www.w3.org/2000/svg" xmlns:xlink="http://www.w3.org/1999/xlink">
<g id="graph0" class="graph" transform="scale(1 1) rotate(0) translate(4 192)">
<title>ISwitchControlBase</title>
<polygon fill="white" stroke="none" points="-4,4 -4,-192 464,-192 464,4 -4,4"/>
<!-- Node1 -->
<g id="node1" class="node"><title>Node1</title>
<polygon fill="#bfbfbf" stroke="black" points="165.5,-112.5 165.5,-131.5 273.5,-131.5 273.5,-112.5 165.5,-112.5"/>
<text text-anchor="middle" x="219.5" y="-119.5" font-family="Helvetica,sans-Serif" font-size="10.00">ISwitchControlBase</text>
</g>
<!-- Node3 -->
<g id="node3" class="node"><title>Node3</title>
<g id="a_node3"><a xlink:href="class_i_b_switch_control.html" target="_top" xlink:title="A bitmap switch control. ">
<polygon fill="white" stroke="black" points="0,-56.5 0,-75.5 91,-75.5 91,-56.5 0,-56.5"/>
<text text-anchor="middle" x="45.5" y="-63.5" font-family="Helvetica,sans-Serif" font-size="10.00">IBSwitchControl</text>
</a>
</g>
</g>
<!-- Node1&#45;&gt;Node3 -->
<g id="edge2" class="edge"><title>Node1&#45;&gt;Node3</title>
<path fill="none" stroke="midnightblue" d="M182.239,-109.436C149.433,-99.2551 102.417,-84.664 72.9418,-75.5164"/>
<polygon fill="midnightblue" stroke="midnightblue" points="181.341,-112.822 191.929,-112.444 183.416,-106.137 181.341,-112.822"/>
</g>
<!-- Node4 -->
<g id="node4" class="node"><title>Node4</title>
<g id="a_node4"><a xlink:href="class_i_s_v_g_switch_control.html" target="_top" xlink:title="A vector switch control which shows one of multiple SVG states. ">
<polygon fill="white" stroke="black" points="109,-56.5 109,-75.5 214,-75.5 214,-56.5 109,-56.5"/>
<text text-anchor="middle" x="161.5" y="-63.5" font-family="Helvetica,sans-Serif" font-size="10.00">ISVGSwitchControl</text>
</a>
</g>
</g>
<!-- Node1&#45;&gt;Node4 -->
<g id="edge3" class="edge"><title>Node1&#45;&gt;Node4</title>
<path fill="none" stroke="midnightblue" d="M202.587,-105.253C192.297,-95.6731 179.534,-83.7906 170.988,-75.8339"/>
<polygon fill="midnightblue" stroke="midnightblue" points="200.477,-108.071 210.181,-112.324 205.247,-102.948 200.477,-108.071"/>
</g>
<!-- Node5 -->
<g id="node5" class="node"><title>Node5</title>
<g id="a_node5"><a xlink:href="class_i_v_switch_control.html" target="_top" xlink:title="A vector switch control. ">
<polygon fill="white" stroke="black" points="232,-56.5 232,-75.5 323,-75.5 323,-56.5 232,-56.5"/>
<text text-anchor="middle" x="277.5" y="-63.5" font-family="Helvetica,sans-Serif" font-size="10.00">IVSwitchControl</text>
</a>
</g>
</g>
<!-- Node1&#45;&gt;Node5 -->
<g id="edge4" class="edge"><title>Node1&#45;&gt;Node5</title>
<path fill="none" stroke="midnightblue" d="M236.413,-105.253C246.703,-95.6731 259.466,-83.7906 268.012,-75.8339"/>
<polygon fill="midnightblue" stroke="midnightblue" points="233.753,-102.948 228.819,-112.324 238.523,-108.071 233.753,-102.948"/>
</g>
<!-- Node8 -->
<g id="node8" class="node"><title>Node8</title>
<g id="a_node8"><a xlink:href="class_i_v_tab_switch_control.html" target="_top" xlink:title="A vector &quot;tab&quot; multi switch control. ">
<polygon fill="white" stroke="black" points="344,-56.5 344,-75.5 451,-75.5 451,-56.5 344,-56.5"/>
<text text-anchor="middle" x="397.5" y="-63.5" font-family="Helvetica,sans-Serif" font-size="10.00">IVTabSwitchControl</text>
</a>
</g>
</g>
<!-- Node1&#45;&gt;Node8 -->
<g id="edge7" class="edge"><title>Node1&#45;&gt;Node8</title>
<path fill="none" stroke="midnightblue" d="M257.617,-109.436C291.178,-99.2551 339.274,-84.664 369.427,-75.5164"/>
<polygon fill="midnightblue" stroke="midnightblue" points="256.258,-106.191 247.705,-112.444 258.29,-112.89 256.258,-106.191"/>
</g>
<!-- Node2 -->
<g id="node2" class="node"><title>Node2</title>
<g id="a_node2"><a xlink:href="class_i_control.html" target="_top" xlink:title="The lowest level base class of an IGraphics control. ">
<polygon fill="white" stroke="black" points="193,-168.5 193,-187.5 246,-187.5 246,-168.5 193,-168.5"/>
<text text-anchor="middle" x="219.5" y="-175.5" font-family="Helvetica,sans-Serif" font-size="10.00">IControl</text>
</a>
</g>
</g>
<!-- Node2&#45;&gt;Node1 -->
<g id="edge1" class="edge"><title>Node2&#45;&gt;Node1</title>
<path fill="none" stroke="midnightblue" d="M219.5,-157.805C219.5,-148.91 219.5,-138.78 219.5,-131.751"/>
<polygon fill="midnightblue" stroke="midnightblue" points="216,-158.083 219.5,-168.083 223,-158.083 216,-158.083"/>
</g>
<!-- Node6 -->
<g id="node6" class="node"><title>Node6</title>
<g id="a_node6"><a xlink:href="class_i_v_slide_switch_control.html" target="_top" xlink:title="/todo. ">
<polygon fill="white" stroke="black" points="100.5,-0.5 100.5,-19.5 214.5,-19.5 214.5,-0.5 100.5,-0.5"/>
<text text-anchor="middle" x="157.5" y="-7.5" font-family="Helvetica,sans-Serif" font-size="10.00">IVSlideSwitchControl</text>
</a>
</g>
</g>
<!-- Node5&#45;&gt;Node6 -->
<g id="edge5" class="edge"><title>Node5&#45;&gt;Node6</title>
<path fill="none" stroke="midnightblue" d="M249.127,-52.2321C226.68,-42.1312 195.965,-28.3091 176.425,-19.5164"/>
<polygon fill="midnightblue" stroke="midnightblue" points="247.93,-55.5316 258.486,-56.4435 250.803,-49.1481 247.93,-55.5316"/>
</g>
<!-- Node7 -->
<g id="node7" class="node"><title>Node7</title>
<g id="a_node7"><a xlink:href="class_i_v_toggle_control.html" target="_top" xlink:title="A vector toggle control. ">
<polygon fill="white" stroke="black" points="232.5,-0.5 232.5,-19.5 322.5,-19.5 322.5,-0.5 232.5,-0.5"/>
<text text-anchor="middle" x="277.5" y="-7.5" font-family="Helvetica,sans-Serif" font-size="10.00">IVToggleControl</text>
</a>
</g>
</g>
<!-- Node5&#45;&gt;Node7 -->
<g id="edge6" class="edge"><title>Node5&#45;&gt;Node7</title>
<path fill="none" stroke="midnightblue" d="M277.5,-45.8045C277.5,-36.9102 277.5,-26.7798 277.5,-19.7511"/>
<polygon fill="midnightblue" stroke="midnightblue" points="274,-46.083 277.5,-56.083 281,-46.083 274,-46.083"/>
</g>
<!-- Node9 -->
<g id="node9" class="node"><title>Node9</title>
<g id="a_node9"><a xlink:href="class_i_v_radio_button_control.html" target="_top" xlink:title="IVRadioButtonControl">
<polygon fill="white" stroke="black" points="341,-0.5 341,-19.5 460,-19.5 460,-0.5 341,-0.5"/>
<text text-anchor="middle" x="400.5" y="-7.5" font-family="Helvetica,sans-Serif" font-size="10.00">IVRadioButtonControl</text>
</a>
</g>
</g>
<!-- Node8&#45;&gt;Node9 -->
<g id="edge8" class="edge"><title>Node8&#45;&gt;Node9</title>
<path fill="none" stroke="midnightblue" d="M398.566,-45.8045C399.061,-36.9102 399.623,-26.7798 400.014,-19.7511"/>
<polygon fill="midnightblue" stroke="midnightblue" points="395.056,-45.9042 397.995,-56.083 402.045,-46.2926 395.056,-45.9042"/>
</g>
</g>
</svg>
