<?xml version="1.0" encoding="UTF-8" standalone="no"?>
<!DOCTYPE svg PUBLIC "-//W3C//DTD SVG 1.1//EN"
 "http://www.w3.org/Graphics/SVG/1.1/DTD/svg11.dtd">
<!-- Generated by graphviz version 2.38.0 (20140413.2041)
 -->
<!-- Title: IPlugReaperVST2 Pages: 1 -->
<svg width="223pt" height="252pt"
 viewBox="0.00 0.00 222.50 252.00" xmlns="http://www.w3.org/2000/svg" xmlns:xlink="http://www.w3.org/1999/xlink">
<g id="graph0" class="graph" transform="scale(1 1) rotate(0) translate(4 248)">
<title>IPlugReaperVST2</title>
<polygon fill="white" stroke="none" points="-4,4 -4,-248 218.5,-248 218.5,4 -4,4"/>
<!-- Node1 -->
<g id="node1" class="node"><title>Node1</title>
<polygon fill="#bfbfbf" stroke="black" points="73,-0.5 73,-19.5 170,-19.5 170,-0.5 73,-0.5"/>
<text text-anchor="middle" x="121.5" y="-7.5" font-family="Helvetica,sans-Serif" font-size="10.00">IPlugReaperVST2</text>
</g>
<!-- Node2 -->
<g id="node2" class="node"><title>Node2</title>
<g id="a_node2"><a xlink:href="class_i_plug_v_s_t2.html" target="_top" xlink:title="VST2.4 API base class for an IPlug plug&#45;in. ">
<polygon fill="white" stroke="black" points="89.5,-56.5 89.5,-75.5 153.5,-75.5 153.5,-56.5 89.5,-56.5"/>
<text text-anchor="middle" x="121.5" y="-63.5" font-family="Helvetica,sans-Serif" font-size="10.00">IPlugVST2</text>
</a>
</g>
</g>
<!-- Node2&#45;&gt;Node1 -->
<g id="edge1" class="edge"><title>Node2&#45;&gt;Node1</title>
<path fill="none" stroke="midnightblue" d="M121.5,-45.8045C121.5,-36.9102 121.5,-26.7798 121.5,-19.7511"/>
<polygon fill="midnightblue" stroke="midnightblue" points="118,-46.083 121.5,-56.083 125,-46.083 118,-46.083"/>
</g>
<!-- Node3 -->
<g id="node3" class="node"><title>Node3</title>
<g id="a_node3"><a xlink:href="class_i_plug_a_p_i_base.html" target="_top" xlink:title="The base class of an IPlug plug&#45;in, which interacts with the different plug&#45;in APIs. ">
<polygon fill="white" stroke="black" points="32.5,-112.5 32.5,-131.5 110.5,-131.5 110.5,-112.5 32.5,-112.5"/>
<text text-anchor="middle" x="71.5" y="-119.5" font-family="Helvetica,sans-Serif" font-size="10.00">IPlugAPIBase</text>
</a>
</g>
</g>
<!-- Node3&#45;&gt;Node2 -->
<g id="edge2" class="edge"><title>Node3&#45;&gt;Node2</title>
<path fill="none" stroke="midnightblue" d="M86.5763,-104.718C95.3891,-95.1997 106.166,-83.5608 113.397,-75.7511"/>
<polygon fill="midnightblue" stroke="midnightblue" points="83.9824,-102.367 79.7565,-112.083 89.1188,-107.123 83.9824,-102.367"/>
</g>
<!-- Node4 -->
<g id="node4" class="node"><title>Node4</title>
<g id="a_node4"><a xlink:href="class_i_plugin_base.html" target="_top" xlink:title="Base class that contains plug&#45;in info and state manipulation methods. ">
<polygon fill="white" stroke="black" points="36,-168.5 36,-187.5 107,-187.5 107,-168.5 36,-168.5"/>
<text text-anchor="middle" x="71.5" y="-175.5" font-family="Helvetica,sans-Serif" font-size="10.00">IPluginBase</text>
</a>
</g>
</g>
<!-- Node4&#45;&gt;Node3 -->
<g id="edge3" class="edge"><title>Node4&#45;&gt;Node3</title>
<path fill="none" stroke="midnightblue" d="M71.5,-157.805C71.5,-148.91 71.5,-138.78 71.5,-131.751"/>
<polygon fill="midnightblue" stroke="midnightblue" points="68.0001,-158.083 71.5,-168.083 75.0001,-158.083 68.0001,-158.083"/>
</g>
<!-- Node5 -->
<g id="node5" class="node"><title>Node5</title>
<polygon fill="white" stroke="#bfbfbf" points="0,-224.5 0,-243.5 143,-243.5 143,-224.5 0,-224.5"/>
<text text-anchor="middle" x="71.5" y="-231.5" font-family="Helvetica,sans-Serif" font-size="10.00">EDITOR_DELEGATE_CLASS</text>
</g>
<!-- Node5&#45;&gt;Node4 -->
<g id="edge4" class="edge"><title>Node5&#45;&gt;Node4</title>
<path fill="none" stroke="midnightblue" d="M71.5,-213.805C71.5,-204.91 71.5,-194.78 71.5,-187.751"/>
<polygon fill="midnightblue" stroke="midnightblue" points="68.0001,-214.083 71.5,-224.083 75.0001,-214.083 68.0001,-214.083"/>
</g>
<!-- Node6 -->
<g id="node6" class="node"><title>Node6</title>
<g id="a_node6"><a xlink:href="class_i_plug_processor.html" target="_top" xlink:title="The base class for IPlug Audio Processing. ">
<polygon fill="white" stroke="black" points="128.5,-112.5 128.5,-131.5 214.5,-131.5 214.5,-112.5 128.5,-112.5"/>
<text text-anchor="middle" x="171.5" y="-119.5" font-family="Helvetica,sans-Serif" font-size="10.00">IPlugProcessor</text>
</a>
</g>
</g>
<!-- Node6&#45;&gt;Node2 -->
<g id="edge5" class="edge"><title>Node6&#45;&gt;Node2</title>
<path fill="none" stroke="midnightblue" d="M156.424,-104.718C147.611,-95.1997 136.834,-83.5608 129.603,-75.7511"/>
<polygon fill="midnightblue" stroke="midnightblue" points="153.881,-107.123 163.244,-112.083 159.018,-102.367 153.881,-107.123"/>
</g>
</g>
</svg>
