<?xml version="1.0" encoding="UTF-8" standalone="no"?>
<!DOCTYPE svg PUBLIC "-//W3C//DTD SVG 1.1//EN"
 "http://www.w3.org/Graphics/SVG/1.1/DTD/svg11.dtd">
<!-- Generated by graphviz version 2.38.0 (20140413.2041)
 -->
<!-- Title: IPlugVST3Controller Pages: 1 -->
<svg width="613pt" height="142pt"
 viewBox="0.00 0.00 613.00 142.00" xmlns="http://www.w3.org/2000/svg" xmlns:xlink="http://www.w3.org/1999/xlink">
<g id="graph0" class="graph" transform="scale(1 1) rotate(0) translate(4 138)">
<title>IPlugVST3Controller</title>
<polygon fill="white" stroke="none" points="-4,4 -4,-138 609,-138 609,4 -4,4"/>
<!-- Node1 -->
<g id="node1" class="node"><title>Node1</title>
<polygon fill="#bfbfbf" stroke="black" points="495,-57.5 495,-76.5 605,-76.5 605,-57.5 495,-57.5"/>
<text text-anchor="middle" x="550" y="-64.5" font-family="Helvetica,sans-Serif" font-size="10.00">IPlugVST3Controller</text>
</g>
<!-- Node2 -->
<g id="node2" class="node"><title>Node2</title>
<polygon fill="white" stroke="#bfbfbf" points="286,-114.5 286,-133.5 459,-133.5 459,-114.5 286,-114.5"/>
<text text-anchor="middle" x="372.5" y="-121.5" font-family="Helvetica,sans-Serif" font-size="10.00">Steinberg::Vst::EditControllerEx1</text>
</g>
<!-- Node2&#45;&gt;Node1 -->
<g id="edge1" class="edge"><title>Node2&#45;&gt;Node1</title>
<path fill="none" stroke="midnightblue" d="M433.634,-112.08C442.215,-109.962 450.879,-107.593 459,-105 483.882,-97.0546 511.397,-84.9172 529.372,-76.5065"/>
<polygon fill="midnightblue" stroke="midnightblue" points="432.561,-108.737 423.638,-114.45 434.175,-115.548 432.561,-108.737"/>
</g>
<!-- Node3 -->
<g id="node3" class="node"><title>Node3</title>
<polygon fill="white" stroke="#bfbfbf" points="296.5,-76.5 296.5,-95.5 448.5,-95.5 448.5,-76.5 296.5,-76.5"/>
<text text-anchor="middle" x="372.5" y="-83.5" font-family="Helvetica,sans-Serif" font-size="10.00">Steinberg::Vst::IMidiMapping</text>
</g>
<!-- Node3&#45;&gt;Node1 -->
<g id="edge2" class="edge"><title>Node3&#45;&gt;Node1</title>
<path fill="none" stroke="midnightblue" d="M458.944,-76.7497C471.19,-75.4239 483.497,-74.0915 494.908,-72.8561"/>
<polygon fill="midnightblue" stroke="midnightblue" points="458.257,-73.3035 448.692,-77.8596 459.01,-80.2629 458.257,-73.3035"/>
</g>
<!-- Node4 -->
<g id="node4" class="node"><title>Node4</title>
<g id="a_node4"><a xlink:href="class_i_plug_a_p_i_base.html" target="_top" xlink:title="The base class of an IPlug plug&#45;in, which interacts with the different plug&#45;in APIs. ">
<polygon fill="white" stroke="black" points="333.5,-38.5 333.5,-57.5 411.5,-57.5 411.5,-38.5 333.5,-38.5"/>
<text text-anchor="middle" x="372.5" y="-45.5" font-family="Helvetica,sans-Serif" font-size="10.00">IPlugAPIBase</text>
</a>
</g>
</g>
<!-- Node4&#45;&gt;Node1 -->
<g id="edge3" class="edge"><title>Node4&#45;&gt;Node1</title>
<path fill="none" stroke="midnightblue" d="M421.633,-53.211C444.255,-55.6601 471.324,-58.5906 494.678,-61.119"/>
<polygon fill="midnightblue" stroke="midnightblue" points="421.9,-49.7195 411.581,-52.1227 421.146,-56.6788 421.9,-49.7195"/>
</g>
<!-- Node5 -->
<g id="node5" class="node"><title>Node5</title>
<g id="a_node5"><a xlink:href="class_i_plugin_base.html" target="_top" xlink:title="Base class that contains plug&#45;in info and state manipulation methods. ">
<polygon fill="white" stroke="black" points="179,-38.5 179,-57.5 250,-57.5 250,-38.5 179,-38.5"/>
<text text-anchor="middle" x="214.5" y="-45.5" font-family="Helvetica,sans-Serif" font-size="10.00">IPluginBase</text>
</a>
</g>
</g>
<!-- Node5&#45;&gt;Node4 -->
<g id="edge4" class="edge"><title>Node5&#45;&gt;Node4</title>
<path fill="none" stroke="midnightblue" d="M260.369,-48C283.484,-48 311.368,-48 333.422,-48"/>
<polygon fill="midnightblue" stroke="midnightblue" points="260.121,-44.5001 250.121,-48 260.121,-51.5001 260.121,-44.5001"/>
</g>
<!-- Node6 -->
<g id="node6" class="node"><title>Node6</title>
<polygon fill="white" stroke="#bfbfbf" points="0,-38.5 0,-57.5 143,-57.5 143,-38.5 0,-38.5"/>
<text text-anchor="middle" x="71.5" y="-45.5" font-family="Helvetica,sans-Serif" font-size="10.00">EDITOR_DELEGATE_CLASS</text>
</g>
<!-- Node6&#45;&gt;Node5 -->
<g id="edge5" class="edge"><title>Node6&#45;&gt;Node5</title>
<path fill="none" stroke="midnightblue" d="M153.504,-48C162.384,-48 171.036,-48 178.881,-48"/>
<polygon fill="midnightblue" stroke="midnightblue" points="153.413,-44.5001 143.413,-48 153.413,-51.5001 153.413,-44.5001"/>
</g>
<!-- Node7 -->
<g id="node7" class="node"><title>Node7</title>
<g id="a_node7"><a xlink:href="class_i_plug_v_s_t3_controller_base.html" target="_top" xlink:title="Shared VST3 controller code. ">
<polygon fill="white" stroke="black" points="305.5,-0.5 305.5,-19.5 439.5,-19.5 439.5,-0.5 305.5,-0.5"/>
<text text-anchor="middle" x="372.5" y="-7.5" font-family="Helvetica,sans-Serif" font-size="10.00">IPlugVST3ControllerBase</text>
</a>
</g>
</g>
<!-- Node7&#45;&gt;Node1 -->
<g id="edge6" class="edge"><title>Node7&#45;&gt;Node1</title>
<path fill="none" stroke="midnightblue" d="M433.634,-21.9202C442.215,-24.0382 450.879,-26.4068 459,-29 483.882,-36.9454 511.397,-49.0828 529.372,-57.4935"/>
<polygon fill="midnightblue" stroke="midnightblue" points="434.175,-18.4515 423.638,-19.5504 432.561,-25.2627 434.175,-18.4515"/>
</g>
</g>
</svg>
