<?xml version="1.0" encoding="UTF-8" standalone="no"?>
<!DOCTYPE svg PUBLIC "-//W3C//DTD SVG 1.1//EN"
 "http://www.w3.org/Graphics/SVG/1.1/DTD/svg11.dtd">
<!-- Generated by graphviz version 2.38.0 (20140413.2041)
 -->
<!-- Title: IVMeterControl&lt; MAXNC &gt; Pages: 1 -->
<svg width="159pt" height="140pt"
 viewBox="0.00 0.00 159.00 140.00" xmlns="http://www.w3.org/2000/svg" xmlns:xlink="http://www.w3.org/1999/xlink">
<g id="graph0" class="graph" transform="scale(1 1) rotate(0) translate(4 136)">
<title>IVMeterControl&lt; MAXNC &gt;</title>
<polygon fill="white" stroke="none" points="-4,4 -4,-136 155,-136 155,4 -4,4"/>
<!-- Node1 -->
<g id="node1" class="node"><title>Node1</title>
<polygon fill="#bfbfbf" stroke="black" points="0,-0.5 0,-19.5 146,-19.5 146,-0.5 0,-0.5"/>
<text text-anchor="middle" x="73" y="-7.5" font-family="Helvetica,sans-Serif" font-size="10.00">IVMeterControl&lt; MAXNC &gt;</text>
</g>
<!-- Node2 -->
<g id="node2" class="node"><title>Node2</title>
<g id="a_node2"><a xlink:href="class_i_v_track_control_base.html" target="_top" xlink:title="A base class for mult&#45;strip/track controls, such as multi&#45;sliders, meters. ">
<polygon fill="white" stroke="black" points="19,-56.5 19,-75.5 127,-75.5 127,-56.5 19,-56.5"/>
<text text-anchor="middle" x="73" y="-63.5" font-family="Helvetica,sans-Serif" font-size="10.00">IVTrackControlBase</text>
</a>
</g>
</g>
<!-- Node2&#45;&gt;Node1 -->
<g id="edge1" class="edge"><title>Node2&#45;&gt;Node1</title>
<path fill="none" stroke="midnightblue" d="M73,-45.8045C73,-36.9102 73,-26.7798 73,-19.7511"/>
<polygon fill="midnightblue" stroke="midnightblue" points="69.5001,-46.083 73,-56.083 76.5001,-46.083 69.5001,-46.083"/>
</g>
<!-- Node3 -->
<g id="node3" class="node"><title>Node3</title>
<g id="a_node3"><a xlink:href="class_i_control.html" target="_top" xlink:title="The lowest level base class of an IGraphics control. ">
<polygon fill="white" stroke="black" points="5.5,-112.5 5.5,-131.5 58.5,-131.5 58.5,-112.5 5.5,-112.5"/>
<text text-anchor="middle" x="32" y="-119.5" font-family="Helvetica,sans-Serif" font-size="10.00">IControl</text>
</a>
</g>
</g>
<!-- Node3&#45;&gt;Node2 -->
<g id="edge2" class="edge"><title>Node3&#45;&gt;Node2</title>
<path fill="none" stroke="midnightblue" d="M45.0172,-103.855C52.1167,-94.5048 60.604,-83.3265 66.3557,-75.7511"/>
<polygon fill="midnightblue" stroke="midnightblue" points="42.0299,-102.002 38.7703,-112.083 47.605,-106.235 42.0299,-102.002"/>
</g>
<!-- Node4 -->
<g id="node4" class="node"><title>Node4</title>
<g id="a_node4"><a xlink:href="class_i_vector_base.html" target="_top" xlink:title="A base interface to be combined with IControl for vectorial controls &quot;IVControls&quot;, in order for them to share a common style If you need more flexibility, you&#39;re on your own! ">
<polygon fill="white" stroke="black" points="77,-112.5 77,-131.5 151,-131.5 151,-112.5 77,-112.5"/>
<text text-anchor="middle" x="114" y="-119.5" font-family="Helvetica,sans-Serif" font-size="10.00">IVectorBase</text>
</a>
</g>
</g>
<!-- Node4&#45;&gt;Node2 -->
<g id="edge3" class="edge"><title>Node4&#45;&gt;Node2</title>
<path fill="none" stroke="midnightblue" d="M100.983,-103.855C93.8833,-94.5048 85.396,-83.3265 79.6443,-75.7511"/>
<polygon fill="midnightblue" stroke="midnightblue" points="98.395,-106.235 107.23,-112.083 103.97,-102.002 98.395,-106.235"/>
</g>
</g>
</svg>
