<?xml version="1.0" encoding="UTF-8" standalone="no"?>
<!DOCTYPE svg PUBLIC "-//W3C//DTD SVG 1.1//EN"
 "http://www.w3.org/Graphics/SVG/1.1/DTD/svg11.dtd">
<!-- Generated by graphviz version 2.38.0 (20140413.2041)
 -->
<!-- Title: APIBitmap Pages: 1 -->
<svg width="251pt" height="218pt"
 viewBox="0.00 0.00 251.00 218.00" xmlns="http://www.w3.org/2000/svg" xmlns:xlink="http://www.w3.org/1999/xlink">
<g id="graph0" class="graph" transform="scale(1 1) rotate(0) translate(4 214)">
<title>APIBitmap</title>
<polygon fill="white" stroke="none" points="-4,4 -4,-214 247,-214 247,4 -4,4"/>
<!-- Node1 -->
<g id="node1" class="node"><title>Node1</title>
<polygon fill="#bfbfbf" stroke="black" points="0,-95.5 0,-114.5 66,-114.5 66,-95.5 0,-95.5"/>
<text text-anchor="middle" x="33" y="-102.5" font-family="Helvetica,sans-Serif" font-size="10.00">APIBitmap</text>
</g>
<!-- Node2 -->
<g id="node2" class="node"><title>Node2</title>
<g id="a_node2"><a xlink:href="class_i_graphics_a_g_g_1_1_bitmap.html" target="_top" xlink:title="IGraphicsAGG::Bitmap">
<polygon fill="white" stroke="black" points="111,-190.5 111,-209.5 234,-209.5 234,-190.5 111,-190.5"/>
<text text-anchor="middle" x="172.5" y="-197.5" font-family="Helvetica,sans-Serif" font-size="10.00">IGraphicsAGG::Bitmap</text>
</a>
</g>
</g>
<!-- Node1&#45;&gt;Node2 -->
<g id="edge1" class="edge"><title>Node1&#45;&gt;Node2</title>
<path fill="none" stroke="midnightblue" d="M45.6632,-123.211C57.7213,-140.583 78.1144,-166.228 102,-181 108.277,-184.882 115.352,-187.984 122.524,-190.459"/>
<polygon fill="midnightblue" stroke="midnightblue" points="48.3245,-120.894 39.8526,-114.532 42.5079,-124.789 48.3245,-120.894"/>
</g>
<!-- Node3 -->
<g id="node3" class="node"><title>Node3</title>
<g id="a_node3"><a xlink:href="class_i_graphics_cairo_1_1_bitmap.html" target="_top" xlink:title="IGraphicsCairo::Bitmap">
<polygon fill="white" stroke="black" points="109.5,-152.5 109.5,-171.5 235.5,-171.5 235.5,-152.5 109.5,-152.5"/>
<text text-anchor="middle" x="172.5" y="-159.5" font-family="Helvetica,sans-Serif" font-size="10.00">IGraphicsCairo::Bitmap</text>
</a>
</g>
</g>
<!-- Node1&#45;&gt;Node3 -->
<g id="edge2" class="edge"><title>Node1&#45;&gt;Node3</title>
<path fill="none" stroke="midnightblue" d="M57.2373,-119.842C70.06,-127.549 86.4882,-136.656 102,-143 110.915,-146.646 120.755,-149.818 130.156,-152.47"/>
<polygon fill="midnightblue" stroke="midnightblue" points="58.9548,-116.789 48.6024,-114.536 55.2901,-122.753 58.9548,-116.789"/>
</g>
<!-- Node4 -->
<g id="node4" class="node"><title>Node4</title>
<g id="a_node4"><a xlink:href="class_i_graphics_canvas_1_1_bitmap.html" target="_top" xlink:title="IGraphicsCanvas::Bitmap">
<polygon fill="white" stroke="black" points="104,-114.5 104,-133.5 241,-133.5 241,-114.5 104,-114.5"/>
<text text-anchor="middle" x="172.5" y="-121.5" font-family="Helvetica,sans-Serif" font-size="10.00">IGraphicsCanvas::Bitmap</text>
</a>
</g>
</g>
<!-- Node1&#45;&gt;Node4 -->
<g id="edge3" class="edge"><title>Node1&#45;&gt;Node4</title>
<path fill="none" stroke="midnightblue" d="M76.2159,-110.833C85.0209,-112.05 94.5118,-113.362 103.972,-114.669"/>
<polygon fill="midnightblue" stroke="midnightblue" points="76.6226,-107.356 66.2376,-109.455 75.6644,-114.291 76.6226,-107.356"/>
</g>
<!-- Node5 -->
<g id="node5" class="node"><title>Node5</title>
<g id="a_node5"><a xlink:href="class_i_graphics_lice_1_1_bitmap.html" target="_top" xlink:title="IGraphicsLice::Bitmap">
<polygon fill="white" stroke="black" points="112.5,-76.5 112.5,-95.5 232.5,-95.5 232.5,-76.5 112.5,-76.5"/>
<text text-anchor="middle" x="172.5" y="-83.5" font-family="Helvetica,sans-Serif" font-size="10.00">IGraphicsLice::Bitmap</text>
</a>
</g>
</g>
<!-- Node1&#45;&gt;Node5 -->
<g id="edge4" class="edge"><title>Node1&#45;&gt;Node5</title>
<path fill="none" stroke="midnightblue" d="M76.3003,-99.1549C87.6528,-97.5862 100.141,-95.8606 112.23,-94.1901"/>
<polygon fill="midnightblue" stroke="midnightblue" points="75.6644,-95.7094 66.2376,-100.545 76.6226,-102.644 75.6644,-95.7094"/>
</g>
<!-- Node6 -->
<g id="node6" class="node"><title>Node6</title>
<g id="a_node6"><a xlink:href="class_i_graphics_nano_v_g_1_1_bitmap.html" target="_top" xlink:title="IGraphicsNanoVG::Bitmap">
<polygon fill="white" stroke="black" points="102,-38.5 102,-57.5 243,-57.5 243,-38.5 102,-38.5"/>
<text text-anchor="middle" x="172.5" y="-45.5" font-family="Helvetica,sans-Serif" font-size="10.00">IGraphicsNanoVG::Bitmap</text>
</a>
</g>
</g>
<!-- Node1&#45;&gt;Node6 -->
<g id="edge5" class="edge"><title>Node1&#45;&gt;Node6</title>
<path fill="none" stroke="midnightblue" d="M57.2373,-90.1584C70.06,-82.4505 86.4882,-73.3441 102,-67 110.915,-63.3539 120.755,-60.1823 130.156,-57.5295"/>
<polygon fill="midnightblue" stroke="midnightblue" points="55.2901,-87.2469 48.6024,-95.4642 58.9548,-93.2109 55.2901,-87.2469"/>
</g>
<!-- Node7 -->
<g id="node7" class="node"><title>Node7</title>
<g id="a_node7"><a xlink:href="class_i_graphics_skia_1_1_bitmap.html" target="_top" xlink:title="IGraphicsSkia::Bitmap">
<polygon fill="white" stroke="black" points="111.5,-0.5 111.5,-19.5 233.5,-19.5 233.5,-0.5 111.5,-0.5"/>
<text text-anchor="middle" x="172.5" y="-7.5" font-family="Helvetica,sans-Serif" font-size="10.00">IGraphicsSkia::Bitmap</text>
</a>
</g>
</g>
<!-- Node1&#45;&gt;Node7 -->
<g id="edge6" class="edge"><title>Node1&#45;&gt;Node7</title>
<path fill="none" stroke="midnightblue" d="M45.6632,-86.7893C57.7213,-69.4172 78.1144,-43.7721 102,-29 108.277,-25.1181 115.352,-22.0163 122.524,-19.5413"/>
<polygon fill="midnightblue" stroke="midnightblue" points="42.5079,-85.211 39.8526,-95.4677 48.3245,-89.1055 42.5079,-85.211"/>
</g>
</g>
</svg>
