<?xml version="1.0" encoding="UTF-8" standalone="no"?>
<!DOCTYPE svg PUBLIC "-//W3C//DTD SVG 1.1//EN"
 "http://www.w3.org/Graphics/SVG/1.1/DTD/svg11.dtd">
<!-- Generated by graphviz version 2.38.0 (20140413.2041)
 -->
<!-- Title: IBSliderControl Pages: 1 -->
<svg width="208pt" height="140pt"
 viewBox="0.00 0.00 207.50 140.00" xmlns="http://www.w3.org/2000/svg" xmlns:xlink="http://www.w3.org/1999/xlink">
<g id="graph0" class="graph" transform="scale(1 1) rotate(0) translate(4 136)">
<title>IBSliderControl</title>
<polygon fill="white" stroke="none" points="-4,4 -4,-136 203.5,-136 203.5,4 -4,4"/>
<!-- Node1 -->
<g id="node1" class="node"><title>Node1</title>
<polygon fill="#bfbfbf" stroke="black" points="62.5,-0.5 62.5,-19.5 149.5,-19.5 149.5,-0.5 62.5,-0.5"/>
<text text-anchor="middle" x="106" y="-7.5" font-family="Helvetica,sans-Serif" font-size="10.00">IBSliderControl</text>
</g>
<!-- Node2 -->
<g id="node2" class="node"><title>Node2</title>
<g id="a_node2"><a xlink:href="class_i_slider_control_base.html" target="_top" xlink:title="A base class for slider/fader controls, to handle mouse action and Sender. ">
<polygon fill="white" stroke="black" points="0,-56.5 0,-75.5 104,-75.5 104,-56.5 0,-56.5"/>
<text text-anchor="middle" x="52" y="-63.5" font-family="Helvetica,sans-Serif" font-size="10.00">ISliderControlBase</text>
</a>
</g>
</g>
<!-- Node2&#45;&gt;Node1 -->
<g id="edge1" class="edge"><title>Node2&#45;&gt;Node1</title>
<path fill="none" stroke="midnightblue" d="M67.9976,-49.0024C77.5671,-39.4329 89.3611,-27.6389 97.2489,-19.7511"/>
<polygon fill="midnightblue" stroke="midnightblue" points="65.5132,-46.537 60.917,-56.083 70.463,-51.4868 65.5132,-46.537"/>
</g>
<!-- Node3 -->
<g id="node3" class="node"><title>Node3</title>
<g id="a_node3"><a xlink:href="class_i_control.html" target="_top" xlink:title="The lowest level base class of an IGraphics control. ">
<polygon fill="white" stroke="black" points="25.5,-112.5 25.5,-131.5 78.5,-131.5 78.5,-112.5 25.5,-112.5"/>
<text text-anchor="middle" x="52" y="-119.5" font-family="Helvetica,sans-Serif" font-size="10.00">IControl</text>
</a>
</g>
</g>
<!-- Node3&#45;&gt;Node2 -->
<g id="edge2" class="edge"><title>Node3&#45;&gt;Node2</title>
<path fill="none" stroke="midnightblue" d="M52,-101.805C52,-92.9102 52,-82.7798 52,-75.7511"/>
<polygon fill="midnightblue" stroke="midnightblue" points="48.5001,-102.083 52,-112.083 55.5001,-102.083 48.5001,-102.083"/>
</g>
<!-- Node4 -->
<g id="node4" class="node"><title>Node4</title>
<g id="a_node4"><a xlink:href="class_i_bitmap_base.html" target="_top" xlink:title="A base interface, to be combined with IControl for bitmap&#45;based controls &quot;IBControls&quot;, managing an IBitmap. ">
<polygon fill="white" stroke="black" points="122.5,-56.5 122.5,-75.5 199.5,-75.5 199.5,-56.5 122.5,-56.5"/>
<text text-anchor="middle" x="161" y="-63.5" font-family="Helvetica,sans-Serif" font-size="10.00">IBitmapBase</text>
</a>
</g>
</g>
<!-- Node4&#45;&gt;Node1 -->
<g id="edge3" class="edge"><title>Node4&#45;&gt;Node1</title>
<path fill="none" stroke="midnightblue" d="M144.706,-49.0024C134.959,-39.4329 122.947,-27.6389 114.913,-19.7511"/>
<polygon fill="midnightblue" stroke="midnightblue" points="142.33,-51.5746 151.918,-56.083 147.234,-46.5796 142.33,-51.5746"/>
</g>
</g>
</svg>
