<?xml version="1.0" encoding="UTF-8" standalone="no"?>
<!DOCTYPE svg PUBLIC "-//W3C//DTD SVG 1.1//EN"
 "http://www.w3.org/Graphics/SVG/1.1/DTD/svg11.dtd">
<!-- Generated by graphviz version 2.38.0 (20140413.2041)
 -->
<!-- Title: IBitmapBase Pages: 1 -->
<svg width="368pt" height="218pt"
 viewBox="0.00 0.00 368.00 218.00" xmlns="http://www.w3.org/2000/svg" xmlns:xlink="http://www.w3.org/1999/xlink">
<g id="graph0" class="graph" transform="scale(1 1) rotate(0) translate(4 214)">
<title>IBitmapBase</title>
<polygon fill="white" stroke="none" points="-4,4 -4,-214 364,-214 364,4 -4,4"/>
<!-- Node1 -->
<g id="node1" class="node"><title>Node1</title>
<polygon fill="#bfbfbf" stroke="black" points="0,-95.5 0,-114.5 77,-114.5 77,-95.5 0,-95.5"/>
<text text-anchor="middle" x="38.5" y="-102.5" font-family="Helvetica,sans-Serif" font-size="10.00">IBitmapBase</text>
</g>
<!-- Node2 -->
<g id="node2" class="node"><title>Node2</title>
<g id="a_node2"><a xlink:href="class_i_b_button_control.html" target="_top" xlink:title="A bitmap button/momentary switch control. ">
<polygon fill="white" stroke="black" points="113,-190.5 113,-209.5 205,-209.5 205,-190.5 113,-190.5"/>
<text text-anchor="middle" x="159" y="-197.5" font-family="Helvetica,sans-Serif" font-size="10.00">IBButtonControl</text>
</a>
</g>
</g>
<!-- Node1&#45;&gt;Node2 -->
<g id="edge1" class="edge"><title>Node1&#45;&gt;Node2</title>
<path fill="none" stroke="midnightblue" d="M52.9484,-122.553C66.5759,-139.373 89.0182,-164.564 113,-181 118.316,-184.643 124.442,-187.798 130.428,-190.433"/>
<polygon fill="midnightblue" stroke="midnightblue" points="55.6139,-120.281 46.6642,-114.61 50.1244,-124.624 55.6139,-120.281"/>
</g>
<!-- Node3 -->
<g id="node3" class="node"><title>Node3</title>
<g id="a_node3"><a xlink:href="class_i_bitmap_control.html" target="_top" xlink:title="A basic control to draw a bitmap, or one frame of a stacked bitmap depending on the current value...">
<polygon fill="white" stroke="black" points="115,-152.5 115,-171.5 203,-171.5 203,-152.5 115,-152.5"/>
<text text-anchor="middle" x="159" y="-159.5" font-family="Helvetica,sans-Serif" font-size="10.00">IBitmapControl</text>
</a>
</g>
</g>
<!-- Node1&#45;&gt;Node3 -->
<g id="edge2" class="edge"><title>Node1&#45;&gt;Node3</title>
<path fill="none" stroke="midnightblue" d="M66.1101,-119.391C79.963,-126.721 97.2536,-135.619 113,-143 119.911,-146.239 127.524,-149.549 134.492,-152.48"/>
<polygon fill="midnightblue" stroke="midnightblue" points="67.6012,-116.22 57.1301,-114.605 64.3089,-122.397 67.6012,-116.22"/>
</g>
<!-- Node5 -->
<g id="node5" class="node"><title>Node5</title>
<g id="a_node5"><a xlink:href="class_i_b_knob_control.html" target="_top" xlink:title="A bitmap knob/dial control that draws a frame from a stacked bitmap. ">
<polygon fill="white" stroke="black" points="117,-114.5 117,-133.5 201,-133.5 201,-114.5 117,-114.5"/>
<text text-anchor="middle" x="159" y="-121.5" font-family="Helvetica,sans-Serif" font-size="10.00">IBKnobControl</text>
</a>
</g>
</g>
<!-- Node1&#45;&gt;Node5 -->
<g id="edge4" class="edge"><title>Node1&#45;&gt;Node5</title>
<path fill="none" stroke="midnightblue" d="M87.3149,-112.667C97.1016,-114.236 107.321,-115.874 116.849,-117.402"/>
<polygon fill="midnightblue" stroke="midnightblue" points="87.748,-109.191 77.3199,-111.064 86.6397,-116.103 87.748,-109.191"/>
</g>
<!-- Node7 -->
<g id="node7" class="node"><title>Node7</title>
<g id="a_node7"><a xlink:href="class_i_b_slider_control.html" target="_top" xlink:title="A bitmap slider/fader control. ">
<polygon fill="white" stroke="black" points="115.5,-76.5 115.5,-95.5 202.5,-95.5 202.5,-76.5 115.5,-76.5"/>
<text text-anchor="middle" x="159" y="-83.5" font-family="Helvetica,sans-Serif" font-size="10.00">IBSliderControl</text>
</a>
</g>
</g>
<!-- Node1&#45;&gt;Node7 -->
<g id="edge6" class="edge"><title>Node1&#45;&gt;Node7</title>
<path fill="none" stroke="midnightblue" d="M87.4678,-97.309C96.6406,-95.8382 106.188,-94.3074 115.186,-92.8647"/>
<polygon fill="midnightblue" stroke="midnightblue" points="86.6397,-93.8969 77.3199,-98.936 87.748,-100.809 86.6397,-93.8969"/>
</g>
<!-- Node8 -->
<g id="node8" class="node"><title>Node8</title>
<g id="a_node8"><a xlink:href="class_i_b_switch_control.html" target="_top" xlink:title="A bitmap switch control. ">
<polygon fill="white" stroke="black" points="113.5,-38.5 113.5,-57.5 204.5,-57.5 204.5,-38.5 113.5,-38.5"/>
<text text-anchor="middle" x="159" y="-45.5" font-family="Helvetica,sans-Serif" font-size="10.00">IBSwitchControl</text>
</a>
</g>
</g>
<!-- Node1&#45;&gt;Node8 -->
<g id="edge7" class="edge"><title>Node1&#45;&gt;Node8</title>
<path fill="none" stroke="midnightblue" d="M66.1101,-90.609C79.963,-83.2793 97.2536,-74.3812 113,-67 119.911,-63.7606 127.524,-60.4506 134.492,-57.5199"/>
<polygon fill="midnightblue" stroke="midnightblue" points="64.3089,-87.6029 57.1301,-95.395 67.6012,-93.7804 64.3089,-87.6029"/>
</g>
<!-- Node9 -->
<g id="node9" class="node"><title>Node9</title>
<g id="a_node9"><a xlink:href="class_i_b_text_control.html" target="_top" xlink:title="A control to display text using a monospace bitmap font. ">
<polygon fill="white" stroke="black" points="119.5,-0.5 119.5,-19.5 198.5,-19.5 198.5,-0.5 119.5,-0.5"/>
<text text-anchor="middle" x="159" y="-7.5" font-family="Helvetica,sans-Serif" font-size="10.00">IBTextControl</text>
</a>
</g>
</g>
<!-- Node1&#45;&gt;Node9 -->
<g id="edge8" class="edge"><title>Node1&#45;&gt;Node9</title>
<path fill="none" stroke="midnightblue" d="M52.9484,-87.4472C66.5759,-70.6266 89.0182,-45.4356 113,-29 118.316,-25.3565 124.442,-22.2018 130.428,-19.5667"/>
<polygon fill="midnightblue" stroke="midnightblue" points="50.1244,-85.3757 46.6642,-95.3896 55.6139,-89.7192 50.1244,-85.3757"/>
</g>
<!-- Node4 -->
<g id="node4" class="node"><title>Node4</title>
<g id="a_node4"><a xlink:href="class_test_mask_control.html" target="_top" xlink:title="Control to display the size of a region. ">
<polygon fill="white" stroke="black" points="253,-152.5 253,-171.5 348,-171.5 348,-152.5 253,-152.5"/>
<text text-anchor="middle" x="300.5" y="-159.5" font-family="Helvetica,sans-Serif" font-size="10.00">TestMaskControl</text>
</a>
</g>
</g>
<!-- Node3&#45;&gt;Node4 -->
<g id="edge3" class="edge"><title>Node3&#45;&gt;Node4</title>
<path fill="none" stroke="midnightblue" d="M213.536,-162C226.463,-162 240.176,-162 252.764,-162"/>
<polygon fill="midnightblue" stroke="midnightblue" points="213.374,-158.5 203.374,-162 213.374,-165.5 213.374,-158.5"/>
</g>
<!-- Node6 -->
<g id="node6" class="node"><title>Node6</title>
<g id="a_node6"><a xlink:href="class_i_b_knob_rotater_control.html" target="_top" xlink:title="A bitmap knob/dial control that rotates an image. ">
<polygon fill="white" stroke="black" points="241,-114.5 241,-133.5 360,-133.5 360,-114.5 241,-114.5"/>
<text text-anchor="middle" x="300.5" y="-121.5" font-family="Helvetica,sans-Serif" font-size="10.00">IBKnobRotaterControl</text>
</a>
</g>
</g>
<!-- Node5&#45;&gt;Node6 -->
<g id="edge5" class="edge"><title>Node5&#45;&gt;Node6</title>
<path fill="none" stroke="midnightblue" d="M211.301,-124C220.92,-124 231.043,-124 240.864,-124"/>
<polygon fill="midnightblue" stroke="midnightblue" points="211.1,-120.5 201.1,-124 211.1,-127.5 211.1,-120.5"/>
</g>
</g>
</svg>
