<?xml version="1.0" encoding="UTF-8" standalone="no"?>
<!DOCTYPE svg PUBLIC "-//W3C//DTD SVG 1.1//EN"
 "http://www.w3.org/Graphics/SVG/1.1/DTD/svg11.dtd">
<!-- Generated by graphviz version 2.38.0 (20140413.2041)
 -->
<!-- Title: IKnobControlBase Pages: 1 -->
<svg width="531pt" height="408pt"
 viewBox="0.00 0.00 531.00 408.00" xmlns="http://www.w3.org/2000/svg" xmlns:xlink="http://www.w3.org/1999/xlink">
<g id="graph0" class="graph" transform="scale(1 1) rotate(0) translate(4 404)">
<title>IKnobControlBase</title>
<polygon fill="white" stroke="none" points="-4,4 -4,-404 527,-404 527,4 -4,4"/>
<!-- Node1 -->
<g id="node1" class="node"><title>Node1</title>
<polygon fill="#bfbfbf" stroke="black" points="89,-190.5 89,-209.5 190,-209.5 190,-190.5 89,-190.5"/>
<text text-anchor="middle" x="139.5" y="-197.5" font-family="Helvetica,sans-Serif" font-size="10.00">IKnobControlBase</text>
</g>
<!-- Node3 -->
<g id="node3" class="node"><title>Node3</title>
<g id="a_node3"><a xlink:href="class_i_b_knob_control.html" target="_top" xlink:title="A bitmap knob/dial control that draws a frame from a stacked bitmap. ">
<polygon fill="white" stroke="black" points="255,-380.5 255,-399.5 339,-399.5 339,-380.5 255,-380.5"/>
<text text-anchor="middle" x="297" y="-387.5" font-family="Helvetica,sans-Serif" font-size="10.00">IBKnobControl</text>
</a>
</g>
</g>
<!-- Node1&#45;&gt;Node3 -->
<g id="edge2" class="edge"><title>Node1&#45;&gt;Node3</title>
<path fill="none" stroke="midnightblue" d="M144.834,-220.047C153.646,-255.895 177.104,-330.965 226,-371 234.184,-377.701 244.534,-382.05 254.747,-384.87"/>
<polygon fill="midnightblue" stroke="midnightblue" points="148.145,-218.83 142.474,-209.881 141.326,-220.413 148.145,-218.83"/>
</g>
<!-- Node5 -->
<g id="node5" class="node"><title>Node5</title>
<g id="a_node5"><a xlink:href="class_i_s_v_g_knob_control.html" target="_top" xlink:title="A vector knob/dial control which rotates an SVG image. ">
<polygon fill="white" stroke="black" points="248,-342.5 248,-361.5 346,-361.5 346,-342.5 248,-342.5"/>
<text text-anchor="middle" x="297" y="-349.5" font-family="Helvetica,sans-Serif" font-size="10.00">ISVGKnobControl</text>
</a>
</g>
</g>
<!-- Node1&#45;&gt;Node5 -->
<g id="edge4" class="edge"><title>Node1&#45;&gt;Node5</title>
<path fill="none" stroke="midnightblue" d="M147.588,-219.236C159.32,-248.361 185.57,-303.382 226,-333 232.501,-337.763 240.127,-341.332 247.909,-344.006"/>
<polygon fill="midnightblue" stroke="midnightblue" points="150.798,-217.834 143.923,-209.773 144.271,-220.362 150.798,-217.834"/>
</g>
<!-- Node6 -->
<g id="node6" class="node"><title>Node6</title>
<g id="a_node6"><a xlink:href="class_i_v_knob_control.html" target="_top" xlink:title="A vector knob control drawn using graphics primitves. ">
<polygon fill="white" stroke="black" points="255,-304.5 255,-323.5 339,-323.5 339,-304.5 255,-304.5"/>
<text text-anchor="middle" x="297" y="-311.5" font-family="Helvetica,sans-Serif" font-size="10.00">IVKnobControl</text>
</a>
</g>
</g>
<!-- Node1&#45;&gt;Node6 -->
<g id="edge5" class="edge"><title>Node1&#45;&gt;Node6</title>
<path fill="none" stroke="midnightblue" d="M152.122,-218.32C166.754,-239.884 193.897,-275.251 226,-295 234.688,-300.345 244.885,-304.209 254.768,-306.995"/>
<polygon fill="midnightblue" stroke="midnightblue" points="154.898,-216.173 146.473,-209.749 149.054,-220.025 154.898,-216.173"/>
</g>
<!-- Node7 -->
<g id="node7" class="node"><title>Node7</title>
<g id="a_node7"><a xlink:href="class_test_arc_control.html" target="_top" xlink:title="Control to test drawing arcs. ">
<polygon fill="white" stroke="black" points="254,-266.5 254,-285.5 340,-285.5 340,-266.5 254,-266.5"/>
<text text-anchor="middle" x="297" y="-273.5" font-family="Helvetica,sans-Serif" font-size="10.00">TestArcControl</text>
</a>
</g>
</g>
<!-- Node1&#45;&gt;Node7 -->
<g id="edge6" class="edge"><title>Node1&#45;&gt;Node7</title>
<path fill="none" stroke="midnightblue" d="M160.133,-215.78C176.798,-228.492 201.796,-246.001 226,-257 234.713,-260.959 244.422,-264.242 253.768,-266.902"/>
<polygon fill="midnightblue" stroke="midnightblue" points="162.268,-213.006 152.226,-209.629 157.97,-218.532 162.268,-213.006"/>
</g>
<!-- Node8 -->
<g id="node8" class="node"><title>Node8</title>
<g id="a_node8"><a xlink:href="class_test_blend_control.html" target="_top" xlink:title="Control to test blend methods. ">
<polygon fill="white" stroke="black" points="248.5,-228.5 248.5,-247.5 345.5,-247.5 345.5,-228.5 248.5,-228.5"/>
<text text-anchor="middle" x="297" y="-235.5" font-family="Helvetica,sans-Serif" font-size="10.00">TestBlendControl</text>
</a>
</g>
</g>
<!-- Node1&#45;&gt;Node8 -->
<g id="edge7" class="edge"><title>Node1&#45;&gt;Node8</title>
<path fill="none" stroke="midnightblue" d="M189.474,-211.968C211.265,-217.293 236.567,-223.476 257.043,-228.48"/>
<polygon fill="midnightblue" stroke="midnightblue" points="190.284,-208.563 179.739,-209.589 188.622,-215.363 190.284,-208.563"/>
</g>
<!-- Node9 -->
<g id="node9" class="node"><title>Node9</title>
<g id="a_node9"><a xlink:href="class_test_gradient_control.html" target="_top" xlink:title="Control to test drawing gradients with path based drawing backends. ">
<polygon fill="white" stroke="black" points="241.5,-190.5 241.5,-209.5 352.5,-209.5 352.5,-190.5 241.5,-190.5"/>
<text text-anchor="middle" x="297" y="-197.5" font-family="Helvetica,sans-Serif" font-size="10.00">TestGradientControl</text>
</a>
</g>
</g>
<!-- Node1&#45;&gt;Node9 -->
<g id="edge8" class="edge"><title>Node1&#45;&gt;Node9</title>
<path fill="none" stroke="midnightblue" d="M200.303,-200C213.842,-200 228.148,-200 241.457,-200"/>
<polygon fill="midnightblue" stroke="midnightblue" points="200.129,-196.5 190.129,-200 200.129,-203.5 200.129,-196.5"/>
</g>
<!-- Node10 -->
<g id="node10" class="node"><title>Node10</title>
<g id="a_node10"><a xlink:href="class_test_layer_control.html" target="_top" xlink:title="Control to test IGraphics layers. ">
<polygon fill="white" stroke="black" points="249,-152.5 249,-171.5 345,-171.5 345,-152.5 249,-152.5"/>
<text text-anchor="middle" x="297" y="-159.5" font-family="Helvetica,sans-Serif" font-size="10.00">TestLayerControl</text>
</a>
</g>
</g>
<!-- Node1&#45;&gt;Node10 -->
<g id="edge9" class="edge"><title>Node1&#45;&gt;Node10</title>
<path fill="none" stroke="midnightblue" d="M189.474,-188.032C211.265,-182.707 236.567,-176.524 257.043,-171.52"/>
<polygon fill="midnightblue" stroke="midnightblue" points="188.622,-184.637 179.739,-190.411 190.284,-191.437 188.622,-184.637"/>
</g>
<!-- Node11 -->
<g id="node11" class="node"><title>Node11</title>
<g id="a_node11"><a xlink:href="class_test_multi_path_control.html" target="_top" xlink:title="Control to test drawing paths in path&#45;based drawing backends. ">
<polygon fill="white" stroke="black" points="240.5,-114.5 240.5,-133.5 353.5,-133.5 353.5,-114.5 240.5,-114.5"/>
<text text-anchor="middle" x="297" y="-121.5" font-family="Helvetica,sans-Serif" font-size="10.00">TestMultiPathControl</text>
</a>
</g>
</g>
<!-- Node1&#45;&gt;Node11 -->
<g id="edge10" class="edge"><title>Node1&#45;&gt;Node11</title>
<path fill="none" stroke="midnightblue" d="M160.133,-184.22C176.798,-171.508 201.796,-153.999 226,-143 234.254,-139.249 243.403,-136.105 252.289,-133.523"/>
<polygon fill="midnightblue" stroke="midnightblue" points="157.97,-181.468 152.226,-190.371 162.268,-186.994 157.97,-181.468"/>
</g>
<!-- Node12 -->
<g id="node12" class="node"><title>Node12</title>
<g id="a_node12"><a xlink:href="class_test_poly_control.html" target="_top" xlink:title="Control to test drawing polygons. ">
<polygon fill="white" stroke="black" points="252.5,-76.5 252.5,-95.5 341.5,-95.5 341.5,-76.5 252.5,-76.5"/>
<text text-anchor="middle" x="297" y="-83.5" font-family="Helvetica,sans-Serif" font-size="10.00">TestPolyControl</text>
</a>
</g>
</g>
<!-- Node1&#45;&gt;Node12 -->
<g id="edge11" class="edge"><title>Node1&#45;&gt;Node12</title>
<path fill="none" stroke="midnightblue" d="M152.122,-181.68C166.754,-160.116 193.897,-124.749 226,-105 233.937,-100.117 243.134,-96.4699 252.2,-93.7515"/>
<polygon fill="midnightblue" stroke="midnightblue" points="149.054,-179.975 146.473,-190.251 154.898,-183.827 149.054,-179.975"/>
</g>
<!-- Node13 -->
<g id="node13" class="node"><title>Node13</title>
<g id="a_node13"><a xlink:href="class_test_text_orientation_control.html" target="_top" xlink:title="Control to test drawing text with orientation. ">
<polygon fill="white" stroke="black" points="226,-38.5 226,-57.5 368,-57.5 368,-38.5 226,-38.5"/>
<text text-anchor="middle" x="297" y="-45.5" font-family="Helvetica,sans-Serif" font-size="10.00">TestTextOrientationControl</text>
</a>
</g>
</g>
<!-- Node1&#45;&gt;Node13 -->
<g id="edge12" class="edge"><title>Node1&#45;&gt;Node13</title>
<path fill="none" stroke="midnightblue" d="M147.588,-180.764C159.32,-151.639 185.57,-96.6176 226,-67 231.282,-63.1303 237.307,-60.0488 243.554,-57.5948"/>
<polygon fill="midnightblue" stroke="midnightblue" points="144.271,-179.638 143.923,-190.227 150.798,-182.166 144.271,-179.638"/>
</g>
<!-- Node14 -->
<g id="node14" class="node"><title>Node14</title>
<g id="a_node14"><a xlink:href="class_test_text_size_control.html" target="_top" xlink:title="Control to test drawing text with varying size. ">
<polygon fill="white" stroke="black" points="242.5,-0.5 242.5,-19.5 351.5,-19.5 351.5,-0.5 242.5,-0.5"/>
<text text-anchor="middle" x="297" y="-7.5" font-family="Helvetica,sans-Serif" font-size="10.00">TestTextSizeControl</text>
</a>
</g>
</g>
<!-- Node1&#45;&gt;Node14 -->
<g id="edge13" class="edge"><title>Node1&#45;&gt;Node14</title>
<path fill="none" stroke="midnightblue" d="M144.834,-179.953C153.646,-144.105 177.104,-69.0354 226,-29 230.872,-25.0112 236.51,-21.8557 242.431,-19.3602"/>
<polygon fill="midnightblue" stroke="midnightblue" points="141.326,-179.587 142.474,-190.119 148.145,-181.17 141.326,-179.587"/>
</g>
<!-- Node2 -->
<g id="node2" class="node"><title>Node2</title>
<g id="a_node2"><a xlink:href="class_i_control.html" target="_top" xlink:title="The lowest level base class of an IGraphics control. ">
<polygon fill="white" stroke="black" points="0,-190.5 0,-209.5 53,-209.5 53,-190.5 0,-190.5"/>
<text text-anchor="middle" x="26.5" y="-197.5" font-family="Helvetica,sans-Serif" font-size="10.00">IControl</text>
</a>
</g>
</g>
<!-- Node2&#45;&gt;Node1 -->
<g id="edge1" class="edge"><title>Node2&#45;&gt;Node1</title>
<path fill="none" stroke="midnightblue" d="M63.4687,-200C71.5784,-200 80.3257,-200 88.8843,-200"/>
<polygon fill="midnightblue" stroke="midnightblue" points="63.2447,-196.5 53.2446,-200 63.2446,-203.5 63.2447,-196.5"/>
</g>
<!-- Node4 -->
<g id="node4" class="node"><title>Node4</title>
<g id="a_node4"><a xlink:href="class_i_b_knob_rotater_control.html" target="_top" xlink:title="A bitmap knob/dial control that rotates an image. ">
<polygon fill="white" stroke="black" points="404,-380.5 404,-399.5 523,-399.5 523,-380.5 404,-380.5"/>
<text text-anchor="middle" x="463.5" y="-387.5" font-family="Helvetica,sans-Serif" font-size="10.00">IBKnobRotaterControl</text>
</a>
</g>
</g>
<!-- Node3&#45;&gt;Node4 -->
<g id="edge3" class="edge"><title>Node3&#45;&gt;Node4</title>
<path fill="none" stroke="midnightblue" d="M349.533,-390C366.804,-390 386.184,-390 403.952,-390"/>
<polygon fill="midnightblue" stroke="midnightblue" points="349.086,-386.5 339.086,-390 349.086,-393.5 349.086,-386.5"/>
</g>
</g>
</svg>
