<?xml version="1.0" encoding="UTF-8" standalone="no"?>
<!DOCTYPE svg PUBLIC "-//W3C//DTD SVG 1.1//EN"
 "http://www.w3.org/Graphics/SVG/1.1/DTD/svg11.dtd">
<!-- Generated by graphviz version 2.38.0 (20140413.2041)
 -->
<!-- Title: IBufferSender&lt; MAXNC, QUEUE_SIZE, MAXBUF &gt; Pages: 1 -->
<svg width="148pt" height="117pt"
 viewBox="0.00 0.00 148.00 117.00" xmlns="http://www.w3.org/2000/svg" xmlns:xlink="http://www.w3.org/1999/xlink">
<g id="graph0" class="graph" transform="scale(1 1) rotate(0) translate(4 113)">
<title>IBufferSender&lt; MAXNC, QUEUE_SIZE, MAXBUF &gt;</title>
<polygon fill="white" stroke="none" points="-4,4 -4,-113 144,-113 144,4 -4,4"/>
<!-- Node1 -->
<g id="node1" class="node"><title>Node1</title>
<polygon fill="#bfbfbf" stroke="black" points="0,-0.5 0,-30.5 140,-30.5 140,-0.5 0,-0.5"/>
<text text-anchor="start" x="8" y="-18.5" font-family="Helvetica,sans-Serif" font-size="10.00">IBufferSender&lt; MAXNC,</text>
<text text-anchor="middle" x="70" y="-7.5" font-family="Helvetica,sans-Serif" font-size="10.00"> QUEUE_SIZE, MAXBUF &gt;</text>
</g>
<!-- Node2 -->
<g id="node2" class="node"><title>Node2</title>
<g id="a_node2"><a xlink:href="class_i_sender.html" target="_top" xlink:title="ISender\&lt; MAXNC, QUEUE\l_SIZE, std::array\&lt; float,\l MAXBUF \&gt; \&gt;">
<polygon fill="white" stroke="black" points="0,-67.5 0,-108.5 140,-108.5 140,-67.5 0,-67.5"/>
<text text-anchor="start" x="8" y="-96.5" font-family="Helvetica,sans-Serif" font-size="10.00">ISender&lt; MAXNC, QUEUE</text>
<text text-anchor="start" x="8" y="-85.5" font-family="Helvetica,sans-Serif" font-size="10.00">_SIZE, std::array&lt; float,</text>
<text text-anchor="middle" x="70" y="-74.5" font-family="Helvetica,sans-Serif" font-size="10.00"> MAXBUF &gt; &gt;</text>
</a>
</g>
</g>
<!-- Node2&#45;&gt;Node1 -->
<g id="edge1" class="edge"><title>Node2&#45;&gt;Node1</title>
<path fill="none" stroke="midnightblue" d="M70,-57.08C70,-48.0061 70,-38.4498 70,-30.8916"/>
<polygon fill="midnightblue" stroke="midnightblue" points="66.5001,-57.3618 70,-67.3618 73.5001,-57.3619 66.5001,-57.3618"/>
</g>
</g>
</svg>
