<?xml version="1.0" encoding="UTF-8" standalone="no"?>
<!DOCTYPE svg PUBLIC "-//W3C//DTD SVG 1.1//EN"
 "http://www.w3.org/Graphics/SVG/1.1/DTD/svg11.dtd">
<!-- Generated by graphviz version 2.38.0 (20140413.2041)
 -->
<!-- Title: IPlugAPIBase Pages: 1 -->
<svg width="652pt" height="370pt"
 viewBox="0.00 0.00 652.00 370.00" xmlns="http://www.w3.org/2000/svg" xmlns:xlink="http://www.w3.org/1999/xlink">
<g id="graph0" class="graph" transform="scale(1 1) rotate(0) translate(4 366)">
<title>IPlugAPIBase</title>
<polygon fill="white" stroke="none" points="-4,4 -4,-366 648,-366 648,4 -4,4"/>
<!-- Node1 -->
<g id="node1" class="node"><title>Node1</title>
<polygon fill="#bfbfbf" stroke="black" points="286,-171.5 286,-190.5 364,-190.5 364,-171.5 286,-171.5"/>
<text text-anchor="middle" x="325" y="-178.5" font-family="Helvetica,sans-Serif" font-size="10.00">IPlugAPIBase</text>
</g>
<!-- Node4 -->
<g id="node4" class="node"><title>Node4</title>
<g id="a_node4"><a xlink:href="class_i_plug_a_a_x.html" target="_top" xlink:title="AAX API base class for an IPlug plug&#45;in. ">
<polygon fill="white" stroke="black" points="426,-342.5 426,-361.5 485,-361.5 485,-342.5 426,-342.5"/>
<text text-anchor="middle" x="455.5" y="-349.5" font-family="Helvetica,sans-Serif" font-size="10.00">IPlugAAX</text>
</a>
</g>
</g>
<!-- Node1&#45;&gt;Node4 -->
<g id="edge3" class="edge"><title>Node1&#45;&gt;Node4</title>
<path fill="none" stroke="midnightblue" d="M330.412,-200.712C338.608,-232.884 359.182,-296.722 400,-333 407.265,-339.457 416.849,-343.749 425.952,-346.589"/>
<polygon fill="midnightblue" stroke="midnightblue" points="333.758,-199.655 328.017,-190.75 326.952,-201.291 333.758,-199.655"/>
</g>
<!-- Node5 -->
<g id="node5" class="node"><title>Node5</title>
<g id="a_node5"><a xlink:href="class_i_plug_a_p_p.html" target="_top" xlink:title="Standalone application base class for an IPlug plug&#45;in. ">
<polygon fill="white" stroke="black" points="426.5,-304.5 426.5,-323.5 484.5,-323.5 484.5,-304.5 426.5,-304.5"/>
<text text-anchor="middle" x="455.5" y="-311.5" font-family="Helvetica,sans-Serif" font-size="10.00">IPlugAPP</text>
</a>
</g>
</g>
<!-- Node1&#45;&gt;Node5 -->
<g id="edge4" class="edge"><title>Node1&#45;&gt;Node5</title>
<path fill="none" stroke="midnightblue" d="M333.632,-200.025C344.659,-225.206 367.367,-269.398 400,-295 407.647,-300.999 417.324,-305.18 426.394,-308.059"/>
<polygon fill="midnightblue" stroke="midnightblue" points="336.852,-198.653 329.744,-190.797 330.402,-201.371 336.852,-198.653"/>
</g>
<!-- Node6 -->
<g id="node6" class="node"><title>Node6</title>
<g id="a_node6"><a xlink:href="class_i_plug_a_u.html" target="_top" xlink:title="AudioUnit v2 API base class for an IPlug plug&#45;in. ">
<polygon fill="white" stroke="black" points="429,-266.5 429,-285.5 482,-285.5 482,-266.5 429,-266.5"/>
<text text-anchor="middle" x="455.5" y="-273.5" font-family="Helvetica,sans-Serif" font-size="10.00">IPlugAU</text>
</a>
</g>
</g>
<!-- Node1&#45;&gt;Node6 -->
<g id="edge5" class="edge"><title>Node1&#45;&gt;Node6</title>
<path fill="none" stroke="midnightblue" d="M339.122,-198.613C352.669,-215.685 375.265,-241.247 400,-257 408.79,-262.598 419.433,-266.783 428.972,-269.78"/>
<polygon fill="midnightblue" stroke="midnightblue" points="341.782,-196.33 332.899,-190.556 336.242,-200.609 341.782,-196.33"/>
</g>
<!-- Node7 -->
<g id="node7" class="node"><title>Node7</title>
<g id="a_node7"><a xlink:href="class_i_plug_a_uv3.html" target="_top" xlink:title="AudioUnit v3 API base class for an IPlug plug&#45;in. ">
<polygon fill="white" stroke="black" points="423,-228.5 423,-247.5 488,-247.5 488,-228.5 423,-228.5"/>
<text text-anchor="middle" x="455.5" y="-235.5" font-family="Helvetica,sans-Serif" font-size="10.00">IPlugAUv3</text>
</a>
</g>
</g>
<!-- Node1&#45;&gt;Node7 -->
<g id="edge6" class="edge"><title>Node1&#45;&gt;Node7</title>
<path fill="none" stroke="midnightblue" d="M352.053,-195.503C366.042,-203.002 383.714,-212.02 400,-219 407.921,-222.395 416.67,-225.653 424.798,-228.483"/>
<polygon fill="midnightblue" stroke="midnightblue" points="353.477,-192.294 343.019,-190.598 350.137,-198.446 353.477,-192.294"/>
</g>
<!-- Node8 -->
<g id="node8" class="node"><title>Node8</title>
<g id="a_node8"><a xlink:href="class_i_plug_v_s_t2.html" target="_top" xlink:title="VST2.4 API base class for an IPlug plug&#45;in. ">
<polygon fill="white" stroke="black" points="423.5,-190.5 423.5,-209.5 487.5,-209.5 487.5,-190.5 423.5,-190.5"/>
<text text-anchor="middle" x="455.5" y="-197.5" font-family="Helvetica,sans-Serif" font-size="10.00">IPlugVST2</text>
</a>
</g>
</g>
<!-- Node1&#45;&gt;Node8 -->
<g id="edge7" class="edge"><title>Node1&#45;&gt;Node8</title>
<path fill="none" stroke="midnightblue" d="M374.171,-188.123C390.551,-190.545 408.421,-193.187 423.139,-195.363"/>
<polygon fill="midnightblue" stroke="midnightblue" points="374.611,-184.65 364.206,-186.649 373.587,-191.574 374.611,-184.65"/>
</g>
<!-- Node10 -->
<g id="node10" class="node"><title>Node10</title>
<g id="a_node10"><a xlink:href="class_i_plug_v_s_t3.html" target="_top" xlink:title="VST3 base class for a non&#45;distributed IPlug VST3 plug&#45;in. ">
<polygon fill="white" stroke="black" points="423.5,-152.5 423.5,-171.5 487.5,-171.5 487.5,-152.5 423.5,-152.5"/>
<text text-anchor="middle" x="455.5" y="-159.5" font-family="Helvetica,sans-Serif" font-size="10.00">IPlugVST3</text>
</a>
</g>
</g>
<!-- Node1&#45;&gt;Node10 -->
<g id="edge9" class="edge"><title>Node1&#45;&gt;Node10</title>
<path fill="none" stroke="midnightblue" d="M374.171,-173.877C390.551,-171.455 408.421,-168.813 423.139,-166.637"/>
<polygon fill="midnightblue" stroke="midnightblue" points="373.587,-170.426 364.206,-175.351 374.611,-177.35 373.587,-170.426"/>
</g>
<!-- Node11 -->
<g id="node11" class="node"><title>Node11</title>
<g id="a_node11"><a xlink:href="class_i_plug_v_s_t3_controller.html" target="_top" xlink:title="VST3 Controller API&#45;base class for a distributed IPlug VST3 plug&#45;in. ">
<polygon fill="white" stroke="black" points="400.5,-114.5 400.5,-133.5 510.5,-133.5 510.5,-114.5 400.5,-114.5"/>
<text text-anchor="middle" x="455.5" y="-121.5" font-family="Helvetica,sans-Serif" font-size="10.00">IPlugVST3Controller</text>
</a>
</g>
</g>
<!-- Node1&#45;&gt;Node11 -->
<g id="edge10" class="edge"><title>Node1&#45;&gt;Node11</title>
<path fill="none" stroke="midnightblue" d="M352.053,-166.497C366.042,-158.998 383.714,-149.98 400,-143 407.921,-139.605 416.67,-136.347 424.798,-133.517"/>
<polygon fill="midnightblue" stroke="midnightblue" points="350.137,-163.554 343.019,-171.402 353.477,-169.706 350.137,-163.554"/>
</g>
<!-- Node12 -->
<g id="node12" class="node"><title>Node12</title>
<g id="a_node12"><a xlink:href="class_i_plug_v_s_t3_processor.html" target="_top" xlink:title="VST3 Processor API&#45;base class for a distributed IPlug VST3 plug&#45;in. ">
<polygon fill="white" stroke="black" points="400,-76.5 400,-95.5 511,-95.5 511,-76.5 400,-76.5"/>
<text text-anchor="middle" x="455.5" y="-83.5" font-family="Helvetica,sans-Serif" font-size="10.00">IPlugVST3Processor</text>
</a>
</g>
</g>
<!-- Node1&#45;&gt;Node12 -->
<g id="edge11" class="edge"><title>Node1&#45;&gt;Node12</title>
<path fill="none" stroke="midnightblue" d="M339.122,-163.387C352.669,-146.315 375.265,-120.753 400,-105 405.916,-101.232 412.672,-98.1042 419.366,-95.548"/>
<polygon fill="midnightblue" stroke="midnightblue" points="336.242,-161.391 332.899,-171.444 341.782,-165.67 336.242,-161.391"/>
</g>
<!-- Node13 -->
<g id="node13" class="node"><title>Node13</title>
<g id="a_node13"><a xlink:href="class_i_plug_w_a_m.html" target="_top" xlink:title="WebAudioModule (WAM) API base class. ">
<polygon fill="white" stroke="black" points="424.5,-38.5 424.5,-57.5 486.5,-57.5 486.5,-38.5 424.5,-38.5"/>
<text text-anchor="middle" x="455.5" y="-45.5" font-family="Helvetica,sans-Serif" font-size="10.00">IPlugWAM</text>
</a>
</g>
</g>
<!-- Node1&#45;&gt;Node13 -->
<g id="edge12" class="edge"><title>Node1&#45;&gt;Node13</title>
<path fill="none" stroke="midnightblue" d="M333.632,-161.975C344.659,-136.794 367.367,-92.6017 400,-67 407.095,-61.4335 415.938,-57.4326 424.422,-54.5845"/>
<polygon fill="midnightblue" stroke="midnightblue" points="330.402,-160.629 329.744,-171.203 336.852,-163.347 330.402,-160.629"/>
</g>
<!-- Node14 -->
<g id="node14" class="node"><title>Node14</title>
<g id="a_node14"><a xlink:href="class_i_plug_web.html" target="_top" xlink:title="This is used for the UI &quot;editor&quot; &#45; controller side of a WAM or remote editors that communicate with d...">
<polygon fill="white" stroke="black" points="426,-0.5 426,-19.5 485,-19.5 485,-0.5 426,-0.5"/>
<text text-anchor="middle" x="455.5" y="-7.5" font-family="Helvetica,sans-Serif" font-size="10.00">IPlugWeb</text>
</a>
</g>
</g>
<!-- Node1&#45;&gt;Node14 -->
<g id="edge13" class="edge"><title>Node1&#45;&gt;Node14</title>
<path fill="none" stroke="midnightblue" d="M330.412,-161.288C338.608,-129.116 359.182,-65.2784 400,-29 407.265,-22.543 416.849,-18.2513 425.952,-15.4112"/>
<polygon fill="midnightblue" stroke="midnightblue" points="326.952,-160.709 328.017,-171.25 333.758,-162.345 326.952,-160.709"/>
</g>
<!-- Node2 -->
<g id="node2" class="node"><title>Node2</title>
<g id="a_node2"><a xlink:href="class_i_plugin_base.html" target="_top" xlink:title="Base class that contains plug&#45;in info and state manipulation methods. ">
<polygon fill="white" stroke="black" points="179,-171.5 179,-190.5 250,-190.5 250,-171.5 179,-171.5"/>
<text text-anchor="middle" x="214.5" y="-178.5" font-family="Helvetica,sans-Serif" font-size="10.00">IPluginBase</text>
</a>
</g>
</g>
<!-- Node2&#45;&gt;Node1 -->
<g id="edge1" class="edge"><title>Node2&#45;&gt;Node1</title>
<path fill="none" stroke="midnightblue" d="M260.301,-181C268.819,-181 277.658,-181 285.942,-181"/>
<polygon fill="midnightblue" stroke="midnightblue" points="260.128,-177.5 250.128,-181 260.128,-184.5 260.128,-177.5"/>
</g>
<!-- Node3 -->
<g id="node3" class="node"><title>Node3</title>
<polygon fill="white" stroke="#bfbfbf" points="0,-171.5 0,-190.5 143,-190.5 143,-171.5 0,-171.5"/>
<text text-anchor="middle" x="71.5" y="-178.5" font-family="Helvetica,sans-Serif" font-size="10.00">EDITOR_DELEGATE_CLASS</text>
</g>
<!-- Node3&#45;&gt;Node2 -->
<g id="edge2" class="edge"><title>Node3&#45;&gt;Node2</title>
<path fill="none" stroke="midnightblue" d="M153.504,-181C162.384,-181 171.036,-181 178.881,-181"/>
<polygon fill="midnightblue" stroke="midnightblue" points="153.413,-177.5 143.413,-181 153.413,-184.5 153.413,-177.5"/>
</g>
<!-- Node9 -->
<g id="node9" class="node"><title>Node9</title>
<g id="a_node9"><a xlink:href="class_i_plug_reaper_v_s_t2.html" target="_top" xlink:title="Reaper specific VST2.4 API base class for an IPlug plug&#45;in. ">
<polygon fill="white" stroke="black" points="547,-190.5 547,-209.5 644,-209.5 644,-190.5 547,-190.5"/>
<text text-anchor="middle" x="595.5" y="-197.5" font-family="Helvetica,sans-Serif" font-size="10.00">IPlugReaperVST2</text>
</a>
</g>
</g>
<!-- Node8&#45;&gt;Node9 -->
<g id="edge8" class="edge"><title>Node8&#45;&gt;Node9</title>
<path fill="none" stroke="midnightblue" d="M498.051,-200C513.405,-200 530.925,-200 546.783,-200"/>
<polygon fill="midnightblue" stroke="midnightblue" points="497.814,-196.5 487.814,-200 497.814,-203.5 497.814,-196.5"/>
</g>
</g>
</svg>
