<?xml version="1.0" encoding="UTF-8" standalone="no"?>
<!DOCTYPE svg PUBLIC "-//W3C//DTD SVG 1.1//EN"
 "http://www.w3.org/Graphics/SVG/1.1/DTD/svg11.dtd">
<!-- Generated by graphviz version 2.38.0 (20140413.2041)
 -->
<!-- Title: IControl Pages: 1 -->
<!--zoomable 1762 -->
<svg id="main" version="1.1" xmlns="http://www.w3.org/2000/svg" xmlns:xlink="http://www.w3.org/1999/xlink" xml:space="preserve" onload="init(evt)">
<style type="text/css"><![CDATA[
.edge:hover path { stroke: red; }
.edge:hover polygon { stroke: red; fill: red; }
]]></style>
<script type="text/javascript"><![CDATA[
var edges = document.getElementsByTagName('g');
if (edges && edges.length) {
  for (var i=0;i<edges.length;i++) {
    if (edges[i].id.substr(0,4)=='edge') {
      edges[i].setAttribute('class','edge');
    }
  }
}
]]></script>
        <defs>
                <circle id="rim" cx="0" cy="0" r="7"/>
                <circle id="rim2" cx="0" cy="0" r="3.5"/>
                <g id="zoomPlus">
                        <use xlink:href="#rim" fill="#404040">
                                <set attributeName="fill" to="#808080" begin="zoomplus.mouseover" end="zoomplus.mouseout"/>
                        </use>
                        <path d="M-4,0h8M0,-4v8" fill="none" stroke="white" stroke-width="1.5" pointer-events="none"/>
                </g>
                <g id="zoomMin">
                        <use xlink:href="#rim" fill="#404040">
                                <set attributeName="fill" to="#808080" begin="zoomminus.mouseover" end="zoomminus.mouseout"/>
                        </use>
                        <path d="M-4,0h8" fill="none" stroke="white" stroke-width="1.5" pointer-events="none"/>
                </g>
                <g id="dirArrow">
                        <path fill="none" stroke="white" stroke-width="1.5" d="M0,-3.0v7 M-2.5,-0.5L0,-3.0L2.5,-0.5"/>
                </g>
               <g id="resetDef">
                       <use xlink:href="#rim2" fill="#404040">
                               <set attributeName="fill" to="#808080" begin="reset.mouseover" end="reset.mouseout"/>
                       </use>
               </g>
        </defs>

<script type="text/javascript">
var viewWidth = 377;
var viewHeight = 1762;
var sectionId = 'dynsection-0';
</script>
<script xlink:href="svgpan.js"/>
<svg id="graph" class="graph">
<g id="viewport">
<title>IControl</title>
<polygon fill="white" stroke="none" points="-4,4 -4,-1758 373,-1758 373,4 -4,4"/>
<!-- Node1 -->
<g id="node1" class="node"><title>Node1</title>
<polygon fill="#bfbfbf" stroke="black" points="0,-867.5 0,-886.5 53,-886.5 53,-867.5 0,-867.5"/>
<text text-anchor="middle" x="26.5" y="-874.5" font-family="Helvetica,sans-Serif" font-size="10.00">IControl</text>
</g>
<!-- Node2 -->
<g id="node2" class="node"><title>Node2</title>
<g id="a_node2"><a xlink:href="class_g_f_x_label_control.html" target="_top" xlink:title="Control to display the graphics backend. ">
<polygon fill="white" stroke="black" points="116,-1734.5 116,-1753.5 211,-1753.5 211,-1734.5 116,-1734.5"/>
<text text-anchor="middle" x="163.5" y="-1741.5" font-family="Helvetica,sans-Serif" font-size="10.00">GFXLabelControl</text>
</a>
</g>
</g>
<!-- Node1&#45;&gt;Node2 -->
<g id="edge1" class="edge"><title>Node1&#45;&gt;Node2</title>
<path fill="none" stroke="midnightblue" d="M27.5763,-896.581C28.2212,-1017.47 34.2207,-1659.31 89,-1725 95.7531,-1733.1 105.463,-1737.99 115.623,-1740.89"/>
<polygon fill="midnightblue" stroke="midnightblue" points="31.0762,-896.529 27.5292,-886.545 24.0763,-896.561 31.0762,-896.529"/>
</g>
<!-- Node3 -->
<g id="node3" class="node"><title>Node3</title>
<g id="a_node3"><a xlink:href="class_i_bitmap_control.html" target="_top" xlink:title="A basic control to draw a bitmap, or one frame of a stacked bitmap depending on the current value...">
<polygon fill="white" stroke="black" points="119.5,-1696.5 119.5,-1715.5 207.5,-1715.5 207.5,-1696.5 119.5,-1696.5"/>
<text text-anchor="middle" x="163.5" y="-1703.5" font-family="Helvetica,sans-Serif" font-size="10.00">IBitmapControl</text>
</a>
</g>
</g>
<!-- Node1&#45;&gt;Node3 -->
<g id="edge2" class="edge"><title>Node1&#45;&gt;Node3</title>
<path fill="none" stroke="midnightblue" d="M27.6488,-896.793C28.7126,-1014.98 36.7185,-1624.53 89,-1687 96.6126,-1696.1 107.957,-1701.15 119.468,-1703.87"/>
<polygon fill="midnightblue" stroke="midnightblue" points="31.1476,-896.629 27.5642,-886.658 24.1479,-896.687 31.1476,-896.629"/>
</g>
<!-- Node5 -->
<g id="node5" class="node"><title>Node5</title>
<g id="a_node5"><a xlink:href="class_i_bubble_control.html" target="_top" xlink:title="A special control to draw contextual info as a slider etc is moved If used in the main IControl stack...">
<polygon fill="white" stroke="black" points="120.5,-1658.5 120.5,-1677.5 206.5,-1677.5 206.5,-1658.5 120.5,-1658.5"/>
<text text-anchor="middle" x="163.5" y="-1665.5" font-family="Helvetica,sans-Serif" font-size="10.00">IBubbleControl</text>
</a>
</g>
</g>
<!-- Node1&#45;&gt;Node5 -->
<g id="edge4" class="edge"><title>Node1&#45;&gt;Node5</title>
<path fill="none" stroke="midnightblue" d="M27.7288,-896.928C29.2279,-1012.12 39.2012,-1589.72 89,-1649 96.799,-1658.28 108.485,-1663.35 120.257,-1666.03"/>
<polygon fill="midnightblue" stroke="midnightblue" points="31.2263,-896.691 27.6031,-886.735 24.2268,-896.778 31.2263,-896.691"/>
</g>
<!-- Node6 -->
<g id="node6" class="node"><title>Node6</title>
<g id="a_node6"><a xlink:href="class_i_button_control_base.html" target="_top" xlink:title="A base class for buttons/momentary switches &#45; cannot be linked to parameters. ">
<polygon fill="white" stroke="red" points="108.5,-1620.5 108.5,-1639.5 218.5,-1639.5 218.5,-1620.5 108.5,-1620.5"/>
<text text-anchor="middle" x="163.5" y="-1627.5" font-family="Helvetica,sans-Serif" font-size="10.00">IButtonControlBase</text>
</a>
</g>
</g>
<!-- Node1&#45;&gt;Node6 -->
<g id="edge5" class="edge"><title>Node1&#45;&gt;Node6</title>
<path fill="none" stroke="midnightblue" d="M27.8106,-896.631C29.7418,-1007.75 41.6189,-1554.83 89,-1611 94.0987,-1617.04 100.845,-1621.3 108.186,-1624.27"/>
<polygon fill="midnightblue" stroke="midnightblue" points="31.3082,-896.454 27.6418,-886.513 24.3092,-896.57 31.3082,-896.454"/>
</g>
<!-- Node8 -->
<g id="node8" class="node"><title>Node8</title>
<g id="a_node8"><a xlink:href="class_i_color_picker_control.html" target="_top" xlink:title="A control for choosing a color. ">
<polygon fill="white" stroke="black" points="110,-1582.5 110,-1601.5 217,-1601.5 217,-1582.5 110,-1582.5"/>
<text text-anchor="middle" x="163.5" y="-1589.5" font-family="Helvetica,sans-Serif" font-size="10.00">IColorPickerControl</text>
</a>
</g>
</g>
<!-- Node1&#45;&gt;Node8 -->
<g id="edge7" class="edge"><title>Node1&#45;&gt;Node8</title>
<path fill="none" stroke="midnightblue" d="M27.905,-896.613C30.3,-1004.22 44.0736,-1519.98 89,-1573 94.4533,-1579.44 101.774,-1583.84 109.687,-1586.83"/>
<polygon fill="midnightblue" stroke="midnightblue" points="31.4022,-896.44 27.6876,-886.518 24.4038,-896.591 31.4022,-896.44"/>
</g>
<!-- Node9 -->
<g id="node9" class="node"><title>Node9</title>
<g id="a_node9"><a xlink:href="class_i_corner_resizer_control.html" target="_top" xlink:title="A control for resizing the plug&#45;in window by clicking and dragging in the bottom right&#45;hand corner Th...">
<polygon fill="white" stroke="black" points="104,-1544.5 104,-1563.5 223,-1563.5 223,-1544.5 104,-1544.5"/>
<text text-anchor="middle" x="163.5" y="-1551.5" font-family="Helvetica,sans-Serif" font-size="10.00">ICornerResizerControl</text>
</a>
</g>
</g>
<!-- Node1&#45;&gt;Node9 -->
<g id="edge8" class="edge"><title>Node1&#45;&gt;Node9</title>
<path fill="none" stroke="midnightblue" d="M28.0261,-897.169C30.9474,-1002.37 46.6026,-1485.22 89,-1535 93.1022,-1539.82 98.25,-1543.49 103.907,-1546.29"/>
<polygon fill="midnightblue" stroke="midnightblue" points="31.5195,-896.875 27.7505,-886.973 24.522,-897.064 31.5195,-896.875"/>
</g>
<!-- Node10 -->
<g id="node10" class="node"><title>Node10</title>
<g id="a_node10"><a xlink:href="class_i_dir_browse_control_base.html" target="_top" xlink:title="An abstract IControl base class that you can inherit from in order to make a control that pops up a m...">
<polygon fill="white" stroke="red" points="101,-1506.5 101,-1525.5 226,-1525.5 226,-1506.5 101,-1506.5"/>
<text text-anchor="middle" x="163.5" y="-1513.5" font-family="Helvetica,sans-Serif" font-size="10.00">IDirBrowseControlBase</text>
</a>
</g>
</g>
<!-- Node1&#45;&gt;Node10 -->
<g id="edge9" class="edge"><title>Node1&#45;&gt;Node10</title>
<path fill="none" stroke="midnightblue" d="M28.1404,-896.947C31.5592,-997.987 49.0215,-1450.33 89,-1497 92.3441,-1500.9 96.3751,-1504.06 100.806,-1506.6"/>
<polygon fill="midnightblue" stroke="midnightblue" points="31.636,-896.753 27.8072,-886.874 24.6398,-896.984 31.636,-896.753"/>
</g>
<!-- Node11 -->
<g id="node11" class="node"><title>Node11</title>
<g id="a_node11"><a xlink:href="class_i_f_p_s_display_control.html" target="_top" xlink:title="Performance display meter, based on code from NanoVG This is a special control that lives outside the...">
<polygon fill="white" stroke="black" points="110.5,-1468.5 110.5,-1487.5 216.5,-1487.5 216.5,-1468.5 110.5,-1468.5"/>
<text text-anchor="middle" x="163.5" y="-1475.5" font-family="Helvetica,sans-Serif" font-size="10.00">IFPSDisplayControl</text>
</a>
</g>
</g>
<!-- Node1&#45;&gt;Node11 -->
<g id="edge10" class="edge"><title>Node1&#45;&gt;Node11</title>
<path fill="none" stroke="midnightblue" d="M28.2755,-896.924C32.2323,-994.104 51.463,-1415.47 89,-1459 94.5943,-1465.49 102.086,-1469.91 110.151,-1472.89"/>
<polygon fill="midnightblue" stroke="midnightblue" points="31.7646,-896.579 27.8685,-886.727 24.7702,-896.859 31.7646,-896.579"/>
</g>
<!-- Node12 -->
<g id="node12" class="node"><title>Node12</title>
<g id="a_node12"><a xlink:href="class_i_graphics_live_edit.html" target="_top" xlink:title="A control to enable live modification of control layout in an IGraphics context in debug builds This ...">
<polygon fill="white" stroke="black" points="114.5,-1430.5 114.5,-1449.5 212.5,-1449.5 212.5,-1430.5 114.5,-1430.5"/>
<text text-anchor="middle" x="163.5" y="-1437.5" font-family="Helvetica,sans-Serif" font-size="10.00">IGraphicsLiveEdit</text>
</a>
</g>
</g>
<!-- Node1&#45;&gt;Node12 -->
<g id="edge11" class="edge"><title>Node1&#45;&gt;Node12</title>
<path fill="none" stroke="midnightblue" d="M28.4229,-896.774C32.9345,-989.745 53.884,-1380.57 89,-1421 95.5687,-1428.56 104.715,-1433.31 114.33,-1436.25"/>
<polygon fill="midnightblue" stroke="midnightblue" points="31.9069,-896.352 27.9344,-886.53 24.9148,-896.686 31.9069,-896.352"/>
</g>
<!-- Node13 -->
<g id="node13" class="node"><title>Node13</title>
<g id="a_node13"><a xlink:href="class_i_knob_control_base.html" target="_top" xlink:title="A base class for knob/dial controls, to handle mouse action and Sender. ">
<polygon fill="white" stroke="red" points="113,-1392.5 113,-1411.5 214,-1411.5 214,-1392.5 113,-1392.5"/>
<text text-anchor="middle" x="163.5" y="-1399.5" font-family="Helvetica,sans-Serif" font-size="10.00">IKnobControlBase</text>
</a>
</g>
</g>
<!-- Node1&#45;&gt;Node13 -->
<g id="edge12" class="edge"><title>Node1&#45;&gt;Node13</title>
<path fill="none" stroke="midnightblue" d="M27.0519,-896.885C25.5651,-981.286 24.1196,-1308.93 89,-1383 95.2529,-1390.14 103.802,-1394.76 112.862,-1397.73"/>
<polygon fill="midnightblue" stroke="midnightblue" points="30.556,-896.709 27.255,-886.641 23.5573,-896.57 30.556,-896.709"/>
</g>
<!-- Node14 -->
<g id="node14" class="node"><title>Node14</title>
<g id="a_node14"><a xlink:href="class_i_lambda_control.html" target="_top" xlink:title="A control that can be specialised with a lambda function, for quick experiments without making a cust...">
<polygon fill="white" stroke="black" points="117.5,-1354.5 117.5,-1373.5 209.5,-1373.5 209.5,-1354.5 117.5,-1354.5"/>
<text text-anchor="middle" x="163.5" y="-1361.5" font-family="Helvetica,sans-Serif" font-size="10.00">ILambdaControl</text>
</a>
</g>
</g>
<!-- Node1&#45;&gt;Node14 -->
<g id="edge13" class="edge"><title>Node1&#45;&gt;Node14</title>
<path fill="none" stroke="midnightblue" d="M27.2708,-896.912C26.7587,-977.336 28.9682,-1277.14 89,-1345 96.3354,-1353.29 106.77,-1358.19 117.481,-1361.02"/>
<polygon fill="midnightblue" stroke="midnightblue" points="30.7725,-896.721 27.3595,-886.691 23.7727,-896.66 30.7725,-896.721"/>
</g>
<!-- Node15 -->
<g id="node15" class="node"><title>Node15</title>
<g id="a_node15"><a xlink:href="class_i_l_e_d_control.html" target="_top" xlink:title="Glowing LED control. ">
<polygon fill="white" stroke="black" points="102.5,-1305 102.5,-1335 224.5,-1335 224.5,-1305 102.5,-1305"/>
<text text-anchor="start" x="110.5" y="-1323" font-family="Helvetica,sans-Serif" font-size="10.00">ILEDControl&lt; MAXNC,</text>
<text text-anchor="middle" x="163.5" y="-1312" font-family="Helvetica,sans-Serif" font-size="10.00"> QUEUE_SIZE &gt;</text>
</a>
</g>
</g>
<!-- Node1&#45;&gt;Node15 -->
<g id="edge14" class="edge"><title>Node1&#45;&gt;Node15</title>
<path fill="none" stroke="midnightblue" d="M27.7652,-897.013C29.1493,-971.748 37.6433,-1233.34 89,-1295 92.7093,-1299.45 97.2462,-1303.12 102.228,-1306.13"/>
<polygon fill="midnightblue" stroke="midnightblue" points="31.2594,-896.625 27.5986,-886.683 24.2604,-896.738 31.2594,-896.625"/>
</g>
<!-- Node16 -->
<g id="node16" class="node"><title>Node16</title>
<g id="a_node16"><a xlink:href="class_i_panel_control.html" target="_top" xlink:title="A basic control to fill a rectangle with a color or gradient. ">
<polygon fill="white" stroke="black" points="124,-1266.5 124,-1285.5 203,-1285.5 203,-1266.5 124,-1266.5"/>
<text text-anchor="middle" x="163.5" y="-1273.5" font-family="Helvetica,sans-Serif" font-size="10.00">IPanelControl</text>
</a>
</g>
</g>
<!-- Node1&#45;&gt;Node16 -->
<g id="edge15" class="edge"><title>Node1&#45;&gt;Node16</title>
<path fill="none" stroke="midnightblue" d="M27.9353,-896.653C29.8904,-966.77 40.0631,-1203.31 89,-1257 97.8787,-1266.74 111.036,-1271.77 123.775,-1274.28"/>
<polygon fill="midnightblue" stroke="midnightblue" points="31.4316,-896.459 27.6798,-886.551 24.4338,-896.636 31.4316,-896.459"/>
</g>
<!-- Node17 -->
<g id="node17" class="node"><title>Node17</title>
<g id="a_node17"><a xlink:href="class_i_popup_menu_control.html" target="_top" xlink:title="A base control for a pop&#45;up menu/drop&#45;down list that stays within the bounds of the IGraphics context...">
<polygon fill="white" stroke="black" points="108.5,-1228.5 108.5,-1247.5 218.5,-1247.5 218.5,-1228.5 108.5,-1228.5"/>
<text text-anchor="middle" x="163.5" y="-1235.5" font-family="Helvetica,sans-Serif" font-size="10.00">IPopupMenuControl</text>
</a>
</g>
</g>
<!-- Node1&#45;&gt;Node17 -->
<g id="edge16" class="edge"><title>Node1&#45;&gt;Node17</title>
<path fill="none" stroke="midnightblue" d="M28.3295,-896.77C31.4837,-962.378 44.8776,-1171.44 89,-1219 94.2884,-1224.7 101.043,-1228.78 108.308,-1231.69"/>
<polygon fill="midnightblue" stroke="midnightblue" points="31.8165,-896.401 27.8676,-886.569 24.8236,-896.718 31.8165,-896.401"/>
</g>
<!-- Node18 -->
<g id="node18" class="node"><title>Node18</title>
<g id="a_node18"><a xlink:href="class_i_slider_control_base.html" target="_top" xlink:title="A base class for slider/fader controls, to handle mouse action and Sender. ">
<polygon fill="white" stroke="red" points="111.5,-1190.5 111.5,-1209.5 215.5,-1209.5 215.5,-1190.5 111.5,-1190.5"/>
<text text-anchor="middle" x="163.5" y="-1197.5" font-family="Helvetica,sans-Serif" font-size="10.00">ISliderControlBase</text>
</a>
</g>
</g>
<!-- Node1&#45;&gt;Node18 -->
<g id="edge17" class="edge"><title>Node1&#45;&gt;Node18</title>
<path fill="none" stroke="midnightblue" d="M28.8257,-896.911C33.2762,-957.739 49.6723,-1139.52 89,-1181 95.0753,-1187.41 103.005,-1191.76 111.403,-1194.7"/>
<polygon fill="midnightblue" stroke="midnightblue" points="32.3026,-896.457 28.1111,-886.727 25.3197,-896.947 32.3026,-896.457"/>
</g>
<!-- Node19 -->
<g id="node19" class="node"><title>Node19</title>
<g id="a_node19"><a xlink:href="class_i_s_v_g_control.html" target="_top" xlink:title="A basic control to draw an SVG image to the screen. ">
<polygon fill="white" stroke="black" points="126.5,-1152.5 126.5,-1171.5 200.5,-1171.5 200.5,-1152.5 126.5,-1152.5"/>
<text text-anchor="middle" x="163.5" y="-1159.5" font-family="Helvetica,sans-Serif" font-size="10.00">ISVGControl</text>
</a>
</g>
</g>
<!-- Node1&#45;&gt;Node19 -->
<g id="edge18" class="edge"><title>Node1&#45;&gt;Node19</title>
<path fill="none" stroke="midnightblue" d="M29.4515,-896.919C35.2924,-952.496 54.409,-1107.51 89,-1143 98.7507,-1153.01 113.028,-1157.98 126.412,-1160.38"/>
<polygon fill="midnightblue" stroke="midnightblue" points="32.9007,-896.242 28.4058,-886.648 25.9367,-896.951 32.9007,-896.242"/>
</g>
<!-- Node20 -->
<g id="node20" class="node"><title>Node20</title>
<g id="a_node20"><a xlink:href="class_i_switch_control_base.html" target="_top" xlink:title="A base class for switch controls. ">
<polygon fill="white" stroke="red" points="109.5,-1114.5 109.5,-1133.5 217.5,-1133.5 217.5,-1114.5 109.5,-1114.5"/>
<text text-anchor="middle" x="163.5" y="-1121.5" font-family="Helvetica,sans-Serif" font-size="10.00">ISwitchControlBase</text>
</a>
</g>
</g>
<!-- Node1&#45;&gt;Node20 -->
<g id="edge19" class="edge"><title>Node1&#45;&gt;Node20</title>
<path fill="none" stroke="midnightblue" d="M26.6703,-896.927C25.9824,-941.009 30.8262,-1047.43 89,-1105 94.7147,-1110.66 101.879,-1114.69 109.478,-1117.57"/>
<polygon fill="midnightblue" stroke="midnightblue" points="30.1695,-896.997 26.9441,-886.905 23.1722,-896.806 30.1695,-896.997"/>
</g>
<!-- Node21 -->
<g id="node21" class="node"><title>Node21</title>
<g id="a_node21"><a xlink:href="class_i_text_control.html" target="_top" xlink:title="A basic control to display some text. ">
<polygon fill="white" stroke="red" points="127.5,-1076.5 127.5,-1095.5 199.5,-1095.5 199.5,-1076.5 127.5,-1076.5"/>
<text text-anchor="middle" x="163.5" y="-1083.5" font-family="Helvetica,sans-Serif" font-size="10.00">ITextControl</text>
</a>
</g>
</g>
<!-- Node1&#45;&gt;Node21 -->
<g id="edge20" class="edge"><title>Node1&#45;&gt;Node21</title>
<path fill="none" stroke="midnightblue" d="M27.9598,-896.959C29.9693,-935.607 40.0475,-1020.9 89,-1067 99.2669,-1076.67 113.792,-1081.57 127.221,-1084.01"/>
<polygon fill="midnightblue" stroke="midnightblue" points="31.4417,-896.416 27.5611,-886.557 24.4468,-896.684 31.4417,-896.416"/>
</g>
<!-- Node22 -->
<g id="node22" class="node"><title>Node22</title>
<g id="a_node22"><a xlink:href="class_i_text_entry_control.html" target="_top" xlink:title="A Text entry widget drawn by IGraphics. ">
<polygon fill="white" stroke="black" points="115,-1038.5 115,-1057.5 212,-1057.5 212,-1038.5 115,-1038.5"/>
<text text-anchor="middle" x="163.5" y="-1045.5" font-family="Helvetica,sans-Serif" font-size="10.00">ITextEntryControl</text>
</a>
</g>
</g>
<!-- Node1&#45;&gt;Node22 -->
<g id="edge21" class="edge"><title>Node1&#45;&gt;Node22</title>
<path fill="none" stroke="midnightblue" d="M29.7733,-896.55C34.6105,-929.011 48.9756,-993.921 89,-1029 96.3347,-1035.43 105.571,-1039.73 114.995,-1042.59"/>
<polygon fill="midnightblue" stroke="midnightblue" points="33.2273,-895.972 28.4333,-886.524 26.2889,-896.899 33.2273,-895.972"/>
</g>
<!-- Node23 -->
<g id="node23" class="node"><title>Node23</title>
<g id="a_node23"><a xlink:href="class_i_v_color_swatch_control.html" target="_top" xlink:title="A control to show a colour swatch of up to 9 colous. ">
<polygon fill="white" stroke="black" points="104,-1000.5 104,-1019.5 223,-1019.5 223,-1000.5 104,-1000.5"/>
<text text-anchor="middle" x="163.5" y="-1007.5" font-family="Helvetica,sans-Serif" font-size="10.00">IVColorSwatchControl</text>
</a>
</g>
</g>
<!-- Node1&#45;&gt;Node23 -->
<g id="edge22" class="edge"><title>Node1&#45;&gt;Node23</title>
<path fill="none" stroke="midnightblue" d="M32.6526,-896.344C40.4832,-921.926 57.8651,-966.61 89,-991 93.9802,-994.901 99.6768,-998.008 105.646,-1000.48"/>
<polygon fill="midnightblue" stroke="midnightblue" points="35.9965,-895.308 29.8691,-886.665 29.2692,-897.243 35.9965,-895.308"/>
</g>
<!-- Node24 -->
<g id="node24" class="node"><title>Node24</title>
<g id="a_node24"><a xlink:href="class_i_v_display_control.html" target="_top" xlink:title="IVDisplayControl">
<polygon fill="white" stroke="black" points="116,-962.5 116,-981.5 211,-981.5 211,-962.5 116,-962.5"/>
<text text-anchor="middle" x="163.5" y="-969.5" font-family="Helvetica,sans-Serif" font-size="10.00">IVDisplayControl</text>
</a>
</g>
</g>
<!-- Node1&#45;&gt;Node24 -->
<g id="edge23" class="edge"><title>Node1&#45;&gt;Node24</title>
<path fill="none" stroke="midnightblue" d="M37.597,-895.299C48.1627,-912.738 66.3577,-938.432 89,-953 97.0913,-958.206 106.545,-961.988 115.925,-964.734"/>
<polygon fill="midnightblue" stroke="midnightblue" points="40.5827,-893.471 32.5322,-886.584 34.5304,-896.988 40.5827,-893.471"/>
</g>
<!-- Node25 -->
<g id="node25" class="node"><title>Node25</title>
<g id="a_node25"><a xlink:href="class_i_v_group_control.html" target="_top" xlink:title="IVGroupControl">
<polygon fill="white" stroke="black" points="119,-924.5 119,-943.5 208,-943.5 208,-924.5 119,-924.5"/>
<text text-anchor="middle" x="163.5" y="-931.5" font-family="Helvetica,sans-Serif" font-size="10.00">IVGroupControl</text>
</a>
</g>
</g>
<!-- Node1&#45;&gt;Node25 -->
<g id="edge24" class="edge"><title>Node1&#45;&gt;Node25</title>
<path fill="none" stroke="midnightblue" d="M48.9706,-892.488C60.4045,-900.151 74.9719,-909.016 89,-915 98.3346,-918.982 108.703,-922.288 118.64,-924.963"/>
<polygon fill="midnightblue" stroke="midnightblue" points="50.7626,-889.472 40.5427,-886.679 46.7897,-895.236 50.7626,-889.472"/>
</g>
<!-- Node26 -->
<g id="node26" class="node"><title>Node26</title>
<g id="a_node26"><a xlink:href="class_i_v_keyboard_control.html" target="_top" xlink:title="Vectorial keyboard control. ">
<polygon fill="white" stroke="black" points="111.5,-886.5 111.5,-905.5 215.5,-905.5 215.5,-886.5 111.5,-886.5"/>
<text text-anchor="middle" x="163.5" y="-893.5" font-family="Helvetica,sans-Serif" font-size="10.00">IVKeyboardControl</text>
</a>
</g>
</g>
<!-- Node1&#45;&gt;Node26 -->
<g id="edge25" class="edge"><title>Node1&#45;&gt;Node26</title>
<path fill="none" stroke="midnightblue" d="M63.4165,-882.055C78.1378,-884.127 95.4467,-886.563 111.443,-888.814"/>
<polygon fill="midnightblue" stroke="midnightblue" points="63.6005,-878.546 53.2102,-880.618 62.6248,-885.478 63.6005,-878.546"/>
</g>
<!-- Node27 -->
<g id="node27" class="node"><title>Node27</title>
<g id="a_node27"><a xlink:href="class_i_v_number_box_control.html" target="_top" xlink:title="A &quot;meta control&quot; for a number box with an Inc/Dec button It adds several child buttons. ">
<polygon fill="white" stroke="black" points="105,-848.5 105,-867.5 222,-867.5 222,-848.5 105,-848.5"/>
<text text-anchor="middle" x="163.5" y="-855.5" font-family="Helvetica,sans-Serif" font-size="10.00">IVNumberBoxControl</text>
</a>
</g>
</g>
<!-- Node1&#45;&gt;Node27 -->
<g id="edge26" class="edge"><title>Node1&#45;&gt;Node27</title>
<path fill="none" stroke="midnightblue" d="M63.3627,-871.953C76.0543,-870.166 90.6744,-868.109 104.721,-866.132"/>
<polygon fill="midnightblue" stroke="midnightblue" points="62.6248,-868.522 53.2102,-873.382 63.6005,-875.454 62.6248,-868.522"/>
</g>
<!-- Node28 -->
<g id="node28" class="node"><title>Node28</title>
<g id="a_node28"><a xlink:href="class_i_v_panel_control.html" target="_top" xlink:title="A panel control which can be styled with emboss etc. ">
<polygon fill="white" stroke="black" points="120.5,-810.5 120.5,-829.5 206.5,-829.5 206.5,-810.5 120.5,-810.5"/>
<text text-anchor="middle" x="163.5" y="-817.5" font-family="Helvetica,sans-Serif" font-size="10.00">IVPanelControl</text>
</a>
</g>
</g>
<!-- Node1&#45;&gt;Node28 -->
<g id="edge27" class="edge"><title>Node1&#45;&gt;Node28</title>
<path fill="none" stroke="midnightblue" d="M48.9706,-861.512C60.4045,-853.849 74.9719,-844.984 89,-839 98.8195,-834.811 109.783,-831.371 120.185,-828.625"/>
<polygon fill="midnightblue" stroke="midnightblue" points="46.7897,-858.764 40.5427,-867.321 50.7626,-864.528 46.7897,-858.764"/>
</g>
<!-- Node29 -->
<g id="node29" class="node"><title>Node29</title>
<g id="a_node29"><a xlink:href="class_i_v_plot_control.html" target="_top" xlink:title="a vector plot to display functions and waveforms ">
<polygon fill="white" stroke="black" points="124.5,-772.5 124.5,-791.5 202.5,-791.5 202.5,-772.5 124.5,-772.5"/>
<text text-anchor="middle" x="163.5" y="-779.5" font-family="Helvetica,sans-Serif" font-size="10.00">IVPlotControl</text>
</a>
</g>
</g>
<!-- Node1&#45;&gt;Node29 -->
<g id="edge28" class="edge"><title>Node1&#45;&gt;Node29</title>
<path fill="none" stroke="midnightblue" d="M37.597,-858.701C48.1627,-841.262 66.3577,-815.568 89,-801 99.5297,-794.225 112.366,-789.862 124.347,-787.054"/>
<polygon fill="midnightblue" stroke="midnightblue" points="34.5304,-857.012 32.5322,-867.416 40.5827,-860.529 34.5304,-857.012"/>
</g>
<!-- Node30 -->
<g id="node30" class="node"><title>Node30</title>
<g id="a_node30"><a xlink:href="class_i_v_scope_control.html" target="_top" xlink:title="Vectorial multichannel capable oscilloscope control. ">
<polygon fill="white" stroke="black" points="93.5,-723 93.5,-753 233.5,-753 233.5,-723 93.5,-723"/>
<text text-anchor="start" x="101.5" y="-741" font-family="Helvetica,sans-Serif" font-size="10.00">IVScopeControl&lt; MAXNC,</text>
<text text-anchor="middle" x="163.5" y="-730" font-family="Helvetica,sans-Serif" font-size="10.00"> MAXBUF &gt;</text>
</a>
</g>
</g>
<!-- Node1&#45;&gt;Node30 -->
<g id="edge29" class="edge"><title>Node1&#45;&gt;Node30</title>
<path fill="none" stroke="midnightblue" d="M33.0495,-857.616C41.2452,-832.353 58.9503,-788.412 89,-763 93.5284,-759.171 98.6714,-755.919 104.084,-753.16"/>
<polygon fill="midnightblue" stroke="midnightblue" points="29.6991,-856.604 30.1111,-867.19 36.391,-858.657 29.6991,-856.604"/>
</g>
<!-- Node31 -->
<g id="node31" class="node"><title>Node31</title>
<g id="a_node31"><a xlink:href="class_i_v_track_control_base.html" target="_top" xlink:title="A base class for mult&#45;strip/track controls, such as multi&#45;sliders, meters. ">
<polygon fill="white" stroke="red" points="109.5,-684.5 109.5,-703.5 217.5,-703.5 217.5,-684.5 109.5,-684.5"/>
<text text-anchor="middle" x="163.5" y="-691.5" font-family="Helvetica,sans-Serif" font-size="10.00">IVTrackControlBase</text>
</a>
</g>
</g>
<!-- Node1&#45;&gt;Node31 -->
<g id="edge30" class="edge"><title>Node1&#45;&gt;Node31</title>
<path fill="none" stroke="midnightblue" d="M29.2624,-857.072C33.3853,-822.728 46.7761,-752.388 89,-714 94.7732,-708.751 101.789,-704.86 109.169,-701.978"/>
<polygon fill="midnightblue" stroke="midnightblue" points="25.7581,-856.93 28.1912,-867.241 32.7196,-857.663 25.7581,-856.93"/>
</g>
<!-- Node32 -->
<g id="node32" class="node"><title>Node32</title>
<g id="a_node32"><a xlink:href="class_i_v_x_y_pad_control.html" target="_top" xlink:title="IVXYPadControl">
<polygon fill="white" stroke="black" points="119,-646.5 119,-665.5 208,-665.5 208,-646.5 119,-646.5"/>
<text text-anchor="middle" x="163.5" y="-653.5" font-family="Helvetica,sans-Serif" font-size="10.00">IVXYPadControl</text>
</a>
</g>
</g>
<!-- Node1&#45;&gt;Node32 -->
<g id="edge31" class="edge"><title>Node1&#45;&gt;Node32</title>
<path fill="none" stroke="midnightblue" d="M27.5006,-857.169C28.6238,-816.809 37.0962,-724.74 89,-675 97.0885,-667.249 107.909,-662.55 118.755,-659.732"/>
<polygon fill="midnightblue" stroke="midnightblue" points="23.9989,-857.261 27.3483,-867.312 30.9981,-857.366 23.9989,-857.261"/>
</g>
<!-- Node33 -->
<g id="node33" class="node"><title>Node33</title>
<g id="a_node33"><a xlink:href="class_test_animation_control.html" target="_top" xlink:title="Control to test animation. ">
<polygon fill="white" stroke="black" points="104,-608.5 104,-627.5 223,-627.5 223,-608.5 104,-608.5"/>
<text text-anchor="middle" x="163.5" y="-615.5" font-family="Helvetica,sans-Serif" font-size="10.00">TestAnimationControl</text>
</a>
</g>
</g>
<!-- Node1&#45;&gt;Node33 -->
<g id="edge32" class="edge"><title>Node1&#45;&gt;Node33</title>
<path fill="none" stroke="midnightblue" d="M29.955,-857.343C36.781,-805.789 57.576,-668.49 89,-637 93.2825,-632.708 98.3991,-629.346 103.912,-626.717"/>
<polygon fill="midnightblue" stroke="midnightblue" points="26.4548,-857.121 28.6474,-867.486 33.3973,-858.016 26.4548,-857.121"/>
</g>
<!-- Node34 -->
<g id="node34" class="node"><title>Node34</title>
<g id="a_node34"><a xlink:href="class_test_bezier_control.html" target="_top" xlink:title="Control to test drawing bezier curves. ">
<polygon fill="white" stroke="black" points="113.5,-570.5 113.5,-589.5 213.5,-589.5 213.5,-570.5 113.5,-570.5"/>
<text text-anchor="middle" x="163.5" y="-577.5" font-family="Helvetica,sans-Serif" font-size="10.00">TestBezierControl</text>
</a>
</g>
</g>
<!-- Node1&#45;&gt;Node34 -->
<g id="edge33" class="edge"><title>Node1&#45;&gt;Node34</title>
<path fill="none" stroke="midnightblue" d="M29.2494,-856.94C34.6559,-799.536 52.9468,-636.347 89,-599 95.5908,-592.173 104.288,-587.683 113.386,-584.756"/>
<polygon fill="midnightblue" stroke="midnightblue" points="25.7345,-856.946 28.3139,-867.222 32.7057,-857.58 25.7345,-856.946"/>
</g>
<!-- Node35 -->
<g id="node35" class="node"><title>Node35</title>
<g id="a_node35"><a xlink:href="class_test_color_control.html" target="_top" xlink:title="Control to colors. ">
<polygon fill="white" stroke="black" points="116,-532.5 116,-551.5 211,-551.5 211,-532.5 116,-532.5"/>
<text text-anchor="middle" x="163.5" y="-539.5" font-family="Helvetica,sans-Serif" font-size="10.00">TestColorControl</text>
</a>
</g>
</g>
<!-- Node1&#45;&gt;Node35 -->
<g id="edge34" class="edge"><title>Node1&#45;&gt;Node35</title>
<path fill="none" stroke="midnightblue" d="M28.6569,-857.119C32.6884,-794.729 48.1645,-604.395 89,-561 96.1355,-553.417 105.866,-548.705 115.911,-545.814"/>
<polygon fill="midnightblue" stroke="midnightblue" points="25.1565,-857.018 28.0337,-867.215 32.1432,-857.45 25.1565,-857.018"/>
</g>
<!-- Node36 -->
<g id="node36" class="node"><title>Node36</title>
<g id="a_node36"><a xlink:href="class_test_cursor_control.html" target="_top" xlink:title="Control to test changing the platform cursor. ">
<polygon fill="white" stroke="black" points="113,-494.5 113,-513.5 214,-513.5 214,-494.5 113,-494.5"/>
<text text-anchor="middle" x="163.5" y="-501.5" font-family="Helvetica,sans-Serif" font-size="10.00">TestCursorControl</text>
</a>
</g>
</g>
<!-- Node1&#45;&gt;Node36 -->
<g id="edge35" class="edge"><title>Node1&#45;&gt;Node36</title>
<path fill="none" stroke="midnightblue" d="M28.19,-857.404C30.9448,-790.502 43.3286,-572.527 89,-523 95.3437,-516.121 103.822,-511.596 112.763,-508.649"/>
<polygon fill="midnightblue" stroke="midnightblue" points="24.6912,-857.309 27.804,-867.436 31.686,-857.578 24.6912,-857.309"/>
</g>
<!-- Node37 -->
<g id="node37" class="node"><title>Node37</title>
<g id="a_node37"><a xlink:href="class_test_draw_context_control.html" target="_top" xlink:title="Control to test obtaining a drawing API (NanoVG, LICE, Cairo, AGG etc) context and using that API wit...">
<polygon fill="white" stroke="black" points="98,-456.5 98,-475.5 229,-475.5 229,-456.5 98,-456.5"/>
<text text-anchor="middle" x="163.5" y="-463.5" font-family="Helvetica,sans-Serif" font-size="10.00">TestDrawContextControl</text>
</a>
</g>
</g>
<!-- Node1&#45;&gt;Node37 -->
<g id="edge36" class="edge"><title>Node1&#45;&gt;Node37</title>
<path fill="none" stroke="midnightblue" d="M27.8416,-856.732C29.4764,-784.419 38.6904,-540.462 89,-485 92.4535,-481.193 96.5606,-478.105 101.042,-475.605"/>
<polygon fill="midnightblue" stroke="midnightblue" points="24.334,-857.082 27.6333,-867.15 31.3326,-857.222 24.334,-857.082"/>
</g>
<!-- Node38 -->
<g id="node38" class="node"><title>Node38</title>
<g id="a_node38"><a xlink:href="class_test_drop_shadow_control.html" target="_top" xlink:title="Control to test layer drop shadows. ">
<polygon fill="white" stroke="black" points="98,-418.5 98,-437.5 229,-437.5 229,-418.5 98,-418.5"/>
<text text-anchor="middle" x="163.5" y="-425.5" font-family="Helvetica,sans-Serif" font-size="10.00">TestDropShadowControl</text>
</a>
</g>
</g>
<!-- Node1&#45;&gt;Node38 -->
<g id="edge37" class="edge"><title>Node1&#45;&gt;Node38</title>
<path fill="none" stroke="midnightblue" d="M27.5267,-857.26C28.0375,-781.259 33.7543,-508.74 89,-447 92.4276,-443.17 96.5167,-440.065 100.986,-437.555"/>
<polygon fill="midnightblue" stroke="midnightblue" points="24.0265,-857.341 27.4832,-867.356 31.0264,-857.371 24.0265,-857.341"/>
</g>
<!-- Node39 -->
<g id="node39" class="node"><title>Node39</title>
<g id="a_node39"><a xlink:href="class_test_flex_box_control.html" target="_top" xlink:title="Control to test IGraphicsFlexBox. ">
<polygon fill="white" stroke="black" points="110,-380.5 110,-399.5 217,-399.5 217,-380.5 110,-380.5"/>
<text text-anchor="middle" x="163.5" y="-387.5" font-family="Helvetica,sans-Serif" font-size="10.00">TestFlexBoxControl</text>
</a>
</g>
</g>
<!-- Node1&#45;&gt;Node39 -->
<g id="edge38" class="edge"><title>Node1&#45;&gt;Node39</title>
<path fill="none" stroke="midnightblue" d="M27.2708,-857.088C26.7587,-776.664 28.9682,-476.863 89,-409 94.5889,-402.682 101.977,-398.336 109.916,-395.37"/>
<polygon fill="midnightblue" stroke="midnightblue" points="23.7727,-857.34 27.3595,-867.309 30.7725,-857.279 23.7727,-857.34"/>
</g>
<!-- Node40 -->
<g id="node40" class="node"><title>Node40</title>
<g id="a_node40"><a xlink:href="class_test_font_control.html" target="_top" xlink:title="Control to test drawing fonts. ">
<polygon fill="white" stroke="black" points="118,-342.5 118,-361.5 209,-361.5 209,-342.5 118,-342.5"/>
<text text-anchor="middle" x="163.5" y="-349.5" font-family="Helvetica,sans-Serif" font-size="10.00">TestFontControl</text>
</a>
</g>
</g>
<!-- Node1&#45;&gt;Node40 -->
<g id="edge39" class="edge"><title>Node1&#45;&gt;Node40</title>
<path fill="none" stroke="midnightblue" d="M27.0519,-857.115C25.5651,-772.714 24.1196,-445.065 89,-371 96.3819,-362.573 106.965,-357.648 117.809,-354.827"/>
<polygon fill="midnightblue" stroke="midnightblue" points="23.5573,-857.43 27.255,-867.359 30.556,-857.291 23.5573,-857.43"/>
</g>
<!-- Node41 -->
<g id="node41" class="node"><title>Node41</title>
<g id="a_node41"><a xlink:href="class_test_g_l_control.html" target="_top" xlink:title="TestGLControl">
<polygon fill="white" stroke="black" points="122,-304.5 122,-323.5 205,-323.5 205,-304.5 122,-304.5"/>
<text text-anchor="middle" x="163.5" y="-311.5" font-family="Helvetica,sans-Serif" font-size="10.00">TestGLControl</text>
</a>
</g>
</g>
<!-- Node1&#45;&gt;Node41 -->
<g id="edge40" class="edge"><title>Node1&#45;&gt;Node41</title>
<path fill="none" stroke="midnightblue" d="M28.4229,-857.226C32.9345,-764.255 53.884,-373.428 89,-333 97.2972,-323.448 109.707,-318.388 121.979,-315.794"/>
<polygon fill="midnightblue" stroke="midnightblue" points="24.9148,-857.314 27.9344,-867.47 31.9069,-857.648 24.9148,-857.314"/>
</g>
<!-- Node42 -->
<g id="node42" class="node"><title>Node42</title>
<g id="a_node42"><a xlink:href="class_test_image_control.html" target="_top" xlink:title="Control to test drawing bitmaps. ">
<polygon fill="white" stroke="black" points="113.5,-266.5 113.5,-285.5 213.5,-285.5 213.5,-266.5 113.5,-266.5"/>
<text text-anchor="middle" x="163.5" y="-273.5" font-family="Helvetica,sans-Serif" font-size="10.00">TestImageControl</text>
</a>
</g>
</g>
<!-- Node1&#45;&gt;Node42 -->
<g id="edge41" class="edge"><title>Node1&#45;&gt;Node42</title>
<path fill="none" stroke="midnightblue" d="M28.2755,-857.076C32.2323,-759.896 51.463,-338.534 89,-295 95.2828,-287.713 103.959,-283.037 113.153,-280.076"/>
<polygon fill="midnightblue" stroke="midnightblue" points="24.7702,-857.141 27.8685,-867.273 31.7646,-857.421 24.7702,-857.141"/>
</g>
<!-- Node43 -->
<g id="node43" class="node"><title>Node43</title>
<g id="a_node43"><a xlink:href="class_test_keyboard_control.html" target="_top" xlink:title="Control to test keyboard input. ">
<polygon fill="white" stroke="black" points="106.5,-228.5 106.5,-247.5 220.5,-247.5 220.5,-228.5 106.5,-228.5"/>
<text text-anchor="middle" x="163.5" y="-235.5" font-family="Helvetica,sans-Serif" font-size="10.00">TestKeyboardControl</text>
</a>
</g>
</g>
<!-- Node1&#45;&gt;Node43 -->
<g id="edge42" class="edge"><title>Node1&#45;&gt;Node43</title>
<path fill="none" stroke="midnightblue" d="M28.1404,-857.053C31.5592,-756.013 49.0215,-303.668 89,-257 93.716,-251.495 99.7982,-247.478 106.442,-244.565"/>
<polygon fill="midnightblue" stroke="midnightblue" points="24.6398,-857.016 27.8072,-867.126 31.636,-857.247 24.6398,-857.016"/>
</g>
<!-- Node44 -->
<g id="node44" class="node"><title>Node44</title>
<g id="a_node44"><a xlink:href="class_test_m_p_s_control.html" target="_top" xlink:title="TestMPSControl">
<polygon fill="white" stroke="black" points="118,-190.5 118,-209.5 209,-209.5 209,-190.5 118,-190.5"/>
<text text-anchor="middle" x="163.5" y="-197.5" font-family="Helvetica,sans-Serif" font-size="10.00">TestMPSControl</text>
</a>
</g>
</g>
<!-- Node1&#45;&gt;Node44 -->
<g id="edge43" class="edge"><title>Node1&#45;&gt;Node44</title>
<path fill="none" stroke="midnightblue" d="M28.0261,-856.831C30.9474,-751.632 46.6026,-268.777 89,-219 96.2642,-210.471 106.808,-205.512 117.652,-202.691"/>
<polygon fill="midnightblue" stroke="midnightblue" points="24.522,-856.936 27.7505,-867.027 31.5195,-857.125 24.522,-856.936"/>
</g>
<!-- Node45 -->
<g id="node45" class="node"><title>Node45</title>
<g id="a_node45"><a xlink:href="class_test_m_t_control.html" target="_top" xlink:title="Control to test multi touch. ">
<polygon fill="white" stroke="black" points="122,-152.5 122,-171.5 205,-171.5 205,-152.5 122,-152.5"/>
<text text-anchor="middle" x="163.5" y="-159.5" font-family="Helvetica,sans-Serif" font-size="10.00">TestMTControl</text>
</a>
</g>
</g>
<!-- Node1&#45;&gt;Node45 -->
<g id="edge44" class="edge"><title>Node1&#45;&gt;Node45</title>
<path fill="none" stroke="midnightblue" d="M27.905,-857.387C30.3,-749.782 44.0736,-234.017 89,-181 97.1799,-171.347 109.561,-166.262 121.842,-163.676"/>
<polygon fill="midnightblue" stroke="midnightblue" points="24.4038,-857.409 27.6876,-867.482 31.4022,-857.56 24.4038,-857.409"/>
</g>
<!-- Node46 -->
<g id="node46" class="node"><title>Node46</title>
<g id="a_node46"><a xlink:href="class_test_shadow_gradient_control.html" target="_top" xlink:title="Control to test drawing shadows with gradients. ">
<polygon fill="white" stroke="black" points="89,-114.5 89,-133.5 238,-133.5 238,-114.5 89,-114.5"/>
<text text-anchor="middle" x="163.5" y="-121.5" font-family="Helvetica,sans-Serif" font-size="10.00">TestShadowGradientControl</text>
</a>
</g>
</g>
<!-- Node1&#45;&gt;Node46 -->
<g id="edge45" class="edge"><title>Node1&#45;&gt;Node46</title>
<path fill="none" stroke="midnightblue" d="M27.8106,-857.369C29.7418,-746.252 41.6189,-199.172 89,-143 92.2292,-139.172 96.1192,-136.061 100.403,-133.54"/>
<polygon fill="midnightblue" stroke="midnightblue" points="24.3092,-857.43 27.6418,-867.487 31.3082,-857.546 24.3092,-857.43"/>
</g>
<!-- Node47 -->
<g id="node47" class="node"><title>Node47</title>
<g id="a_node47"><a xlink:href="class_test_size_control.html" target="_top" xlink:title="Control to display the size of a region. ">
<polygon fill="white" stroke="black" points="118.5,-76.5 118.5,-95.5 208.5,-95.5 208.5,-76.5 118.5,-76.5"/>
<text text-anchor="middle" x="163.5" y="-83.5" font-family="Helvetica,sans-Serif" font-size="10.00">TestSizeControl</text>
</a>
</g>
</g>
<!-- Node1&#45;&gt;Node47 -->
<g id="edge46" class="edge"><title>Node1&#45;&gt;Node47</title>
<path fill="none" stroke="midnightblue" d="M27.7288,-857.072C29.2279,-741.876 39.2012,-164.284 89,-105 96.3752,-96.2201 107.226,-91.2134 118.339,-88.4293"/>
<polygon fill="midnightblue" stroke="midnightblue" points="24.2268,-857.222 27.6031,-867.265 31.2263,-857.309 24.2268,-857.222"/>
</g>
<!-- Node48 -->
<g id="node48" class="node"><title>Node48</title>
<g id="a_node48"><a xlink:href="class_test_s_v_g_control.html" target="_top" xlink:title="Control to test drawing SVGs. ">
<polygon fill="white" stroke="black" points="118,-38.5 118,-57.5 209,-57.5 209,-38.5 118,-38.5"/>
<text text-anchor="middle" x="163.5" y="-45.5" font-family="Helvetica,sans-Serif" font-size="10.00">TestSVGControl</text>
</a>
</g>
</g>
<!-- Node1&#45;&gt;Node48 -->
<g id="edge47" class="edge"><title>Node1&#45;&gt;Node48</title>
<path fill="none" stroke="midnightblue" d="M27.6488,-857.207C28.7126,-739.016 36.7185,-129.475 89,-67 96.2743,-58.3075 106.956,-53.311 117.935,-50.5083"/>
<polygon fill="midnightblue" stroke="midnightblue" points="24.1479,-857.313 27.5642,-867.342 31.1476,-857.371 24.1479,-857.313"/>
</g>
<!-- Node49 -->
<g id="node49" class="node"><title>Node49</title>
<g id="a_node49"><a xlink:href="class_test_text_control.html" target="_top" xlink:title="Control to test drawing text. ">
<polygon fill="white" stroke="black" points="119,-0.5 119,-19.5 208,-19.5 208,-0.5 119,-0.5"/>
<text text-anchor="middle" x="163.5" y="-7.5" font-family="Helvetica,sans-Serif" font-size="10.00">TestTextControl</text>
</a>
</g>
</g>
<!-- Node1&#45;&gt;Node49 -->
<g id="edge48" class="edge"><title>Node1&#45;&gt;Node49</title>
<path fill="none" stroke="midnightblue" d="M27.5763,-857.419C28.2212,-736.526 34.2207,-94.6851 89,-29 96.4284,-20.0927 107.435,-15.0641 118.682,-12.3001"/>
<polygon fill="midnightblue" stroke="midnightblue" points="24.0763,-857.439 27.5292,-867.455 31.0762,-857.471 24.0763,-857.439"/>
</g>
<!-- Node4 -->
<g id="node4" class="node"><title>Node4</title>
<g id="a_node4"><a xlink:href="class_test_mask_control.html" target="_top" xlink:title="Control to display the size of a region. ">
<polygon fill="white" stroke="black" points="274,-1696.5 274,-1715.5 369,-1715.5 369,-1696.5 274,-1696.5"/>
<text text-anchor="middle" x="321.5" y="-1703.5" font-family="Helvetica,sans-Serif" font-size="10.00">TestMaskControl</text>
</a>
</g>
</g>
<!-- Node3&#45;&gt;Node4 -->
<g id="edge3" class="edge"><title>Node3&#45;&gt;Node4</title>
<path fill="none" stroke="midnightblue" d="M217.703,-1706C235.905,-1706 256.118,-1706 273.771,-1706"/>
<polygon fill="midnightblue" stroke="midnightblue" points="217.541,-1702.5 207.541,-1706 217.541,-1709.5 217.541,-1702.5"/>
</g>
<!-- Node7 -->
<g id="node7" class="node"><title>Node7</title>
<g id="a_node7"><a xlink:href="class_i_b_button_control.html" target="_top" xlink:title="A bitmap button/momentary switch control. ">
<polygon fill="white" stroke="black" points="275.5,-1620.5 275.5,-1639.5 367.5,-1639.5 367.5,-1620.5 275.5,-1620.5"/>
<text text-anchor="middle" x="321.5" y="-1627.5" font-family="Helvetica,sans-Serif" font-size="10.00">IBButtonControl</text>
</a>
</g>
</g>
<!-- Node6&#45;&gt;Node7 -->
<g id="edge6" class="edge"><title>Node6&#45;&gt;Node7</title>
<path fill="none" stroke="midnightblue" d="M228.75,-1630C244.367,-1630 260.744,-1630 275.269,-1630"/>
<polygon fill="midnightblue" stroke="midnightblue" points="228.623,-1626.5 218.623,-1630 228.623,-1633.5 228.623,-1626.5"/>
</g>
</g>
</svg>
        <g id="navigator" transform="translate(0 0)" fill="#404254">
                <rect fill="#f2f5e9" fill-opacity="0.5" stroke="#606060" stroke-width=".5" x="0" y="0" width="60" height="60"/>
                <use id="zoomplus" xlink:href="#zoomPlus" x="17" y="9" onmousedown="handleZoom(evt,'in')"/>
                <use id="zoomminus" xlink:href="#zoomMin" x="42" y="9" onmousedown="handleZoom(evt,'out')"/>
                <use id="reset" xlink:href="#resetDef" x="30" y="36" onmousedown="handleReset()"/>
                <g id="arrowUp" xlink:href="#dirArrow" transform="translate(30 24)" onmousedown="handlePan(0,-1)">
                  <use xlink:href="#rim" fill="#404040">
                        <set attributeName="fill" to="#808080" begin="arrowUp.mouseover" end="arrowUp.mouseout"/>
                  </use>
                  <path fill="none" stroke="white" stroke-width="1.5" d="M0,-3.0v7 M-2.5,-0.5L0,-3.0L2.5,-0.5"/>
                </g>
                <g id="arrowRight" xlink:href="#dirArrow" transform="rotate(90) translate(36 -43)" onmousedown="handlePan(1,0)">
                  <use xlink:href="#rim" fill="#404040">
                        <set attributeName="fill" to="#808080" begin="arrowRight.mouseover" end="arrowRight.mouseout"/>
                  </use>
                  <path fill="none" stroke="white" stroke-width="1.5" d="M0,-3.0v7 M-2.5,-0.5L0,-3.0L2.5,-0.5"/>
                </g>
                <g id="arrowDown" xlink:href="#dirArrow" transform="rotate(180) translate(-30 -48)" onmousedown="handlePan(0,1)">
                  <use xlink:href="#rim" fill="#404040">
                        <set attributeName="fill" to="#808080" begin="arrowDown.mouseover" end="arrowDown.mouseout"/>
                  </use>
                  <path fill="none" stroke="white" stroke-width="1.5" d="M0,-3.0v7 M-2.5,-0.5L0,-3.0L2.5,-0.5"/>
                </g>
                <g id="arrowLeft" xlink:href="#dirArrow" transform="rotate(270) translate(-36 17)" onmousedown="handlePan(-1,0)">
                  <use xlink:href="#rim" fill="#404040">
                        <set attributeName="fill" to="#808080" begin="arrowLeft.mouseover" end="arrowLeft.mouseout"/>
                  </use>
                  <path fill="none" stroke="white" stroke-width="1.5" d="M0,-3.0v7 M-2.5,-0.5L0,-3.0L2.5,-0.5"/>
                </g>
        </g>
        <svg viewBox="0 0 15 15" width="100%" height="30px" preserveAspectRatio="xMaxYMin meet">
         <g id="arrow_out" transform="scale(0.3 0.3)">
          <a xlink:href="class_i_control__inherit__graph_org.svg" target="_base">
           <rect id="button" ry="5" rx="5" y="6" x="6" height="38" width="38"
                fill="#f2f5e9" fill-opacity="0.5" stroke="#606060" stroke-width="1.0"/>
           <path id="arrow"
             d="M 11.500037,31.436501 C 11.940474,20.09759 22.043105,11.32322 32.158766,21.979434 L 37.068811,17.246167 C 37.068811,17.246167 37.088388,32 37.088388,32 L 22.160133,31.978069 C 22.160133,31.978069 26.997745,27.140456 26.997745,27.140456 C 18.528582,18.264221 13.291696,25.230495 11.500037,31.436501 z"
             style="fill:#404040;"/>
          </a>
         </g>
        </svg>
</svg>
