<?xml version="1.0" encoding="UTF-8" standalone="no"?>
<!DOCTYPE svg PUBLIC "-//W3C//DTD SVG 1.1//EN"
 "http://www.w3.org/Graphics/SVG/1.1/DTD/svg11.dtd">
<!-- Generated by graphviz version 2.38.0 (20140413.2041)
 -->
<!-- Title: IVRangeSliderControl Pages: 1 -->
<svg width="154pt" height="140pt"
 viewBox="0.00 0.00 153.50 140.00" xmlns="http://www.w3.org/2000/svg" xmlns:xlink="http://www.w3.org/1999/xlink">
<g id="graph0" class="graph" transform="scale(1 1) rotate(0) translate(4 136)">
<title>IVRangeSliderControl</title>
<polygon fill="white" stroke="none" points="-4,4 -4,-136 149.5,-136 149.5,4 -4,4"/>
<!-- Node1 -->
<g id="node1" class="node"><title>Node1</title>
<polygon fill="#bfbfbf" stroke="black" points="9,-0.5 9,-19.5 126,-19.5 126,-0.5 9,-0.5"/>
<text text-anchor="middle" x="67.5" y="-7.5" font-family="Helvetica,sans-Serif" font-size="10.00">IVRangeSliderControl</text>
</g>
<!-- Node2 -->
<g id="node2" class="node"><title>Node2</title>
<g id="a_node2"><a xlink:href="class_i_v_track_control_base.html" target="_top" xlink:title="A base class for mult&#45;strip/track controls, such as multi&#45;sliders, meters. ">
<polygon fill="white" stroke="black" points="13.5,-56.5 13.5,-75.5 121.5,-75.5 121.5,-56.5 13.5,-56.5"/>
<text text-anchor="middle" x="67.5" y="-63.5" font-family="Helvetica,sans-Serif" font-size="10.00">IVTrackControlBase</text>
</a>
</g>
</g>
<!-- Node2&#45;&gt;Node1 -->
<g id="edge1" class="edge"><title>Node2&#45;&gt;Node1</title>
<path fill="none" stroke="midnightblue" d="M67.5,-45.8045C67.5,-36.9102 67.5,-26.7798 67.5,-19.7511"/>
<polygon fill="midnightblue" stroke="midnightblue" points="64.0001,-46.083 67.5,-56.083 71.0001,-46.083 64.0001,-46.083"/>
</g>
<!-- Node3 -->
<g id="node3" class="node"><title>Node3</title>
<g id="a_node3"><a xlink:href="class_i_control.html" target="_top" xlink:title="The lowest level base class of an IGraphics control. ">
<polygon fill="white" stroke="black" points="0,-112.5 0,-131.5 53,-131.5 53,-112.5 0,-112.5"/>
<text text-anchor="middle" x="26.5" y="-119.5" font-family="Helvetica,sans-Serif" font-size="10.00">IControl</text>
</a>
</g>
</g>
<!-- Node3&#45;&gt;Node2 -->
<g id="edge2" class="edge"><title>Node3&#45;&gt;Node2</title>
<path fill="none" stroke="midnightblue" d="M39.5172,-103.855C46.6167,-94.5048 55.104,-83.3265 60.8557,-75.7511"/>
<polygon fill="midnightblue" stroke="midnightblue" points="36.5299,-102.002 33.2703,-112.083 42.105,-106.235 36.5299,-102.002"/>
</g>
<!-- Node4 -->
<g id="node4" class="node"><title>Node4</title>
<g id="a_node4"><a xlink:href="class_i_vector_base.html" target="_top" xlink:title="A base interface to be combined with IControl for vectorial controls &quot;IVControls&quot;, in order for them to share a common style If you need more flexibility, you&#39;re on your own! ">
<polygon fill="white" stroke="black" points="71.5,-112.5 71.5,-131.5 145.5,-131.5 145.5,-112.5 71.5,-112.5"/>
<text text-anchor="middle" x="108.5" y="-119.5" font-family="Helvetica,sans-Serif" font-size="10.00">IVectorBase</text>
</a>
</g>
</g>
<!-- Node4&#45;&gt;Node2 -->
<g id="edge3" class="edge"><title>Node4&#45;&gt;Node2</title>
<path fill="none" stroke="midnightblue" d="M95.4828,-103.855C88.3833,-94.5048 79.896,-83.3265 74.1443,-75.7511"/>
<polygon fill="midnightblue" stroke="midnightblue" points="92.895,-106.235 101.73,-112.083 98.4701,-102.002 92.895,-106.235"/>
</g>
</g>
</svg>
