<?xml version="1.0" encoding="UTF-8" standalone="no"?>
<!DOCTYPE svg PUBLIC "-//W3C//DTD SVG 1.1//EN"
 "http://www.w3.org/Graphics/SVG/1.1/DTD/svg11.dtd">
<!-- Generated by graphviz version 2.38.0 (20140413.2041)
 -->
<!-- Title: IVectorBase Pages: 1 -->
<svg width="440pt" height="660pt"
 viewBox="0.00 0.00 440.00 660.00" xmlns="http://www.w3.org/2000/svg" xmlns:xlink="http://www.w3.org/1999/xlink">
<g id="graph0" class="graph" transform="scale(1 1) rotate(0) translate(4 656)">
<title>IVectorBase</title>
<polygon fill="white" stroke="none" points="-4,4 -4,-656 436,-656 436,4 -4,4"/>
<!-- Node1 -->
<g id="node1" class="node"><title>Node1</title>
<polygon fill="#bfbfbf" stroke="black" points="0,-347.5 0,-366.5 74,-366.5 74,-347.5 0,-347.5"/>
<text text-anchor="middle" x="37" y="-354.5" font-family="Helvetica,sans-Serif" font-size="10.00">IVectorBase</text>
</g>
<!-- Node2 -->
<g id="node2" class="node"><title>Node2</title>
<g id="a_node2"><a xlink:href="class_i_f_p_s_display_control.html" target="_top" xlink:title="Performance display meter, based on code from NanoVG This is a special control that lives outside the...">
<polygon fill="white" stroke="black" points="127,-632.5 127,-651.5 233,-651.5 233,-632.5 127,-632.5"/>
<text text-anchor="middle" x="180" y="-639.5" font-family="Helvetica,sans-Serif" font-size="10.00">IFPSDisplayControl</text>
</a>
</g>
</g>
<!-- Node1&#45;&gt;Node2 -->
<g id="edge1" class="edge"><title>Node1&#45;&gt;Node2</title>
<path fill="none" stroke="midnightblue" d="M37.1833,-376.809C36.2978,-425.821 41.0926,-553.791 110,-623 114.734,-627.755 120.541,-631.349 126.758,-634.061"/>
<polygon fill="midnightblue" stroke="midnightblue" points="40.6875,-376.71 37.4757,-366.614 33.6904,-376.51 40.6875,-376.71"/>
</g>
<!-- Node3 -->
<g id="node3" class="node"><title>Node3</title>
<g id="a_node3"><a xlink:href="class_i_v_button_control.html" target="_top" xlink:title="A vector button/momentary switch control. ">
<polygon fill="white" stroke="black" points="134,-594.5 134,-613.5 226,-613.5 226,-594.5 134,-594.5"/>
<text text-anchor="middle" x="180" y="-601.5" font-family="Helvetica,sans-Serif" font-size="10.00">IVButtonControl</text>
</a>
</g>
</g>
<!-- Node1&#45;&gt;Node3 -->
<g id="edge2" class="edge"><title>Node1&#45;&gt;Node3</title>
<path fill="none" stroke="midnightblue" d="M38.2556,-376.937C39.9377,-421.041 50.3275,-527.506 110,-585 116.532,-591.293 124.949,-595.542 133.645,-598.401"/>
<polygon fill="midnightblue" stroke="midnightblue" points="41.7537,-376.814 37.9875,-366.911 34.7562,-377.001 41.7537,-376.814"/>
</g>
<!-- Node4 -->
<g id="node4" class="node"><title>Node4</title>
<g id="a_node4"><a xlink:href="class_i_v_color_swatch_control.html" target="_top" xlink:title="A control to show a colour swatch of up to 9 colous. ">
<polygon fill="white" stroke="black" points="120.5,-556.5 120.5,-575.5 239.5,-575.5 239.5,-556.5 120.5,-556.5"/>
<text text-anchor="middle" x="180" y="-563.5" font-family="Helvetica,sans-Serif" font-size="10.00">IVColorSwatchControl</text>
</a>
</g>
</g>
<!-- Node1&#45;&gt;Node4 -->
<g id="edge3" class="edge"><title>Node1&#45;&gt;Node4</title>
<path fill="none" stroke="midnightblue" d="M39.7245,-376.965C44.1528,-415.624 59.4173,-500.94 110,-547 114.226,-550.848 119.161,-553.927 124.414,-556.388"/>
<polygon fill="midnightblue" stroke="midnightblue" points="43.1607,-376.157 38.671,-366.56 36.1963,-376.862 43.1607,-376.157"/>
</g>
<!-- Node5 -->
<g id="node5" class="node"><title>Node5</title>
<g id="a_node5"><a xlink:href="class_i_v_display_control.html" target="_top" xlink:title="IVDisplayControl">
<polygon fill="white" stroke="black" points="132.5,-518.5 132.5,-537.5 227.5,-537.5 227.5,-518.5 132.5,-518.5"/>
<text text-anchor="middle" x="180" y="-525.5" font-family="Helvetica,sans-Serif" font-size="10.00">IVDisplayControl</text>
</a>
</g>
</g>
<!-- Node1&#45;&gt;Node5 -->
<g id="edge4" class="edge"><title>Node1&#45;&gt;Node5</title>
<path fill="none" stroke="midnightblue" d="M41.7643,-376.544C49.0506,-408.995 68.196,-473.892 110,-509 116.47,-514.434 124.371,-518.321 132.487,-521.101"/>
<polygon fill="midnightblue" stroke="midnightblue" points="45.1405,-375.59 39.6639,-366.52 38.2893,-377.026 45.1405,-375.59"/>
</g>
<!-- Node6 -->
<g id="node6" class="node"><title>Node6</title>
<g id="a_node6"><a xlink:href="class_i_v_group_control.html" target="_top" xlink:title="IVGroupControl">
<polygon fill="white" stroke="black" points="135.5,-480.5 135.5,-499.5 224.5,-499.5 224.5,-480.5 135.5,-480.5"/>
<text text-anchor="middle" x="180" y="-487.5" font-family="Helvetica,sans-Serif" font-size="10.00">IVGroupControl</text>
</a>
</g>
</g>
<!-- Node1&#45;&gt;Node6 -->
<g id="edge5" class="edge"><title>Node1&#45;&gt;Node6</title>
<path fill="none" stroke="midnightblue" d="M45.0261,-376.305C55.3167,-401.843 76.931,-446.477 110,-471 117.385,-476.477 126.266,-480.375 135.162,-483.149"/>
<polygon fill="midnightblue" stroke="midnightblue" points="48.1664,-374.72 41.3087,-366.644 41.6333,-377.234 48.1664,-374.72"/>
</g>
<!-- Node7 -->
<g id="node7" class="node"><title>Node7</title>
<g id="a_node7"><a xlink:href="class_i_v_knob_control.html" target="_top" xlink:title="A vector knob control drawn using graphics primitves. ">
<polygon fill="white" stroke="black" points="138,-442.5 138,-461.5 222,-461.5 222,-442.5 138,-442.5"/>
<text text-anchor="middle" x="180" y="-449.5" font-family="Helvetica,sans-Serif" font-size="10.00">IVKnobControl</text>
</a>
</g>
</g>
<!-- Node1&#45;&gt;Node7 -->
<g id="edge6" class="edge"><title>Node1&#45;&gt;Node7</title>
<path fill="none" stroke="midnightblue" d="M50.2394,-374.703C63.1487,-392.058 85.0511,-418.026 110,-433 118.416,-438.051 128.209,-441.794 137.727,-444.556"/>
<polygon fill="midnightblue" stroke="midnightblue" points="53.0259,-372.583 44.34,-366.516 47.3468,-376.675 53.0259,-372.583"/>
</g>
<!-- Node8 -->
<g id="node8" class="node"><title>Node8</title>
<g id="a_node8"><a xlink:href="class_i_v_label_control.html" target="_top" xlink:title="IVLabelControl">
<polygon fill="white" stroke="black" points="137,-404.5 137,-423.5 223,-423.5 223,-404.5 137,-404.5"/>
<text text-anchor="middle" x="180" y="-411.5" font-family="Helvetica,sans-Serif" font-size="10.00">IVLabelControl</text>
</a>
</g>
</g>
<!-- Node1&#45;&gt;Node8 -->
<g id="edge7" class="edge"><title>Node1&#45;&gt;Node8</title>
<path fill="none" stroke="midnightblue" d="M62.5875,-371.684C76.2161,-379.382 93.6645,-388.529 110,-395 119.126,-398.615 129.19,-401.808 138.745,-404.496"/>
<polygon fill="midnightblue" stroke="midnightblue" points="64.2357,-368.594 53.8233,-366.637 60.7423,-374.66 64.2357,-368.594"/>
</g>
<!-- Node9 -->
<g id="node9" class="node"><title>Node9</title>
<g id="a_node9"><a xlink:href="class_i_v_number_box_control.html" target="_top" xlink:title="A &quot;meta control&quot; for a number box with an Inc/Dec button It adds several child buttons. ">
<polygon fill="white" stroke="black" points="121.5,-366.5 121.5,-385.5 238.5,-385.5 238.5,-366.5 121.5,-366.5"/>
<text text-anchor="middle" x="180" y="-373.5" font-family="Helvetica,sans-Serif" font-size="10.00">IVNumberBoxControl</text>
</a>
</g>
</g>
<!-- Node1&#45;&gt;Node9 -->
<g id="edge8" class="edge"><title>Node1&#45;&gt;Node9</title>
<path fill="none" stroke="midnightblue" d="M84.4168,-363.255C96.2638,-364.851 109.142,-366.587 121.472,-368.248"/>
<polygon fill="midnightblue" stroke="midnightblue" points="84.6889,-359.76 74.311,-361.893 83.754,-366.697 84.6889,-359.76"/>
</g>
<!-- Node10 -->
<g id="node10" class="node"><title>Node10</title>
<g id="a_node10"><a xlink:href="class_i_v_panel_control.html" target="_top" xlink:title="A panel control which can be styled with emboss etc. ">
<polygon fill="white" stroke="black" points="137,-328.5 137,-347.5 223,-347.5 223,-328.5 137,-328.5"/>
<text text-anchor="middle" x="180" y="-335.5" font-family="Helvetica,sans-Serif" font-size="10.00">IVPanelControl</text>
</a>
</g>
</g>
<!-- Node1&#45;&gt;Node10 -->
<g id="edge9" class="edge"><title>Node1&#45;&gt;Node10</title>
<path fill="none" stroke="midnightblue" d="M84.5066,-350.733C101.379,-348.46 120.333,-345.906 136.812,-343.685"/>
<polygon fill="midnightblue" stroke="midnightblue" points="83.754,-347.303 74.311,-352.107 84.6889,-354.24 83.754,-347.303"/>
</g>
<!-- Node11 -->
<g id="node11" class="node"><title>Node11</title>
<g id="a_node11"><a xlink:href="class_i_v_plot_control.html" target="_top" xlink:title="a vector plot to display functions and waveforms ">
<polygon fill="white" stroke="black" points="141,-290.5 141,-309.5 219,-309.5 219,-290.5 141,-290.5"/>
<text text-anchor="middle" x="180" y="-297.5" font-family="Helvetica,sans-Serif" font-size="10.00">IVPlotControl</text>
</a>
</g>
</g>
<!-- Node1&#45;&gt;Node11 -->
<g id="edge10" class="edge"><title>Node1&#45;&gt;Node11</title>
<path fill="none" stroke="midnightblue" d="M62.5875,-342.316C76.2161,-334.618 93.6645,-325.471 110,-319 119.819,-315.11 130.724,-311.709 140.912,-308.901"/>
<polygon fill="midnightblue" stroke="midnightblue" points="60.7423,-339.34 53.8233,-347.363 64.2357,-345.406 60.7423,-339.34"/>
</g>
<!-- Node12 -->
<g id="node12" class="node"><title>Node12</title>
<g id="a_node12"><a xlink:href="class_i_v_scope_control.html" target="_top" xlink:title="Vectorial multichannel capable oscilloscope control. ">
<polygon fill="white" stroke="black" points="110,-241 110,-271 250,-271 250,-241 110,-241"/>
<text text-anchor="start" x="118" y="-259" font-family="Helvetica,sans-Serif" font-size="10.00">IVScopeControl&lt; MAXNC,</text>
<text text-anchor="middle" x="180" y="-248" font-family="Helvetica,sans-Serif" font-size="10.00"> MAXBUF &gt;</text>
</a>
</g>
</g>
<!-- Node1&#45;&gt;Node12 -->
<g id="edge11" class="edge"><title>Node1&#45;&gt;Node12</title>
<path fill="none" stroke="midnightblue" d="M50.7062,-339.434C63.8404,-322.397 85.7906,-296.862 110,-281 115.755,-277.229 122.152,-273.937 128.665,-271.089"/>
<polygon fill="midnightblue" stroke="midnightblue" points="47.8773,-337.373 44.6762,-347.472 53.4769,-341.573 47.8773,-337.373"/>
</g>
<!-- Node13 -->
<g id="node13" class="node"><title>Node13</title>
<g id="a_node13"><a xlink:href="class_i_v_slider_control.html" target="_top" xlink:title="A vector slider control. ">
<polygon fill="white" stroke="black" points="136.5,-202.5 136.5,-221.5 223.5,-221.5 223.5,-202.5 136.5,-202.5"/>
<text text-anchor="middle" x="180" y="-209.5" font-family="Helvetica,sans-Serif" font-size="10.00">IVSliderControl</text>
</a>
</g>
</g>
<!-- Node1&#45;&gt;Node13 -->
<g id="edge12" class="edge"><title>Node1&#45;&gt;Node13</title>
<path fill="none" stroke="midnightblue" d="M44.0162,-337.484C53.5307,-309.875 74.6866,-259.7 110,-232 117.654,-225.996 127.05,-221.794 136.415,-218.853"/>
<polygon fill="midnightblue" stroke="midnightblue" points="40.6269,-336.587 40.8368,-347.18 47.2784,-338.768 40.6269,-336.587"/>
</g>
<!-- Node14 -->
<g id="node14" class="node"><title>Node14</title>
<g id="a_node14"><a xlink:href="class_i_v_switch_control.html" target="_top" xlink:title="A vector switch control. ">
<polygon fill="white" stroke="black" points="134.5,-164.5 134.5,-183.5 225.5,-183.5 225.5,-164.5 134.5,-164.5"/>
<text text-anchor="middle" x="180" y="-171.5" font-family="Helvetica,sans-Serif" font-size="10.00">IVSwitchControl</text>
</a>
</g>
</g>
<!-- Node1&#45;&gt;Node14 -->
<g id="edge13" class="edge"><title>Node1&#45;&gt;Node14</title>
<path fill="none" stroke="midnightblue" d="M41.1117,-336.898C47.5478,-302.263 65.6196,-231.371 110,-193 116.861,-187.068 125.42,-182.974 134.151,-180.152"/>
<polygon fill="midnightblue" stroke="midnightblue" points="37.5935,-336.707 39.3539,-347.154 44.4929,-337.889 37.5935,-336.707"/>
</g>
<!-- Node17 -->
<g id="node17" class="node"><title>Node17</title>
<g id="a_node17"><a xlink:href="class_i_v_tab_switch_control.html" target="_top" xlink:title="A vector &quot;tab&quot; multi switch control. ">
<polygon fill="white" stroke="black" points="126.5,-126.5 126.5,-145.5 233.5,-145.5 233.5,-126.5 126.5,-126.5"/>
<text text-anchor="middle" x="180" y="-133.5" font-family="Helvetica,sans-Serif" font-size="10.00">IVTabSwitchControl</text>
</a>
</g>
</g>
<!-- Node1&#45;&gt;Node17 -->
<g id="edge16" class="edge"><title>Node1&#45;&gt;Node17</title>
<path fill="none" stroke="midnightblue" d="M39.195,-337.161C42.7188,-296.785 56.507,-204.689 110,-155 114.734,-150.603 120.391,-147.208 126.402,-144.59"/>
<polygon fill="midnightblue" stroke="midnightblue" points="35.6918,-337.074 38.4359,-347.308 42.6723,-337.597 35.6918,-337.074"/>
</g>
<!-- Node19 -->
<g id="node19" class="node"><title>Node19</title>
<g id="a_node19"><a xlink:href="class_i_v_track_control_base.html" target="_top" xlink:title="A base class for mult&#45;strip/track controls, such as multi&#45;sliders, meters. ">
<polygon fill="white" stroke="black" points="126,-88.5 126,-107.5 234,-107.5 234,-88.5 126,-88.5"/>
<text text-anchor="middle" x="180" y="-95.5" font-family="Helvetica,sans-Serif" font-size="10.00">IVTrackControlBase</text>
</a>
</g>
</g>
<!-- Node1&#45;&gt;Node19 -->
<g id="edge18" class="edge"><title>Node1&#45;&gt;Node19</title>
<path fill="none" stroke="midnightblue" d="M37.8841,-336.969C38.7497,-291.18 47.4826,-178.111 110,-117 114.531,-112.57 119.996,-109.152 125.842,-106.517"/>
<polygon fill="midnightblue" stroke="midnightblue" points="34.3834,-337.061 37.8056,-347.087 41.3832,-337.115 34.3834,-337.061"/>
</g>
<!-- Node23 -->
<g id="node23" class="node"><title>Node23</title>
<g id="a_node23"><a xlink:href="class_i_v_x_y_pad_control.html" target="_top" xlink:title="IVXYPadControl">
<polygon fill="white" stroke="black" points="135.5,-50.5 135.5,-69.5 224.5,-69.5 224.5,-50.5 135.5,-50.5"/>
<text text-anchor="middle" x="180" y="-57.5" font-family="Helvetica,sans-Serif" font-size="10.00">IVXYPadControl</text>
</a>
</g>
</g>
<!-- Node1&#45;&gt;Node23 -->
<g id="edge22" class="edge"><title>Node1&#45;&gt;Node23</title>
<path fill="none" stroke="midnightblue" d="M40.5289,-337.294C48.2383,-280.203 73.1854,-116.381 110,-79 116.8,-72.0949 125.862,-67.6338 135.176,-64.7683"/>
<polygon fill="midnightblue" stroke="midnightblue" points="37.0575,-336.848 39.2184,-347.22 43.9973,-337.764 37.0575,-336.848"/>
</g>
<!-- Node15 -->
<g id="node15" class="node"><title>Node15</title>
<g id="a_node15"><a xlink:href="class_i_v_slide_switch_control.html" target="_top" xlink:title="/todo. ">
<polygon fill="white" stroke="black" points="302,-202.5 302,-221.5 416,-221.5 416,-202.5 302,-202.5"/>
<text text-anchor="middle" x="359" y="-209.5" font-family="Helvetica,sans-Serif" font-size="10.00">IVSlideSwitchControl</text>
</a>
</g>
</g>
<!-- Node14&#45;&gt;Node15 -->
<g id="edge14" class="edge"><title>Node14&#45;&gt;Node15</title>
<path fill="none" stroke="midnightblue" d="M235.742,-185.753C260.77,-191.126 290.035,-197.409 313.657,-202.48"/>
<polygon fill="midnightblue" stroke="midnightblue" points="236.176,-182.266 225.665,-183.589 234.707,-189.11 236.176,-182.266"/>
</g>
<!-- Node16 -->
<g id="node16" class="node"><title>Node16</title>
<g id="a_node16"><a xlink:href="class_i_v_toggle_control.html" target="_top" xlink:title="A vector toggle control. ">
<polygon fill="white" stroke="black" points="314,-164.5 314,-183.5 404,-183.5 404,-164.5 314,-164.5"/>
<text text-anchor="middle" x="359" y="-171.5" font-family="Helvetica,sans-Serif" font-size="10.00">IVToggleControl</text>
</a>
</g>
</g>
<!-- Node14&#45;&gt;Node16 -->
<g id="edge15" class="edge"><title>Node14&#45;&gt;Node16</title>
<path fill="none" stroke="midnightblue" d="M235.782,-174C260.909,-174 290.3,-174 313.963,-174"/>
<polygon fill="midnightblue" stroke="midnightblue" points="235.665,-170.5 225.665,-174 235.665,-177.5 235.665,-170.5"/>
</g>
<!-- Node18 -->
<g id="node18" class="node"><title>Node18</title>
<g id="a_node18"><a xlink:href="class_i_v_radio_button_control.html" target="_top" xlink:title="IVRadioButtonControl">
<polygon fill="white" stroke="black" points="299.5,-126.5 299.5,-145.5 418.5,-145.5 418.5,-126.5 299.5,-126.5"/>
<text text-anchor="middle" x="359" y="-133.5" font-family="Helvetica,sans-Serif" font-size="10.00">IVRadioButtonControl</text>
</a>
</g>
</g>
<!-- Node17&#45;&gt;Node18 -->
<g id="edge17" class="edge"><title>Node17&#45;&gt;Node18</title>
<path fill="none" stroke="midnightblue" d="M243.784,-136C261.881,-136 281.548,-136 299.381,-136"/>
<polygon fill="midnightblue" stroke="midnightblue" points="243.627,-132.5 233.627,-136 243.627,-139.5 243.627,-132.5"/>
</g>
<!-- Node20 -->
<g id="node20" class="node"><title>Node20</title>
<g id="a_node20"><a xlink:href="class_i_v_meter_control.html" target="_top" xlink:title="Vectorial multi&#45;channel capable meter control. ">
<polygon fill="white" stroke="black" points="286,-88.5 286,-107.5 432,-107.5 432,-88.5 286,-88.5"/>
<text text-anchor="middle" x="359" y="-95.5" font-family="Helvetica,sans-Serif" font-size="10.00">IVMeterControl&lt; MAXNC &gt;</text>
</a>
</g>
</g>
<!-- Node19&#45;&gt;Node20 -->
<g id="edge19" class="edge"><title>Node19&#45;&gt;Node20</title>
<path fill="none" stroke="midnightblue" d="M244.248,-98C257.76,-98 272.129,-98 285.944,-98"/>
<polygon fill="midnightblue" stroke="midnightblue" points="244.106,-94.5001 234.106,-98 244.106,-101.5 244.106,-94.5001"/>
</g>
<!-- Node21 -->
<g id="node21" class="node"><title>Node21</title>
<g id="a_node21"><a xlink:href="class_i_v_multi_slider_control.html" target="_top" xlink:title="A vectorial multi&#45;slider control. ">
<polygon fill="white" stroke="black" points="304,-39 304,-69 414,-69 414,-39 304,-39"/>
<text text-anchor="start" x="312" y="-57" font-family="Helvetica,sans-Serif" font-size="10.00">IVMultiSliderControl</text>
<text text-anchor="middle" x="359" y="-46" font-family="Helvetica,sans-Serif" font-size="10.00">&lt; MAXNC &gt;</text>
</a>
</g>
</g>
<!-- Node19&#45;&gt;Node21 -->
<g id="edge20" class="edge"><title>Node19&#45;&gt;Node21</title>
<path fill="none" stroke="midnightblue" d="M229.32,-85.9881C252.399,-80.251 280.106,-73.3635 303.889,-67.4513"/>
<polygon fill="midnightblue" stroke="midnightblue" points="228.267,-82.6435 219.406,-88.4527 229.955,-89.4368 228.267,-82.6435"/>
</g>
<!-- Node22 -->
<g id="node22" class="node"><title>Node22</title>
<g id="a_node22"><a xlink:href="class_i_v_range_slider_control.html" target="_top" xlink:title="IVRangeSliderControl">
<polygon fill="white" stroke="black" points="300.5,-0.5 300.5,-19.5 417.5,-19.5 417.5,-0.5 300.5,-0.5"/>
<text text-anchor="middle" x="359" y="-7.5" font-family="Helvetica,sans-Serif" font-size="10.00">IVRangeSliderControl</text>
</a>
</g>
</g>
<!-- Node19&#45;&gt;Node22 -->
<g id="edge21" class="edge"><title>Node19&#45;&gt;Node22</title>
<path fill="none" stroke="midnightblue" d="M240.785,-84.4207C244.009,-82.8115 247.107,-81.0121 250,-79 272.48,-63.364 263.437,-44.5156 286,-29 291.646,-25.1177 298.04,-22.0285 304.631,-19.5705"/>
<polygon fill="midnightblue" stroke="midnightblue" points="239.222,-81.2834 231.438,-88.4709 242.006,-87.7064 239.222,-81.2834"/>
</g>
</g>
</svg>
