<?xml version="1.0" encoding="UTF-8" standalone="no"?>
<!DOCTYPE svg PUBLIC "-//W3C//DTD SVG 1.1//EN"
 "http://www.w3.org/Graphics/SVG/1.1/DTD/svg11.dtd">
<!-- Generated by graphviz version 2.38.0 (20140413.2041)
 -->
<!-- Title: ITextControl Pages: 1 -->
<svg width="357pt" height="294pt"
 viewBox="0.00 0.00 357.00 294.00" xmlns="http://www.w3.org/2000/svg" xmlns:xlink="http://www.w3.org/1999/xlink">
<g id="graph0" class="graph" transform="scale(1 1) rotate(0) translate(4 290)">
<title>ITextControl</title>
<polygon fill="white" stroke="none" points="-4,4 -4,-290 353,-290 353,4 -4,4"/>
<!-- Node1 -->
<g id="node1" class="node"><title>Node1</title>
<polygon fill="#bfbfbf" stroke="black" points="89,-133.5 89,-152.5 161,-152.5 161,-133.5 89,-133.5"/>
<text text-anchor="middle" x="125" y="-140.5" font-family="Helvetica,sans-Serif" font-size="10.00">ITextControl</text>
</g>
<!-- Node3 -->
<g id="node3" class="node"><title>Node3</title>
<g id="a_node3"><a xlink:href="class_i_b_text_control.html" target="_top" xlink:title="A control to display text using a monospace bitmap font. ">
<polygon fill="white" stroke="black" points="233.5,-266.5 233.5,-285.5 312.5,-285.5 312.5,-266.5 233.5,-266.5"/>
<text text-anchor="middle" x="273" y="-273.5" font-family="Helvetica,sans-Serif" font-size="10.00">IBTextControl</text>
</a>
</g>
</g>
<!-- Node1&#45;&gt;Node3 -->
<g id="edge2" class="edge"><title>Node1&#45;&gt;Node3</title>
<path fill="none" stroke="midnightblue" d="M132.781,-162.403C142.761,-188.051 163.888,-232.809 197,-257 207.521,-264.686 220.836,-269.275 233.319,-272.011"/>
<polygon fill="midnightblue" stroke="midnightblue" points="135.94,-160.857 129.183,-152.697 129.377,-163.29 135.94,-160.857"/>
</g>
<!-- Node4 -->
<g id="node4" class="node"><title>Node4</title>
<g id="a_node4"><a xlink:href="class_i_caption_control.html" target="_top" xlink:title="A control to display the textual representation of a parameter. ">
<polygon fill="white" stroke="black" points="228,-228.5 228,-247.5 318,-247.5 318,-228.5 228,-228.5"/>
<text text-anchor="middle" x="273" y="-235.5" font-family="Helvetica,sans-Serif" font-size="10.00">ICaptionControl</text>
</a>
</g>
</g>
<!-- Node1&#45;&gt;Node4 -->
<g id="edge3" class="edge"><title>Node1&#45;&gt;Node4</title>
<path fill="none" stroke="midnightblue" d="M137.95,-160.815C150.587,-178.258 172.114,-204.293 197,-219 206.367,-224.535 217.314,-228.47 227.905,-231.263"/>
<polygon fill="midnightblue" stroke="midnightblue" points="140.786,-158.764 132.181,-152.582 135.053,-162.781 140.786,-158.764"/>
</g>
<!-- Node5 -->
<g id="node5" class="node"><title>Node5</title>
<g id="a_node5"><a xlink:href="class_i_r_t_text_control.html" target="_top" xlink:title="A control to display some text in the UI, driven by values in the RT audio thread. ">
<polygon fill="white" stroke="black" points="197,-190.5 197,-209.5 349,-209.5 349,-190.5 197,-190.5"/>
<text text-anchor="middle" x="273" y="-197.5" font-family="Helvetica,sans-Serif" font-size="10.00">IRTTextControl&lt; MAXNC, T &gt;</text>
</a>
</g>
</g>
<!-- Node1&#45;&gt;Node5 -->
<g id="edge4" class="edge"><title>Node1&#45;&gt;Node5</title>
<path fill="none" stroke="midnightblue" d="M149.907,-157.683C163.361,-165.458 180.689,-174.678 197,-181 206.393,-184.641 216.72,-187.779 226.627,-190.397"/>
<polygon fill="midnightblue" stroke="midnightblue" points="151.662,-154.655 141.271,-152.585 148.103,-160.683 151.662,-154.655"/>
</g>
<!-- Node6 -->
<g id="node6" class="node"><title>Node6</title>
<g id="a_node6"><a xlink:href="class_i_text_toggle_control.html" target="_top" xlink:title="ITextToggleControl">
<polygon fill="white" stroke="black" points="222,-152.5 222,-171.5 324,-171.5 324,-152.5 222,-152.5"/>
<text text-anchor="middle" x="273" y="-159.5" font-family="Helvetica,sans-Serif" font-size="10.00">ITextToggleControl</text>
</a>
</g>
</g>
<!-- Node1&#45;&gt;Node6 -->
<g id="edge5" class="edge"><title>Node1&#45;&gt;Node6</title>
<path fill="none" stroke="midnightblue" d="M171.498,-148.921C187.462,-150.999 205.482,-153.344 221.809,-155.468"/>
<polygon fill="midnightblue" stroke="midnightblue" points="171.711,-145.419 161.343,-147.599 170.807,-152.361 171.711,-145.419"/>
</g>
<!-- Node7 -->
<g id="node7" class="node"><title>Node7</title>
<g id="a_node7"><a xlink:href="class_i_u_r_l_control.html" target="_top" xlink:title="IURLControl">
<polygon fill="white" stroke="black" points="237,-114.5 237,-133.5 309,-133.5 309,-114.5 237,-114.5"/>
<text text-anchor="middle" x="273" y="-121.5" font-family="Helvetica,sans-Serif" font-size="10.00">IURLControl</text>
</a>
</g>
</g>
<!-- Node1&#45;&gt;Node7 -->
<g id="edge6" class="edge"><title>Node1&#45;&gt;Node7</title>
<path fill="none" stroke="midnightblue" d="M171.394,-137.093C192.541,-134.341 217.312,-131.117 236.983,-128.557"/>
<polygon fill="midnightblue" stroke="midnightblue" points="170.807,-133.639 161.343,-138.401 171.711,-140.581 170.807,-133.639"/>
</g>
<!-- Node8 -->
<g id="node8" class="node"><title>Node8</title>
<g id="a_node8"><a xlink:href="class_i_v_label_control.html" target="_top" xlink:title="IVLabelControl">
<polygon fill="white" stroke="black" points="230,-76.5 230,-95.5 316,-95.5 316,-76.5 230,-76.5"/>
<text text-anchor="middle" x="273" y="-83.5" font-family="Helvetica,sans-Serif" font-size="10.00">IVLabelControl</text>
</a>
</g>
</g>
<!-- Node1&#45;&gt;Node8 -->
<g id="edge7" class="edge"><title>Node1&#45;&gt;Node8</title>
<path fill="none" stroke="midnightblue" d="M149.907,-128.317C163.361,-120.542 180.689,-111.322 197,-105 207.395,-100.971 218.934,-97.5572 229.781,-94.7833"/>
<polygon fill="midnightblue" stroke="midnightblue" points="148.103,-125.317 141.271,-133.415 151.662,-131.345 148.103,-125.317"/>
</g>
<!-- Node9 -->
<g id="node9" class="node"><title>Node9</title>
<g id="a_node9"><a xlink:href="class_place_holder.html" target="_top" xlink:title="A control to use as a placeholder during development. ">
<polygon fill="white" stroke="black" points="236,-38.5 236,-57.5 310,-57.5 310,-38.5 236,-38.5"/>
<text text-anchor="middle" x="273" y="-45.5" font-family="Helvetica,sans-Serif" font-size="10.00">PlaceHolder</text>
</a>
</g>
</g>
<!-- Node1&#45;&gt;Node9 -->
<g id="edge8" class="edge"><title>Node1&#45;&gt;Node9</title>
<path fill="none" stroke="midnightblue" d="M137.95,-125.185C150.587,-107.742 172.114,-81.7071 197,-67 208.679,-60.0978 222.817,-55.6844 235.655,-52.8704"/>
<polygon fill="midnightblue" stroke="midnightblue" points="135.053,-123.219 132.181,-133.418 140.786,-127.236 135.053,-123.219"/>
</g>
<!-- Node10 -->
<g id="node10" class="node"><title>Node10</title>
<g id="a_node10"><a xlink:href="class_test_gestures_control.html" target="_top" xlink:title="Control to test multi gesture recognizers. ">
<polygon fill="white" stroke="black" points="216.5,-0.5 216.5,-19.5 329.5,-19.5 329.5,-0.5 216.5,-0.5"/>
<text text-anchor="middle" x="273" y="-7.5" font-family="Helvetica,sans-Serif" font-size="10.00">TestGesturesControl</text>
</a>
</g>
</g>
<!-- Node1&#45;&gt;Node10 -->
<g id="edge9" class="edge"><title>Node1&#45;&gt;Node10</title>
<path fill="none" stroke="midnightblue" d="M132.781,-123.597C142.761,-97.9491 163.888,-53.1907 197,-29 202.748,-24.8004 209.331,-21.5254 216.157,-18.972"/>
<polygon fill="midnightblue" stroke="midnightblue" points="129.377,-122.71 129.183,-133.303 135.94,-125.143 129.377,-122.71"/>
</g>
<!-- Node2 -->
<g id="node2" class="node"><title>Node2</title>
<g id="a_node2"><a xlink:href="class_i_control.html" target="_top" xlink:title="The lowest level base class of an IGraphics control. ">
<polygon fill="white" stroke="black" points="0,-133.5 0,-152.5 53,-152.5 53,-133.5 0,-133.5"/>
<text text-anchor="middle" x="26.5" y="-140.5" font-family="Helvetica,sans-Serif" font-size="10.00">IControl</text>
</a>
</g>
</g>
<!-- Node2&#45;&gt;Node1 -->
<g id="edge1" class="edge"><title>Node2&#45;&gt;Node1</title>
<path fill="none" stroke="midnightblue" d="M63.3032,-143C71.6426,-143 80.5145,-143 88.8264,-143"/>
<polygon fill="midnightblue" stroke="midnightblue" points="63.1069,-139.5 53.1069,-143 63.1068,-146.5 63.1069,-139.5"/>
</g>
</g>
</svg>
