<?xml version="1.0" encoding="UTF-8" standalone="no"?>
<!DOCTYPE svg PUBLIC "-//W3C//DTD SVG 1.1//EN"
 "http://www.w3.org/Graphics/SVG/1.1/DTD/svg11.dtd">
<!-- Generated by graphviz version 2.38.0 (20140413.2041)
 -->
<!-- Title: Graphical Class Hierarchy Pages: 1 -->
<svg width="267pt" height="180pt"
 viewBox="0.00 0.00 267.00 180.00" xmlns="http://www.w3.org/2000/svg" xmlns:xlink="http://www.w3.org/1999/xlink">
<g id="graph0" class="graph" transform="scale(1 1) rotate(0) translate(4 176)">
<title>Graphical Class Hierarchy</title>
<polygon fill="white" stroke="none" points="-4,4 -4,-176 263,-176 263,4 -4,4"/>
<!-- Node1 -->
<g id="node1" class="node"><title>Node1</title>
<polygon fill="white" stroke="#bfbfbf" points="0,-76.5 0,-95.5 137,-95.5 137,-76.5 0,-76.5"/>
<text text-anchor="middle" x="68.5" y="-83.5" font-family="Helvetica,sans-Serif" font-size="10.00">IGRAPHICS_DRAW_CLASS</text>
</g>
<!-- Node2 -->
<g id="node2" class="node"><title>Node2</title>
<g id="a_node2"><a xlink:href="class_i_graphics_i_o_s.html" target="_top" xlink:title="IGraphics platform class for IOS. ">
<polygon fill="white" stroke="black" points="177.5,-152.5 177.5,-171.5 254.5,-171.5 254.5,-152.5 177.5,-152.5"/>
<text text-anchor="middle" x="216" y="-159.5" font-family="Helvetica,sans-Serif" font-size="10.00">IGraphicsIOS</text>
</a>
</g>
</g>
<!-- Node1&#45;&gt;Node2 -->
<g id="edge1" class="edge"><title>Node1&#45;&gt;Node2</title>
<path fill="none" stroke="midnightblue" d="M94.9682,-100.758C115.738,-112.615 145.958,-129.463 173,-143 179.441,-146.224 186.544,-149.53 193.048,-152.461"/>
<polygon fill="midnightblue" stroke="midnightblue" points="96.5514,-97.6309 86.1357,-95.691 93.0683,-103.703 96.5514,-97.6309"/>
</g>
<!-- Node3 -->
<g id="node3" class="node"><title>Node3</title>
<g id="a_node3"><a xlink:href="class_i_graphics_linux.html" target="_top" xlink:title="IGraphics platform class for linux. ">
<polygon fill="white" stroke="black" points="173,-114.5 173,-133.5 259,-133.5 259,-114.5 173,-114.5"/>
<text text-anchor="middle" x="216" y="-121.5" font-family="Helvetica,sans-Serif" font-size="10.00">IGraphicsLinux</text>
</a>
</g>
</g>
<!-- Node1&#45;&gt;Node3 -->
<g id="edge2" class="edge"><title>Node1&#45;&gt;Node3</title>
<path fill="none" stroke="midnightblue" d="M116.153,-98.1843C136.353,-103.46 159.648,-109.544 178.548,-114.48"/>
<polygon fill="midnightblue" stroke="midnightblue" points="116.776,-94.7296 106.216,-95.589 115.007,-101.502 116.776,-94.7296"/>
</g>
<!-- Node4 -->
<g id="node4" class="node"><title>Node4</title>
<g id="a_node4"><a xlink:href="class_i_graphics_mac.html" target="_top" xlink:title="IGraphics platform class for macOS. ">
<polygon fill="white" stroke="black" points="176,-76.5 176,-95.5 256,-95.5 256,-76.5 176,-76.5"/>
<text text-anchor="middle" x="216" y="-83.5" font-family="Helvetica,sans-Serif" font-size="10.00">IGraphicsMac</text>
</a>
</g>
</g>
<!-- Node1&#45;&gt;Node4 -->
<g id="edge3" class="edge"><title>Node1&#45;&gt;Node4</title>
<path fill="none" stroke="midnightblue" d="M147.37,-86C157.174,-86 166.854,-86 175.692,-86"/>
<polygon fill="midnightblue" stroke="midnightblue" points="147.139,-82.5001 137.139,-86 147.138,-89.5001 147.139,-82.5001"/>
</g>
<!-- Node5 -->
<g id="node5" class="node"><title>Node5</title>
<g id="a_node5"><a xlink:href="class_i_graphics_web.html" target="_top" xlink:title="IGraphics platform class for the web. ">
<polygon fill="white" stroke="black" points="176,-38.5 176,-57.5 256,-57.5 256,-38.5 176,-38.5"/>
<text text-anchor="middle" x="216" y="-45.5" font-family="Helvetica,sans-Serif" font-size="10.00">IGraphicsWeb</text>
</a>
</g>
</g>
<!-- Node1&#45;&gt;Node5 -->
<g id="edge4" class="edge"><title>Node1&#45;&gt;Node5</title>
<path fill="none" stroke="midnightblue" d="M116.153,-73.8157C136.353,-68.54 159.648,-62.4562 178.548,-57.5201"/>
<polygon fill="midnightblue" stroke="midnightblue" points="115.007,-70.4976 106.216,-76.411 116.776,-77.2704 115.007,-70.4976"/>
</g>
<!-- Node6 -->
<g id="node6" class="node"><title>Node6</title>
<g id="a_node6"><a xlink:href="class_i_graphics_win.html" target="_top" xlink:title="IGraphics platform class for Windows. ">
<polygon fill="white" stroke="black" points="177.5,-0.5 177.5,-19.5 254.5,-19.5 254.5,-0.5 177.5,-0.5"/>
<text text-anchor="middle" x="216" y="-7.5" font-family="Helvetica,sans-Serif" font-size="10.00">IGraphicsWin</text>
</a>
</g>
</g>
<!-- Node1&#45;&gt;Node6 -->
<g id="edge5" class="edge"><title>Node1&#45;&gt;Node6</title>
<path fill="none" stroke="midnightblue" d="M94.9682,-71.2423C115.738,-59.3855 145.958,-42.537 173,-29 179.441,-25.7758 186.544,-22.4703 193.048,-19.5391"/>
<polygon fill="midnightblue" stroke="midnightblue" points="93.0683,-68.2971 86.1357,-76.309 96.5514,-74.3691 93.0683,-68.2971"/>
</g>
</g>
</svg>
