<?xml version="1.0" encoding="UTF-8" standalone="no"?>
<!DOCTYPE svg PUBLIC "-//W3C//DTD SVG 1.1//EN"
 "http://www.w3.org/Graphics/SVG/1.1/DTD/svg11.dtd">
<!-- Generated by graphviz version 2.38.0 (20140413.2041)
 -->
<!-- Title: Graphical Class Hierarchy Pages: 1 -->
<svg width="756pt" height="598pt"
 viewBox="0.00 0.00 756.00 598.00" xmlns="http://www.w3.org/2000/svg" xmlns:xlink="http://www.w3.org/1999/xlink">
<g id="graph0" class="graph" transform="scale(1 1) rotate(0) translate(4 594)">
<title>Graphical Class Hierarchy</title>
<polygon fill="white" stroke="none" points="-4,4 -4,-594 752,-594 752,4 -4,4"/>
<!-- Node1 -->
<g id="node1" class="node"><title>Node1</title>
<polygon fill="white" stroke="#bfbfbf" points="304,-456.5 304,-475.5 430,-475.5 430,-456.5 304,-456.5"/>
<text text-anchor="middle" x="367" y="-463.5" font-family="Helvetica,sans-Serif" font-size="10.00">AAX_CIPlugParameters</text>
</g>
<!-- Node2 -->
<g id="node2" class="node"><title>Node2</title>
<g id="a_node2"><a xlink:href="class_i_plug_a_a_x.html" target="_top" xlink:title="AAX API base class for an IPlug plug&#45;in. ">
<polygon fill="white" stroke="black" points="504,-456.5 504,-475.5 563,-475.5 563,-456.5 504,-456.5"/>
<text text-anchor="middle" x="533.5" y="-463.5" font-family="Helvetica,sans-Serif" font-size="10.00">IPlugAAX</text>
</a>
</g>
</g>
<!-- Node1&#45;&gt;Node2 -->
<g id="edge1" class="edge"><title>Node1&#45;&gt;Node2</title>
<path fill="none" stroke="midnightblue" d="M440.387,-466C462.783,-466 486.169,-466 503.773,-466"/>
<polygon fill="midnightblue" stroke="midnightblue" points="440.19,-462.5 430.19,-466 440.19,-469.5 440.19,-462.5"/>
</g>
<!-- Node3 -->
<g id="node3" class="node"><title>Node3</title>
<polygon fill="white" stroke="#bfbfbf" points="498,-570.5 498,-589.5 569,-589.5 569,-570.5 498,-570.5"/>
<text text-anchor="middle" x="533.5" y="-577.5" font-family="Helvetica,sans-Serif" font-size="10.00">AudioEffect</text>
</g>
<!-- Node4 -->
<g id="node4" class="node"><title>Node4</title>
<g id="a_node4"><a xlink:href="class_i_plug_v_s_t3_processor.html" target="_top" xlink:title="VST3 Processor API&#45;base class for a distributed IPlug VST3 plug&#45;in. ">
<polygon fill="white" stroke="black" points="637,-532.5 637,-551.5 748,-551.5 748,-532.5 637,-532.5"/>
<text text-anchor="middle" x="692.5" y="-539.5" font-family="Helvetica,sans-Serif" font-size="10.00">IPlugVST3Processor</text>
</a>
</g>
</g>
<!-- Node3&#45;&gt;Node4 -->
<g id="edge2" class="edge"><title>Node3&#45;&gt;Node4</title>
<path fill="none" stroke="midnightblue" d="M579.192,-569.183C602.156,-563.625 629.893,-556.911 652.056,-551.547"/>
<polygon fill="midnightblue" stroke="midnightblue" points="578.239,-565.812 569.343,-571.567 579.886,-572.616 578.239,-565.812"/>
</g>
<!-- Node5 -->
<g id="node5" class="node"><title>Node5</title>
<polygon fill="white" stroke="#bfbfbf" points="484.5,-76.5 484.5,-95.5 582.5,-95.5 582.5,-76.5 484.5,-76.5"/>
<text text-anchor="middle" x="533.5" y="-83.5" font-family="Helvetica,sans-Serif" font-size="10.00">EditControllerEx1</text>
</g>
<!-- Node6 -->
<g id="node6" class="node"><title>Node6</title>
<g id="a_node6"><a xlink:href="class_i_plug_v_s_t3_controller.html" target="_top" xlink:title="VST3 Controller API&#45;base class for a distributed IPlug VST3 plug&#45;in. ">
<polygon fill="white" stroke="black" points="637.5,-247.5 637.5,-266.5 747.5,-266.5 747.5,-247.5 637.5,-247.5"/>
<text text-anchor="middle" x="692.5" y="-254.5" font-family="Helvetica,sans-Serif" font-size="10.00">IPlugVST3Controller</text>
</a>
</g>
</g>
<!-- Node5&#45;&gt;Node6 -->
<g id="edge3" class="edge"><title>Node5&#45;&gt;Node6</title>
<path fill="none" stroke="midnightblue" d="M591.998,-99.2461C595.173,-100.939 598.204,-102.847 601,-105 651.864,-144.154 679.997,-220.688 688.612,-247.47"/>
<polygon fill="midnightblue" stroke="midnightblue" points="593.297,-95.9917 582.746,-95.0257 590.392,-102.36 593.297,-95.9917"/>
</g>
<!-- Node7 -->
<g id="node7" class="node"><title>Node7</title>
<polygon fill="white" stroke="#bfbfbf" points="0,-190.5 0,-209.5 143,-209.5 143,-190.5 0,-190.5"/>
<text text-anchor="middle" x="71.5" y="-197.5" font-family="Helvetica,sans-Serif" font-size="10.00">EDITOR_DELEGATE_CLASS</text>
</g>
<!-- Node8 -->
<g id="node8" class="node"><title>Node8</title>
<g id="a_node8"><a xlink:href="class_i_plugin_base.html" target="_top" xlink:title="Base class that contains plug&#45;in info and state manipulation methods. ">
<polygon fill="white" stroke="black" points="188,-209.5 188,-228.5 259,-228.5 259,-209.5 188,-209.5"/>
<text text-anchor="middle" x="223.5" y="-216.5" font-family="Helvetica,sans-Serif" font-size="10.00">IPluginBase</text>
</a>
</g>
</g>
<!-- Node7&#45;&gt;Node8 -->
<g id="edge4" class="edge"><title>Node7&#45;&gt;Node8</title>
<path fill="none" stroke="midnightblue" d="M153.289,-210.233C165.385,-211.765 177.28,-213.272 187.704,-214.593"/>
<polygon fill="midnightblue" stroke="midnightblue" points="153.468,-206.728 143.108,-208.944 152.589,-213.673 153.468,-206.728"/>
</g>
<!-- Node18 -->
<g id="node18" class="node"><title>Node18</title>
<g id="a_node18"><a xlink:href="class_reaper_ext_base.html" target="_top" xlink:title="ReaperExtBase">
<polygon fill="white" stroke="black" points="179,-171.5 179,-190.5 268,-190.5 268,-171.5 179,-171.5"/>
<text text-anchor="middle" x="223.5" y="-178.5" font-family="Helvetica,sans-Serif" font-size="10.00">ReaperExtBase</text>
</a>
</g>
</g>
<!-- Node7&#45;&gt;Node18 -->
<g id="edge17" class="edge"><title>Node7&#45;&gt;Node18</title>
<path fill="none" stroke="midnightblue" d="M153.089,-189.792C161.915,-188.674 170.636,-187.569 178.761,-186.54"/>
<polygon fill="midnightblue" stroke="midnightblue" points="152.589,-186.327 143.108,-191.056 153.468,-193.272 152.589,-186.327"/>
</g>
<!-- Node9 -->
<g id="node9" class="node"><title>Node9</title>
<g id="a_node9"><a xlink:href="class_i_plug_a_p_i_base.html" target="_top" xlink:title="The base class of an IPlug plug&#45;in, which interacts with the different plug&#45;in APIs. ">
<polygon fill="white" stroke="black" points="328,-209.5 328,-228.5 406,-228.5 406,-209.5 328,-209.5"/>
<text text-anchor="middle" x="367" y="-216.5" font-family="Helvetica,sans-Serif" font-size="10.00">IPlugAPIBase</text>
</a>
</g>
</g>
<!-- Node8&#45;&gt;Node9 -->
<g id="edge5" class="edge"><title>Node8&#45;&gt;Node9</title>
<path fill="none" stroke="midnightblue" d="M269.232,-219C288.044,-219 309.708,-219 327.762,-219"/>
<polygon fill="midnightblue" stroke="midnightblue" points="269.115,-215.5 259.115,-219 269.115,-222.5 269.115,-215.5"/>
</g>
<!-- Node9&#45;&gt;Node2 -->
<g id="edge6" class="edge"><title>Node9&#45;&gt;Node2</title>
<path fill="none" stroke="midnightblue" d="M370.77,-239.036C377.971,-283.341 401.428,-390.186 466,-447 476.457,-456.201 491.091,-460.964 503.97,-463.423"/>
<polygon fill="midnightblue" stroke="midnightblue" points="374.202,-238.325 369.243,-228.962 367.282,-239.374 374.202,-238.325"/>
</g>
<!-- Node9&#45;&gt;Node4 -->
<g id="edge14" class="edge"><title>Node9&#45;&gt;Node4</title>
<path fill="none" stroke="midnightblue" d="M373.029,-238.815C389.594,-303.361 442.707,-504.489 466,-523 517.366,-563.821 597.678,-559.469 647.311,-551.509"/>
<polygon fill="midnightblue" stroke="midnightblue" points="376.321,-237.558 370.455,-228.735 369.538,-239.29 376.321,-237.558"/>
</g>
<!-- Node9&#45;&gt;Node6 -->
<g id="edge13" class="edge"><title>Node9&#45;&gt;Node6</title>
<path fill="none" stroke="midnightblue" d="M416.272,-224.67C475.517,-231.629 575.692,-243.397 637.458,-250.652"/>
<polygon fill="midnightblue" stroke="midnightblue" points="416.401,-221.161 406.061,-223.471 415.584,-228.114 416.401,-221.161"/>
</g>
<!-- Node10 -->
<g id="node10" class="node"><title>Node10</title>
<g id="a_node10"><a xlink:href="class_i_plug_a_p_p.html" target="_top" xlink:title="Standalone application base class for an IPlug plug&#45;in. ">
<polygon fill="white" stroke="black" points="504.5,-190.5 504.5,-209.5 562.5,-209.5 562.5,-190.5 504.5,-190.5"/>
<text text-anchor="middle" x="533.5" y="-197.5" font-family="Helvetica,sans-Serif" font-size="10.00">IPlugAPP</text>
</a>
</g>
</g>
<!-- Node9&#45;&gt;Node10 -->
<g id="edge7" class="edge"><title>Node9&#45;&gt;Node10</title>
<path fill="none" stroke="midnightblue" d="M416.36,-213.414C444.968,-210.11 480.205,-206.04 504.315,-203.255"/>
<polygon fill="midnightblue" stroke="midnightblue" points="415.685,-209.969 406.153,-214.593 416.489,-216.923 415.685,-209.969"/>
</g>
<!-- Node11 -->
<g id="node11" class="node"><title>Node11</title>
<g id="a_node11"><a xlink:href="class_i_plug_a_u.html" target="_top" xlink:title="AudioUnit v2 API base class for an IPlug plug&#45;in. ">
<polygon fill="white" stroke="black" points="507,-152.5 507,-171.5 560,-171.5 560,-152.5 507,-152.5"/>
<text text-anchor="middle" x="533.5" y="-159.5" font-family="Helvetica,sans-Serif" font-size="10.00">IPlugAU</text>
</a>
</g>
</g>
<!-- Node9&#45;&gt;Node11 -->
<g id="edge8" class="edge"><title>Node9&#45;&gt;Node11</title>
<path fill="none" stroke="midnightblue" d="M400.134,-205.684C419.134,-198.025 443.757,-188.472 466,-181 479.317,-176.526 494.352,-172.173 506.753,-168.765"/>
<polygon fill="midnightblue" stroke="midnightblue" points="398.7,-202.488 390.753,-209.495 401.335,-208.973 398.7,-202.488"/>
</g>
<!-- Node12 -->
<g id="node12" class="node"><title>Node12</title>
<g id="a_node12"><a xlink:href="class_i_plug_a_uv3.html" target="_top" xlink:title="AudioUnit v3 API base class for an IPlug plug&#45;in. ">
<polygon fill="white" stroke="black" points="501,-114.5 501,-133.5 566,-133.5 566,-114.5 501,-114.5"/>
<text text-anchor="middle" x="533.5" y="-121.5" font-family="Helvetica,sans-Serif" font-size="10.00">IPlugAUv3</text>
</a>
</g>
</g>
<!-- Node9&#45;&gt;Node12 -->
<g id="edge9" class="edge"><title>Node9&#45;&gt;Node12</title>
<path fill="none" stroke="midnightblue" d="M395.402,-204.299C406.578,-197.779 419.35,-189.633 430,-181 448.073,-166.351 446.11,-155.068 466,-143 476.573,-136.585 489.404,-132.256 500.963,-129.373"/>
<polygon fill="midnightblue" stroke="midnightblue" points="393.441,-201.388 386.471,-209.367 396.896,-207.476 393.441,-201.388"/>
</g>
<!-- Node13 -->
<g id="node13" class="node"><title>Node13</title>
<g id="a_node13"><a xlink:href="class_i_plug_v_s_t2.html" target="_top" xlink:title="VST2.4 API base class for an IPlug plug&#45;in. ">
<polygon fill="white" stroke="black" points="501.5,-38.5 501.5,-57.5 565.5,-57.5 565.5,-38.5 501.5,-38.5"/>
<text text-anchor="middle" x="533.5" y="-45.5" font-family="Helvetica,sans-Serif" font-size="10.00">IPlugVST2</text>
</a>
</g>
</g>
<!-- Node9&#45;&gt;Node13 -->
<g id="edge10" class="edge"><title>Node9&#45;&gt;Node13</title>
<path fill="none" stroke="midnightblue" d="M400.919,-204.624C411.459,-198.638 422.363,-190.771 430,-181 462.72,-139.137 427.915,-104.049 466,-67 475.381,-57.874 488.829,-53.0749 501.181,-50.5725"/>
<polygon fill="midnightblue" stroke="midnightblue" points="399.062,-201.646 391.842,-209.4 402.321,-207.841 399.062,-201.646"/>
</g>
<!-- Node15 -->
<g id="node15" class="node"><title>Node15</title>
<g id="a_node15"><a xlink:href="class_i_plug_v_s_t3.html" target="_top" xlink:title="VST3 base class for a non&#45;distributed IPlug VST3 plug&#45;in. ">
<polygon fill="white" stroke="black" points="660.5,-342.5 660.5,-361.5 724.5,-361.5 724.5,-342.5 660.5,-342.5"/>
<text text-anchor="middle" x="692.5" y="-349.5" font-family="Helvetica,sans-Serif" font-size="10.00">IPlugVST3</text>
</a>
</g>
</g>
<!-- Node9&#45;&gt;Node15 -->
<g id="edge12" class="edge"><title>Node9&#45;&gt;Node15</title>
<path fill="none" stroke="midnightblue" d="M373.829,-238.681C385.162,-272.923 413.76,-342.524 466,-371 532.405,-407.197 626.448,-378.214 669.017,-361.608"/>
<polygon fill="midnightblue" stroke="midnightblue" points="377.091,-237.389 370.748,-228.903 370.415,-239.492 377.091,-237.389"/>
</g>
<!-- Node16 -->
<g id="node16" class="node"><title>Node16</title>
<g id="a_node16"><a xlink:href="class_i_plug_w_a_m.html" target="_top" xlink:title="WebAudioModule (WAM) API base class. ">
<polygon fill="white" stroke="black" points="502.5,-0.5 502.5,-19.5 564.5,-19.5 564.5,-0.5 502.5,-0.5"/>
<text text-anchor="middle" x="533.5" y="-7.5" font-family="Helvetica,sans-Serif" font-size="10.00">IPlugWAM</text>
</a>
</g>
</g>
<!-- Node9&#45;&gt;Node16 -->
<g id="edge15" class="edge"><title>Node9&#45;&gt;Node16</title>
<path fill="none" stroke="midnightblue" d="M401.833,-204.652C412.247,-198.724 422.841,-190.886 430,-181 470.719,-124.771 418.045,-79.2003 466,-29 475.372,-19.189 489.427,-14.3374 502.205,-11.9784"/>
<polygon fill="midnightblue" stroke="midnightblue" points="400.054,-201.633 392.819,-209.373 403.301,-207.834 400.054,-201.633"/>
</g>
<!-- Node17 -->
<g id="node17" class="node"><title>Node17</title>
<g id="a_node17"><a xlink:href="class_i_plug_web.html" target="_top" xlink:title="This is used for the UI &quot;editor&quot; &#45; controller side of a WAM or remote editors that communicate with d...">
<polygon fill="white" stroke="black" points="504,-494.5 504,-513.5 563,-513.5 563,-494.5 504,-494.5"/>
<text text-anchor="middle" x="533.5" y="-501.5" font-family="Helvetica,sans-Serif" font-size="10.00">IPlugWeb</text>
</a>
</g>
</g>
<!-- Node9&#45;&gt;Node17 -->
<g id="edge16" class="edge"><title>Node9&#45;&gt;Node17</title>
<path fill="none" stroke="midnightblue" d="M369.369,-238.916C373.847,-288.174 392.358,-416.662 466,-485 476.21,-494.474 490.821,-499.264 503.748,-501.668"/>
<polygon fill="midnightblue" stroke="midnightblue" points="372.836,-238.354 368.542,-228.668 365.858,-238.918 372.836,-238.354"/>
</g>
<!-- Node14 -->
<g id="node14" class="node"><title>Node14</title>
<g id="a_node14"><a xlink:href="class_i_plug_reaper_v_s_t2.html" target="_top" xlink:title="Reaper specific VST2.4 API base class for an IPlug plug&#45;in. ">
<polygon fill="white" stroke="black" points="644,-38.5 644,-57.5 741,-57.5 741,-38.5 644,-38.5"/>
<text text-anchor="middle" x="692.5" y="-45.5" font-family="Helvetica,sans-Serif" font-size="10.00">IPlugReaperVST2</text>
</a>
</g>
</g>
<!-- Node13&#45;&gt;Node14 -->
<g id="edge11" class="edge"><title>Node13&#45;&gt;Node14</title>
<path fill="none" stroke="midnightblue" d="M575.68,-48C596.586,-48 622.094,-48 643.845,-48"/>
<polygon fill="midnightblue" stroke="midnightblue" points="575.518,-44.5001 565.518,-48 575.518,-51.5001 575.518,-44.5001"/>
</g>
<!-- Node19 -->
<g id="node19" class="node"><title>Node19</title>
<polygon fill="white" stroke="#bfbfbf" points="494.5,-304.5 494.5,-323.5 572.5,-323.5 572.5,-304.5 494.5,-304.5"/>
<text text-anchor="middle" x="533.5" y="-311.5" font-family="Helvetica,sans-Serif" font-size="10.00">IMidiMapping</text>
</g>
<!-- Node19&#45;&gt;Node6 -->
<g id="edge19" class="edge"><title>Node19&#45;&gt;Node6</title>
<path fill="none" stroke="midnightblue" d="M580.833,-301.531C587.638,-299.478 594.531,-297.273 601,-295 625.276,-286.469 652.4,-274.781 670.567,-266.629"/>
<polygon fill="midnightblue" stroke="midnightblue" points="579.595,-298.247 570.986,-304.422 581.567,-304.964 579.595,-298.247"/>
</g>
<!-- Node19&#45;&gt;Node15 -->
<g id="edge18" class="edge"><title>Node19&#45;&gt;Node15</title>
<path fill="none" stroke="midnightblue" d="M582.311,-325.572C607.687,-331.714 638.141,-339.085 660.432,-344.48"/>
<polygon fill="midnightblue" stroke="midnightblue" points="583.048,-322.149 572.505,-323.199 581.401,-328.953 583.048,-322.149"/>
</g>
<!-- Node20 -->
<g id="node20" class="node"><title>Node20</title>
<g id="a_node20"><a xlink:href="class_i_plug_processor.html" target="_top" xlink:title="The base class for IPlug Audio Processing. ">
<polygon fill="white" stroke="black" points="324,-152.5 324,-171.5 410,-171.5 410,-152.5 324,-152.5"/>
<text text-anchor="middle" x="367" y="-159.5" font-family="Helvetica,sans-Serif" font-size="10.00">IPlugProcessor</text>
</a>
</g>
</g>
<!-- Node20&#45;&gt;Node2 -->
<g id="edge20" class="edge"><title>Node20&#45;&gt;Node2</title>
<path fill="none" stroke="midnightblue" d="M402.847,-176.279C413.13,-182.15 423.39,-189.973 430,-200 491.059,-292.622 392.965,-363.495 466,-447 475.407,-457.755 490.437,-462.617 503.831,-464.74"/>
<polygon fill="midnightblue" stroke="midnightblue" points="404.381,-173.131 393.895,-171.615 401.146,-179.339 404.381,-173.131"/>
</g>
<!-- Node20&#45;&gt;Node10 -->
<g id="edge21" class="edge"><title>Node20&#45;&gt;Node10</title>
<path fill="none" stroke="midnightblue" d="M419.565,-173.912C447.619,-180.392 481.233,-188.157 504.455,-193.522"/>
<polygon fill="midnightblue" stroke="midnightblue" points="420.042,-170.43 409.51,-171.589 418.466,-177.25 420.042,-170.43"/>
</g>
<!-- Node20&#45;&gt;Node11 -->
<g id="edge22" class="edge"><title>Node20&#45;&gt;Node11</title>
<path fill="none" stroke="midnightblue" d="M420.673,-162C449.425,-162 483.74,-162 506.706,-162"/>
<polygon fill="midnightblue" stroke="midnightblue" points="420.363,-158.5 410.363,-162 420.363,-165.5 420.363,-158.5"/>
</g>
<!-- Node20&#45;&gt;Node12 -->
<g id="edge23" class="edge"><title>Node20&#45;&gt;Node12</title>
<path fill="none" stroke="midnightblue" d="M419.454,-150.114C446.117,-143.955 477.828,-136.629 500.868,-131.307"/>
<polygon fill="midnightblue" stroke="midnightblue" points="418.466,-146.75 409.51,-152.411 420.042,-153.57 418.466,-146.75"/>
</g>
<!-- Node20&#45;&gt;Node13 -->
<g id="edge24" class="edge"><title>Node20&#45;&gt;Node13</title>
<path fill="none" stroke="midnightblue" d="M381.517,-144.386C398.833,-123.013 430.839,-87.3226 466,-67 476.811,-60.7511 489.814,-56.4437 501.442,-53.5316"/>
<polygon fill="midnightblue" stroke="midnightblue" points="378.693,-142.315 375.227,-152.327 384.18,-146.662 378.693,-142.315"/>
</g>
<!-- Node20&#45;&gt;Node16 -->
<g id="edge28" class="edge"><title>Node20&#45;&gt;Node16</title>
<path fill="none" stroke="midnightblue" d="M376.755,-143.207C391.205,-114.267 422.801,-59.0026 466,-29 476.651,-21.6028 490.151,-17.0654 502.2,-14.2914"/>
<polygon fill="midnightblue" stroke="midnightblue" points="373.579,-141.736 372.369,-152.261 379.879,-144.788 373.579,-141.736"/>
</g>
<!-- Node21 -->
<g id="node21" class="node"><title>Node21</title>
<g id="a_node21"><a xlink:href="class_i_plug_v_s_t3_processor_base.html" target="_top" xlink:title="Shared VST3 processor code. ">
<polygon fill="white" stroke="black" points="466,-418.5 466,-437.5 601,-437.5 601,-418.5 466,-418.5"/>
<text text-anchor="middle" x="533.5" y="-425.5" font-family="Helvetica,sans-Serif" font-size="10.00">IPlugVST3ProcessorBase</text>
</a>
</g>
</g>
<!-- Node20&#45;&gt;Node21 -->
<g id="edge25" class="edge"><title>Node20&#45;&gt;Node21</title>
<path fill="none" stroke="midnightblue" d="M401.978,-176.244C412.402,-182.165 422.966,-190.025 430,-200 474.761,-263.47 426.414,-304.18 466,-371 478.246,-391.67 500.707,-408.538 516.109,-418.423"/>
<polygon fill="midnightblue" stroke="midnightblue" points="403.43,-173.055 392.945,-171.537 400.195,-179.262 403.43,-173.055"/>
</g>
<!-- Node21&#45;&gt;Node4 -->
<g id="edge27" class="edge"><title>Node21&#45;&gt;Node4</title>
<path fill="none" stroke="midnightblue" d="M589.614,-441.187C593.576,-442.903 597.417,-444.833 601,-447 639.007,-469.989 671.622,-513.076 685.008,-532.305"/>
<polygon fill="midnightblue" stroke="midnightblue" points="590.803,-437.895 580.213,-437.559 588.282,-444.425 590.803,-437.895"/>
</g>
<!-- Node21&#45;&gt;Node15 -->
<g id="edge26" class="edge"><title>Node21&#45;&gt;Node15</title>
<path fill="none" stroke="midnightblue" d="M573.955,-415.05C582.965,-411.739 592.413,-407.979 601,-404 628.621,-391.2 658.965,-372.806 676.562,-361.672"/>
<polygon fill="midnightblue" stroke="midnightblue" points="572.652,-411.799 564.411,-418.456 575.005,-418.391 572.652,-411.799"/>
</g>
<!-- Node22 -->
<g id="node22" class="node"><title>Node22</title>
<g id="a_node22"><a xlink:href="class_i_plug_v_s_t3_controller_base.html" target="_top" xlink:title="Shared VST3 controller code. ">
<polygon fill="white" stroke="black" points="466.5,-266.5 466.5,-285.5 600.5,-285.5 600.5,-266.5 466.5,-266.5"/>
<text text-anchor="middle" x="533.5" y="-273.5" font-family="Helvetica,sans-Serif" font-size="10.00">IPlugVST3ControllerBase</text>
</a>
</g>
</g>
<!-- Node22&#45;&gt;Node6 -->
<g id="edge30" class="edge"><title>Node22&#45;&gt;Node6</title>
<path fill="none" stroke="midnightblue" d="M610.731,-266.775C619.717,-265.687 628.743,-264.595 637.337,-263.555"/>
<polygon fill="midnightblue" stroke="midnightblue" points="610.134,-263.321 600.627,-267.997 610.975,-270.27 610.134,-263.321"/>
</g>
<!-- Node22&#45;&gt;Node15 -->
<g id="edge29" class="edge"><title>Node22&#45;&gt;Node15</title>
<path fill="none" stroke="midnightblue" d="M584.425,-288.585C590.1,-290.507 595.733,-292.647 601,-295 630.668,-308.256 662.065,-330.024 678.963,-342.473"/>
<polygon fill="midnightblue" stroke="midnightblue" points="585.481,-285.248 574.891,-285.554 583.361,-291.919 585.481,-285.248"/>
</g>
<!-- Node23 -->
<g id="node23" class="node"><title>Node23</title>
<polygon fill="white" stroke="#bfbfbf" points="335,-0.5 335,-19.5 399,-19.5 399,-0.5 335,-0.5"/>
<text text-anchor="middle" x="367" y="-7.5" font-family="Helvetica,sans-Serif" font-size="10.00">Processor</text>
</g>
<!-- Node23&#45;&gt;Node16 -->
<g id="edge31" class="edge"><title>Node23&#45;&gt;Node16</title>
<path fill="none" stroke="midnightblue" d="M409.539,-10C438.46,-10 476.362,-10 502.398,-10"/>
<polygon fill="midnightblue" stroke="midnightblue" points="409.328,-6.5001 399.328,-10 409.328,-13.5001 409.328,-6.5001"/>
</g>
<!-- Node24 -->
<g id="node24" class="node"><title>Node24</title>
<polygon fill="white" stroke="#bfbfbf" points="469,-342.5 469,-361.5 598,-361.5 598,-342.5 469,-342.5"/>
<text text-anchor="middle" x="533.5" y="-349.5" font-family="Helvetica,sans-Serif" font-size="10.00">SingleComponentEffect</text>
</g>
<!-- Node24&#45;&gt;Node15 -->
<g id="edge32" class="edge"><title>Node24&#45;&gt;Node15</title>
<path fill="none" stroke="midnightblue" d="M608.471,-352C626.781,-352 645.421,-352 660.388,-352"/>
<polygon fill="midnightblue" stroke="midnightblue" points="608.358,-348.5 598.358,-352 608.358,-355.5 608.358,-348.5"/>
</g>
</g>
</svg>
