<?xml version="1.0" encoding="UTF-8" standalone="no"?>
<!DOCTYPE svg PUBLIC "-//W3C//DTD SVG 1.1//EN"
 "http://www.w3.org/Graphics/SVG/1.1/DTD/svg11.dtd">
<!-- Generated by graphviz version 2.38.0 (20140413.2041)
 -->
<!-- Title: Graphical Class Hierarchy Pages: 1 -->
<svg width="294pt" height="66pt"
 viewBox="0.00 0.00 294.00 66.00" xmlns="http://www.w3.org/2000/svg" xmlns:xlink="http://www.w3.org/1999/xlink">
<g id="graph0" class="graph" transform="scale(1 1) rotate(0) translate(4 62)">
<title>Graphical Class Hierarchy</title>
<polygon fill="white" stroke="none" points="-4,4 -4,-62 290,-62 290,4 -4,4"/>
<!-- Node1 -->
<g id="node1" class="node"><title>Node1</title>
<polygon fill="white" stroke="#bfbfbf" points="0,-38.5 0,-57.5 128,-57.5 128,-38.5 0,-38.5"/>
<text text-anchor="middle" x="64" y="-45.5" font-family="Helvetica,sans-Serif" font-size="10.00">&lt;AUAudioUnitFactory&gt;</text>
</g>
<!-- Node2 -->
<g id="node2" class="node"><title>Node2</title>
<g id="a_node2"><a xlink:href="interface_i_plug_a_u_view_controller.html" target="_top" xlink:title="IPlugAUViewController">
<polygon fill="white" stroke="black" points="164,-38.5 164,-57.5 286,-57.5 286,-38.5 164,-38.5"/>
<text text-anchor="middle" x="225" y="-45.5" font-family="Helvetica,sans-Serif" font-size="10.00">IPlugAUViewController</text>
</a>
</g>
</g>
<!-- Node1&#45;&gt;Node2 -->
<g id="edge1" class="edge"><title>Node1&#45;&gt;Node2</title>
<path fill="none" stroke="midnightblue" d="M138.533,-48C146.982,-48 155.521,-48 163.766,-48"/>
<polygon fill="midnightblue" stroke="midnightblue" points="138.298,-44.5001 128.298,-48 138.298,-51.5001 138.298,-44.5001"/>
</g>
<!-- Node3 -->
<g id="node3" class="node"><title>Node3</title>
<polygon fill="white" stroke="#bfbfbf" points="33,-0.5 33,-19.5 95,-19.5 95,-0.5 33,-0.5"/>
<text text-anchor="middle" x="64" y="-7.5" font-family="Helvetica,sans-Serif" font-size="10.00">NSObject</text>
</g>
<!-- Node3&#45;&gt;Node2 -->
<g id="edge3" class="edge"><title>Node3&#45;&gt;Node2</title>
<path fill="none" stroke="midnightblue" d="M105.215,-19.6111C129.409,-25.3932 160.086,-32.725 184.205,-38.4891"/>
<polygon fill="midnightblue" stroke="midnightblue" points="105.821,-16.1574 95.2809,-17.237 104.193,-22.9656 105.821,-16.1574"/>
</g>
<!-- Node4 -->
<g id="node4" class="node"><title>Node4</title>
<g id="a_node4"><a xlink:href="interface_i_plug_a_u_player.html" target="_top" xlink:title="IPlugAUPlayer">
<polygon fill="white" stroke="black" points="183.5,-0.5 183.5,-19.5 266.5,-19.5 266.5,-0.5 183.5,-0.5"/>
<text text-anchor="middle" x="225" y="-7.5" font-family="Helvetica,sans-Serif" font-size="10.00">IPlugAUPlayer</text>
</a>
</g>
</g>
<!-- Node3&#45;&gt;Node4 -->
<g id="edge2" class="edge"><title>Node3&#45;&gt;Node4</title>
<path fill="none" stroke="midnightblue" d="M105.424,-10C129.289,-10 159.406,-10 183.316,-10"/>
<polygon fill="midnightblue" stroke="midnightblue" points="105.281,-6.5001 95.2809,-10 105.281,-13.5001 105.281,-6.5001"/>
</g>
</g>
</svg>
