<?xml version="1.0" encoding="UTF-8" standalone="no"?>
<!DOCTYPE svg PUBLIC "-//W3C//DTD SVG 1.1//EN"
 "http://www.w3.org/Graphics/SVG/1.1/DTD/svg11.dtd">
<!-- Generated by graphviz version 2.38.0 (20140413.2041)
 -->
<!-- Title: Graphical Class Hierarchy Pages: 1 -->
<svg width="192pt" height="66pt"
 viewBox="0.00 0.00 192.00 66.00" xmlns="http://www.w3.org/2000/svg" xmlns:xlink="http://www.w3.org/1999/xlink">
<g id="graph0" class="graph" transform="scale(1 1) rotate(0) translate(4 62)">
<title>Graphical Class Hierarchy</title>
<polygon fill="white" stroke="none" points="-4,4 -4,-62 188,-62 188,4 -4,4"/>
<!-- Node1 -->
<g id="node1" class="node"><title>Node1</title>
<g id="a_node1"><a xlink:href="struct_i_byte_getter.html" target="_top" xlink:title="A helper class for IByteChunk and IByteStream that avoids code duplication. ">
<polygon fill="white" stroke="black" points="0,-19.5 0,-38.5 71,-38.5 71,-19.5 0,-19.5"/>
<text text-anchor="middle" x="35.5" y="-26.5" font-family="Helvetica,sans-Serif" font-size="10.00">IByteGetter</text>
</a>
</g>
</g>
<!-- Node2 -->
<g id="node2" class="node"><title>Node2</title>
<g id="a_node2"><a xlink:href="class_i_byte_chunk.html" target="_top" xlink:title="Manages a block of memory, for plug&#45;in settings store/recall. ">
<polygon fill="white" stroke="black" points="110,-38.5 110,-57.5 181,-57.5 181,-38.5 110,-38.5"/>
<text text-anchor="middle" x="145.5" y="-45.5" font-family="Helvetica,sans-Serif" font-size="10.00">IByteChunk</text>
</a>
</g>
</g>
<!-- Node1&#45;&gt;Node2 -->
<g id="edge1" class="edge"><title>Node1&#45;&gt;Node2</title>
<path fill="none" stroke="#8b1a1a" d="M81.3621,-36.8924C90.8598,-38.5633 100.746,-40.3025 109.799,-41.8952"/>
<polygon fill="#8b1a1a" stroke="#8b1a1a" points="81.7216,-33.402 71.2664,-35.1163 80.5087,-40.2961 81.7216,-33.402"/>
</g>
<!-- Node3 -->
<g id="node3" class="node"><title>Node3</title>
<g id="a_node3"><a xlink:href="class_i_byte_stream.html" target="_top" xlink:title="Manages a non&#45;owned block of memory, for receiving arbitrary message byte streams. ">
<polygon fill="white" stroke="black" points="107,-0.5 107,-19.5 184,-19.5 184,-0.5 107,-0.5"/>
<text text-anchor="middle" x="145.5" y="-7.5" font-family="Helvetica,sans-Serif" font-size="10.00">IByteStream</text>
</a>
</g>
</g>
<!-- Node1&#45;&gt;Node3 -->
<g id="edge2" class="edge"><title>Node1&#45;&gt;Node3</title>
<path fill="none" stroke="#8b1a1a" d="M81.3742,-21.1055C89.8335,-19.6173 98.6005,-18.0749 106.812,-16.6303"/>
<polygon fill="#8b1a1a" stroke="#8b1a1a" points="80.5087,-17.7039 71.2664,-22.8837 81.7216,-24.598 80.5087,-17.7039"/>
</g>
</g>
</svg>
