<?xml version="1.0" encoding="UTF-8" standalone="no"?>
<!DOCTYPE svg PUBLIC "-//W3C//DTD SVG 1.1//EN"
 "http://www.w3.org/Graphics/SVG/1.1/DTD/svg11.dtd">
<!-- Generated by graphviz version 2.38.0 (20140413.2041)
 -->
<!-- Title: Graphical Class Hierarchy Pages: 1 -->
<svg width="263pt" height="104pt"
 viewBox="0.00 0.00 263.00 104.00" xmlns="http://www.w3.org/2000/svg" xmlns:xlink="http://www.w3.org/1999/xlink">
<g id="graph0" class="graph" transform="scale(1 1) rotate(0) translate(4 100)">
<title>Graphical Class Hierarchy</title>
<polygon fill="white" stroke="none" points="-4,4 -4,-100 259,-100 259,4 -4,4"/>
<!-- Node1 -->
<g id="node1" class="node"><title>Node1</title>
<g id="a_node1"><a xlink:href="struct_i_param_1_1_shape.html" target="_top" xlink:title="Base struct for parameter shaping. ">
<polygon fill="white" stroke="black" points="0,-38.5 0,-57.5 86,-57.5 86,-38.5 0,-38.5"/>
<text text-anchor="middle" x="43" y="-45.5" font-family="Helvetica,sans-Serif" font-size="10.00">IParam::Shape</text>
</a>
</g>
</g>
<!-- Node2 -->
<g id="node2" class="node"><title>Node2</title>
<g id="a_node2"><a xlink:href="struct_i_param_1_1_shape_exp.html" target="_top" xlink:title="Exponential parameter shaping. ">
<polygon fill="white" stroke="black" points="136.5,-76.5 136.5,-95.5 240.5,-95.5 240.5,-76.5 136.5,-76.5"/>
<text text-anchor="middle" x="188.5" y="-83.5" font-family="Helvetica,sans-Serif" font-size="10.00">IParam::ShapeExp</text>
</a>
</g>
</g>
<!-- Node1&#45;&gt;Node2 -->
<g id="edge1" class="edge"><title>Node1&#45;&gt;Node2</title>
<path fill="none" stroke="midnightblue" d="M89.9735,-60.1742C109.816,-65.4287 132.693,-71.4866 151.3,-76.4141"/>
<polygon fill="midnightblue" stroke="midnightblue" points="90.7739,-56.7655 80.2111,-57.589 88.9819,-63.5323 90.7739,-56.7655"/>
</g>
<!-- Node3 -->
<g id="node3" class="node"><title>Node3</title>
<g id="a_node3"><a xlink:href="struct_i_param_1_1_shape_linear.html" target="_top" xlink:title="Linear parameter shaping. ">
<polygon fill="white" stroke="black" points="130.5,-38.5 130.5,-57.5 246.5,-57.5 246.5,-38.5 130.5,-38.5"/>
<text text-anchor="middle" x="188.5" y="-45.5" font-family="Helvetica,sans-Serif" font-size="10.00">IParam::ShapeLinear</text>
</a>
</g>
</g>
<!-- Node1&#45;&gt;Node3 -->
<g id="edge2" class="edge"><title>Node1&#45;&gt;Node3</title>
<path fill="none" stroke="midnightblue" d="M96.5828,-48C107.576,-48 119.217,-48 130.366,-48"/>
<polygon fill="midnightblue" stroke="midnightblue" points="96.2786,-44.5001 86.2786,-48 96.2786,-51.5001 96.2786,-44.5001"/>
</g>
<!-- Node4 -->
<g id="node4" class="node"><title>Node4</title>
<g id="a_node4"><a xlink:href="struct_i_param_1_1_shape_pow_curve.html" target="_top" xlink:title="PowCurve parameter shaping. ">
<polygon fill="white" stroke="black" points="122,-0.5 122,-19.5 255,-19.5 255,-0.5 122,-0.5"/>
<text text-anchor="middle" x="188.5" y="-7.5" font-family="Helvetica,sans-Serif" font-size="10.00">IParam::ShapePowCurve</text>
</a>
</g>
</g>
<!-- Node1&#45;&gt;Node4 -->
<g id="edge3" class="edge"><title>Node1&#45;&gt;Node4</title>
<path fill="none" stroke="midnightblue" d="M89.9735,-35.8258C109.816,-30.5713 132.693,-24.5134 151.3,-19.5859"/>
<polygon fill="midnightblue" stroke="midnightblue" points="88.9819,-32.4677 80.2111,-38.411 90.7739,-39.2345 88.9819,-32.4677"/>
</g>
</g>
</svg>
