<?xml version="1.0" encoding="UTF-8" standalone="no"?>
<!DOCTYPE svg PUBLIC "-//W3C//DTD SVG 1.1//EN"
 "http://www.w3.org/Graphics/SVG/1.1/DTD/svg11.dtd">
<!-- Generated by graphviz version 2.38.0 (20140413.2041)
 -->
<!-- Title: Graphical Class Hierarchy Pages: 1 -->
<svg width="387pt" height="66pt"
 viewBox="0.00 0.00 387.00 66.00" xmlns="http://www.w3.org/2000/svg" xmlns:xlink="http://www.w3.org/1999/xlink">
<g id="graph0" class="graph" transform="scale(1 1) rotate(0) translate(4 62)">
<title>Graphical Class Hierarchy</title>
<polygon fill="white" stroke="none" points="-4,4 -4,-62 383,-62 383,4 -4,4"/>
<!-- Node1 -->
<g id="node1" class="node"><title>Node1</title>
<g id="a_node1"><a xlink:title="/todo ">
<polygon fill="white" stroke="#bfbfbf" points="0,-19.5 0,-38.5 78,-38.5 78,-19.5 0,-19.5"/>
<text text-anchor="middle" x="39" y="-26.5" font-family="Helvetica,sans-Serif" font-size="10.00">PlatformFont</text>
</a>
</g>
</g>
<!-- Node2 -->
<g id="node2" class="node"><title>Node2</title>
<g id="a_node2"><a xlink:href="class_i_graphics_web_1_1_font.html" target="_top" xlink:title="IGraphicsWeb::Font">
<polygon fill="white" stroke="black" points="114,-38.5 114,-57.5 221,-57.5 221,-38.5 114,-38.5"/>
<text text-anchor="middle" x="167.5" y="-45.5" font-family="Helvetica,sans-Serif" font-size="10.00">IGraphicsWeb::Font</text>
</a>
</g>
</g>
<!-- Node1&#45;&gt;Node2 -->
<g id="edge1" class="edge"><title>Node1&#45;&gt;Node2</title>
<path fill="none" stroke="midnightblue" d="M88.2779,-36.2512C96.6458,-37.5081 105.385,-38.8206 113.862,-40.0938"/>
<polygon fill="midnightblue" stroke="midnightblue" points="88.7064,-32.7764 78.2975,-34.7522 87.6666,-39.6988 88.7064,-32.7764"/>
</g>
<!-- Node4 -->
<g id="node4" class="node"><title>Node4</title>
<g id="a_node4"><a xlink:href="class_i_graphics_win_1_1_font.html" target="_top" xlink:title="IGraphicsWin::Font">
<polygon fill="white" stroke="black" points="115.5,-0.5 115.5,-19.5 219.5,-19.5 219.5,-0.5 115.5,-0.5"/>
<text text-anchor="middle" x="167.5" y="-7.5" font-family="Helvetica,sans-Serif" font-size="10.00">IGraphicsWin::Font</text>
</a>
</g>
</g>
<!-- Node1&#45;&gt;Node4 -->
<g id="edge3" class="edge"><title>Node1&#45;&gt;Node4</title>
<path fill="none" stroke="midnightblue" d="M88.389,-21.7321C97.1818,-20.4114 106.381,-19.0298 115.253,-17.6972"/>
<polygon fill="midnightblue" stroke="midnightblue" points="87.6666,-18.3012 78.2975,-23.2478 88.7064,-25.2236 87.6666,-18.3012"/>
</g>
<!-- Node3 -->
<g id="node3" class="node"><title>Node3</title>
<g id="a_node3"><a xlink:href="class_i_graphics_web_1_1_file_font.html" target="_top" xlink:title="IGraphicsWeb::FileFont">
<polygon fill="white" stroke="black" points="257,-38.5 257,-57.5 379,-57.5 379,-38.5 257,-38.5"/>
<text text-anchor="middle" x="318" y="-45.5" font-family="Helvetica,sans-Serif" font-size="10.00">IGraphicsWeb::FileFont</text>
</a>
</g>
</g>
<!-- Node2&#45;&gt;Node3 -->
<g id="edge2" class="edge"><title>Node2&#45;&gt;Node3</title>
<path fill="none" stroke="midnightblue" d="M231.409,-48C239.823,-48 248.437,-48 256.803,-48"/>
<polygon fill="midnightblue" stroke="midnightblue" points="231.274,-44.5001 221.274,-48 231.274,-51.5001 231.274,-44.5001"/>
</g>
</g>
</svg>
