<?xml version="1.0" encoding="UTF-8" standalone="no"?>
<!DOCTYPE svg PUBLIC "-//W3C//DTD SVG 1.1//EN"
 "http://www.w3.org/Graphics/SVG/1.1/DTD/svg11.dtd">
<!-- Generated by graphviz version 2.38.0 (20140413.2041)
 -->
<!-- Title: Graphical Class Hierarchy Pages: 1 -->
<svg width="348pt" height="180pt"
 viewBox="0.00 0.00 348.00 180.00" xmlns="http://www.w3.org/2000/svg" xmlns:xlink="http://www.w3.org/1999/xlink">
<g id="graph0" class="graph" transform="scale(1 1) rotate(0) translate(4 176)">
<title>Graphical Class Hierarchy</title>
<polygon fill="white" stroke="none" points="-4,4 -4,-176 344,-176 344,4 -4,4"/>
<!-- Node1 -->
<g id="node1" class="node"><title>Node1</title>
<g id="a_node1"><a xlink:href="class_i_graphics.html" target="_top" xlink:title="The lowest level base class of an IGraphics context. ">
<polygon fill="white" stroke="black" points="0,-95.5 0,-114.5 61,-114.5 61,-95.5 0,-95.5"/>
<text text-anchor="middle" x="30.5" y="-102.5" font-family="Helvetica,sans-Serif" font-size="10.00">IGraphics</text>
</a>
</g>
</g>
<!-- Node2 -->
<g id="node2" class="node"><title>Node2</title>
<g id="a_node2"><a xlink:href="class_i_graphics_lice.html" target="_top" xlink:title="IGraphics draw class using Cockos&#39; LICE. ">
<polygon fill="white" stroke="black" points="110,-114.5 110,-133.5 190,-133.5 190,-114.5 110,-114.5"/>
<text text-anchor="middle" x="150" y="-121.5" font-family="Helvetica,sans-Serif" font-size="10.00">IGraphicsLice</text>
</a>
</g>
</g>
<!-- Node1&#45;&gt;Node2 -->
<g id="edge1" class="edge"><title>Node1&#45;&gt;Node2</title>
<path fill="none" stroke="midnightblue" d="M71.1969,-111.419C83.5785,-113.421 97.2262,-115.628 109.588,-117.627"/>
<polygon fill="midnightblue" stroke="midnightblue" points="71.5807,-107.936 61.1502,-109.795 70.4633,-114.846 71.5807,-107.936"/>
</g>
<!-- Node3 -->
<g id="node3" class="node"><title>Node3</title>
<g id="a_node3"><a xlink:href="class_i_graphics_path_base.html" target="_top" xlink:title="A base class to share implementations of IGraphics.h functionality across different path based graphi...">
<polygon fill="white" stroke="black" points="97,-76.5 97,-95.5 203,-95.5 203,-76.5 97,-76.5"/>
<text text-anchor="middle" x="150" y="-83.5" font-family="Helvetica,sans-Serif" font-size="10.00">IGraphicsPathBase</text>
</a>
</g>
</g>
<!-- Node1&#45;&gt;Node3 -->
<g id="edge2" class="edge"><title>Node1&#45;&gt;Node3</title>
<path fill="none" stroke="midnightblue" d="M71.252,-98.572C79.5089,-97.2369 88.3268,-95.811 96.9497,-94.4167"/>
<polygon fill="midnightblue" stroke="midnightblue" points="70.4633,-95.154 61.1502,-100.205 71.5807,-102.064 70.4633,-95.154"/>
</g>
<!-- Node4 -->
<g id="node4" class="node"><title>Node4</title>
<g id="a_node4"><a xlink:href="class_i_graphics_a_g_g.html" target="_top" xlink:title="IGraphics draw class using Antigrain Geometry. ">
<polygon fill="white" stroke="black" points="248,-152.5 248,-171.5 331,-171.5 331,-152.5 248,-152.5"/>
<text text-anchor="middle" x="289.5" y="-159.5" font-family="Helvetica,sans-Serif" font-size="10.00">IGraphicsAGG</text>
</a>
</g>
</g>
<!-- Node3&#45;&gt;Node4 -->
<g id="edge3" class="edge"><title>Node3&#45;&gt;Node4</title>
<path fill="none" stroke="midnightblue" d="M193.635,-99.6878C196.896,-101.299 200.059,-103.068 203,-105 222.442,-117.776 219.662,-130.067 239,-143 244.586,-146.736 251.011,-149.886 257.343,-152.48"/>
<polygon fill="midnightblue" stroke="midnightblue" points="194.846,-96.3965 184.284,-95.5549 192.016,-102.799 194.846,-96.3965"/>
</g>
<!-- Node5 -->
<g id="node5" class="node"><title>Node5</title>
<g id="a_node5"><a xlink:href="class_i_graphics_cairo.html" target="_top" xlink:title="IGraphics draw class using Cairo. ">
<polygon fill="white" stroke="black" points="246.5,-114.5 246.5,-133.5 332.5,-133.5 332.5,-114.5 246.5,-114.5"/>
<text text-anchor="middle" x="289.5" y="-121.5" font-family="Helvetica,sans-Serif" font-size="10.00">IGraphicsCairo</text>
</a>
</g>
</g>
<!-- Node3&#45;&gt;Node5 -->
<g id="edge4" class="edge"><title>Node3&#45;&gt;Node5</title>
<path fill="none" stroke="midnightblue" d="M195.573,-98.3183C214.465,-103.539 236.147,-109.532 253.814,-114.414"/>
<polygon fill="midnightblue" stroke="midnightblue" points="196.268,-94.8793 185.697,-95.589 194.403,-101.626 196.268,-94.8793"/>
</g>
<!-- Node6 -->
<g id="node6" class="node"><title>Node6</title>
<g id="a_node6"><a xlink:href="class_i_graphics_canvas.html" target="_top" xlink:title="IGraphics draw class HTML5 canvas. ">
<polygon fill="white" stroke="black" points="241.5,-76.5 241.5,-95.5 337.5,-95.5 337.5,-76.5 241.5,-76.5"/>
<text text-anchor="middle" x="289.5" y="-83.5" font-family="Helvetica,sans-Serif" font-size="10.00">IGraphicsCanvas</text>
</a>
</g>
</g>
<!-- Node3&#45;&gt;Node6 -->
<g id="edge5" class="edge"><title>Node3&#45;&gt;Node6</title>
<path fill="none" stroke="midnightblue" d="M213.421,-86C222.767,-86 232.27,-86 241.231,-86"/>
<polygon fill="midnightblue" stroke="midnightblue" points="213.375,-82.5001 203.375,-86 213.375,-89.5001 213.375,-82.5001"/>
</g>
<!-- Node7 -->
<g id="node7" class="node"><title>Node7</title>
<g id="a_node7"><a xlink:href="class_i_graphics_nano_v_g.html" target="_top" xlink:title="IGraphics draw class using NanoVG. ">
<polygon fill="white" stroke="black" points="239,-38.5 239,-57.5 340,-57.5 340,-38.5 239,-38.5"/>
<text text-anchor="middle" x="289.5" y="-45.5" font-family="Helvetica,sans-Serif" font-size="10.00">IGraphicsNanoVG</text>
</a>
</g>
</g>
<!-- Node3&#45;&gt;Node7 -->
<g id="edge6" class="edge"><title>Node3&#45;&gt;Node7</title>
<path fill="none" stroke="midnightblue" d="M195.573,-73.6817C214.465,-68.4607 236.147,-62.4684 253.814,-57.5859"/>
<polygon fill="midnightblue" stroke="midnightblue" points="194.403,-70.3736 185.697,-76.411 196.268,-77.1207 194.403,-70.3736"/>
</g>
<!-- Node8 -->
<g id="node8" class="node"><title>Node8</title>
<g id="a_node8"><a xlink:href="class_i_graphics_skia.html" target="_top" xlink:title="IGraphics draw class using Skia. ">
<polygon fill="white" stroke="black" points="249,-0.5 249,-19.5 330,-19.5 330,-0.5 249,-0.5"/>
<text text-anchor="middle" x="289.5" y="-7.5" font-family="Helvetica,sans-Serif" font-size="10.00">IGraphicsSkia</text>
</a>
</g>
</g>
<!-- Node3&#45;&gt;Node8 -->
<g id="edge7" class="edge"><title>Node3&#45;&gt;Node8</title>
<path fill="none" stroke="midnightblue" d="M172.191,-70.4783C189.564,-58.201 215.099,-41.1599 239,-29 245.81,-25.5355 253.407,-22.3203 260.565,-19.5569"/>
<polygon fill="midnightblue" stroke="midnightblue" points="169.995,-67.7459 163.902,-76.4132 174.07,-73.4374 169.995,-67.7459"/>
</g>
</g>
</svg>
