<?xml version="1.0" encoding="UTF-8" standalone="no"?>
<!DOCTYPE svg PUBLIC "-//W3C//DTD SVG 1.1//EN"
 "http://www.w3.org/Graphics/SVG/1.1/DTD/svg11.dtd">
<!-- Generated by graphviz version 2.38.0 (20140413.2041)
 -->
<!-- Title: Graphical Class Hierarchy Pages: 1 -->
<svg width="315pt" height="104pt"
 viewBox="0.00 0.00 315.00 104.00" xmlns="http://www.w3.org/2000/svg" xmlns:xlink="http://www.w3.org/1999/xlink">
<g id="graph0" class="graph" transform="scale(1 1) rotate(0) translate(4 100)">
<title>Graphical Class Hierarchy</title>
<polygon fill="white" stroke="none" points="-4,4 -4,-100 311,-100 311,4 -4,4"/>
<!-- Node1 -->
<g id="node1" class="node"><title>Node1</title>
<polygon fill="white" stroke="#bfbfbf" points="0,-76.5 0,-95.5 146,-95.5 146,-76.5 0,-76.5"/>
<text text-anchor="middle" x="73" y="-83.5" font-family="Helvetica,sans-Serif" font-size="10.00">&lt;UITableViewDataSource&gt;</text>
</g>
<!-- Node2 -->
<g id="node2" class="node"><title>Node2</title>
<g id="a_node2"><a xlink:href="interface_i_g_r_a_p_h_i_c_s___u_i_t_a_b_l_e_v_c.html" target="_top" xlink:title="IGRAPHICS_UITABLEVC">
<polygon fill="white" stroke="black" points="182,-38.5 182,-57.5 307,-57.5 307,-38.5 182,-38.5"/>
<text text-anchor="middle" x="244.5" y="-45.5" font-family="Helvetica,sans-Serif" font-size="10.00">IGRAPHICS_UITABLEVC</text>
</a>
</g>
</g>
<!-- Node1&#45;&gt;Node2 -->
<g id="edge1" class="edge"><title>Node1&#45;&gt;Node2</title>
<path fill="none" stroke="midnightblue" d="M126.742,-74.1757C150.639,-68.8184 178.515,-62.5689 201.036,-57.5201"/>
<polygon fill="midnightblue" stroke="midnightblue" points="125.764,-70.8081 116.772,-76.411 127.295,-77.6386 125.764,-70.8081"/>
</g>
<!-- Node3 -->
<g id="node3" class="node"><title>Node3</title>
<polygon fill="white" stroke="#bfbfbf" points="7,-38.5 7,-57.5 139,-57.5 139,-38.5 7,-38.5"/>
<text text-anchor="middle" x="73" y="-45.5" font-family="Helvetica,sans-Serif" font-size="10.00">&lt;UITableViewDelegate&gt;</text>
</g>
<!-- Node3&#45;&gt;Node2 -->
<g id="edge2" class="edge"><title>Node3&#45;&gt;Node2</title>
<path fill="none" stroke="midnightblue" d="M149.066,-48C160.065,-48 171.284,-48 181.97,-48"/>
<polygon fill="midnightblue" stroke="midnightblue" points="149.048,-44.5001 139.048,-48 149.048,-51.5001 149.048,-44.5001"/>
</g>
<!-- Node4 -->
<g id="node4" class="node"><title>Node4</title>
<polygon fill="white" stroke="#bfbfbf" points="25.5,-0.5 25.5,-19.5 120.5,-19.5 120.5,-0.5 25.5,-0.5"/>
<text text-anchor="middle" x="73" y="-7.5" font-family="Helvetica,sans-Serif" font-size="10.00">UIViewController</text>
</g>
<!-- Node4&#45;&gt;Node2 -->
<g id="edge4" class="edge"><title>Node4&#45;&gt;Node2</title>
<path fill="none" stroke="midnightblue" d="M126.742,-21.8243C150.639,-27.1816 178.515,-33.4311 201.036,-38.4799"/>
<polygon fill="midnightblue" stroke="midnightblue" points="127.295,-18.3614 116.772,-19.589 125.764,-25.1919 127.295,-18.3614"/>
</g>
<!-- Node5 -->
<g id="node5" class="node"><title>Node5</title>
<g id="a_node5"><a xlink:href="interface_app_view_controller.html" target="_top" xlink:title="AppViewController">
<polygon fill="white" stroke="black" points="192.5,-0.5 192.5,-19.5 296.5,-19.5 296.5,-0.5 192.5,-0.5"/>
<text text-anchor="middle" x="244.5" y="-7.5" font-family="Helvetica,sans-Serif" font-size="10.00">AppViewController</text>
</a>
</g>
</g>
<!-- Node4&#45;&gt;Node5 -->
<g id="edge3" class="edge"><title>Node4&#45;&gt;Node5</title>
<path fill="none" stroke="midnightblue" d="M130.935,-10C150.834,-10 173.035,-10 192.426,-10"/>
<polygon fill="midnightblue" stroke="midnightblue" points="130.765,-6.5001 120.765,-10 130.765,-13.5001 130.765,-6.5001"/>
</g>
</g>
</svg>
