<?xml version="1.0" encoding="UTF-8" standalone="no"?>
<!DOCTYPE svg PUBLIC "-//W3C//DTD SVG 1.1//EN"
 "http://www.w3.org/Graphics/SVG/1.1/DTD/svg11.dtd">
<!-- Generated by graphviz version 2.38.0 (20140413.2041)
 -->
<!-- Title: AppDelegate Pages: 1 -->
<svg width="242pt" height="84pt"
 viewBox="0.00 0.00 242.00 84.00" xmlns="http://www.w3.org/2000/svg" xmlns:xlink="http://www.w3.org/1999/xlink">
<g id="graph0" class="graph" transform="scale(1 1) rotate(0) translate(4 80)">
<title>AppDelegate</title>
<polygon fill="white" stroke="none" points="-4,4 -4,-80 238,-80 238,4 -4,4"/>
<!-- Node1 -->
<g id="node1" class="node"><title>Node1</title>
<polygon fill="#bfbfbf" stroke="black" points="62,-0.5 62,-19.5 141,-19.5 141,-0.5 62,-0.5"/>
<text text-anchor="middle" x="101.5" y="-7.5" font-family="Helvetica,sans-Serif" font-size="10.00">AppDelegate</text>
</g>
<!-- Node2 -->
<g id="node2" class="node"><title>Node2</title>
<polygon fill="white" stroke="#bfbfbf" points="0,-56.5 0,-75.5 77,-75.5 77,-56.5 0,-56.5"/>
<text text-anchor="middle" x="38.5" y="-63.5" font-family="Helvetica,sans-Serif" font-size="10.00">UIResponder</text>
</g>
<!-- Node2&#45;&gt;Node1 -->
<g id="edge1" class="edge"><title>Node2&#45;&gt;Node1</title>
<path fill="none" stroke="midnightblue" d="M56.5399,-49.5372C67.7731,-39.9087 81.8191,-27.8694 91.1938,-19.8339"/>
<polygon fill="midnightblue" stroke="midnightblue" points="53.9368,-47.1586 48.622,-56.324 58.4924,-52.4734 53.9368,-47.1586"/>
</g>
<!-- Node3 -->
<g id="node3" class="node"><title>Node3</title>
<polygon fill="white" stroke="#bfbfbf" points="95,-56.5 95,-75.5 234,-75.5 234,-56.5 95,-56.5"/>
<text text-anchor="middle" x="164.5" y="-63.5" font-family="Helvetica,sans-Serif" font-size="10.00">&lt;UIApplicationDelegate&gt;</text>
</g>
<!-- Node3&#45;&gt;Node1 -->
<g id="edge2" class="edge"><title>Node3&#45;&gt;Node1</title>
<path fill="none" stroke="midnightblue" d="M146.46,-49.5372C135.227,-39.9087 121.181,-27.8694 111.806,-19.8339"/>
<polygon fill="midnightblue" stroke="midnightblue" points="144.508,-52.4734 154.378,-56.324 149.063,-47.1586 144.508,-52.4734"/>
</g>
</g>
</svg>
