<?xml version="1.0" encoding="UTF-8" standalone="no"?>
<!DOCTYPE svg PUBLIC "-//W3C//DTD SVG 1.1//EN"
 "http://www.w3.org/Graphics/SVG/1.1/DTD/svg11.dtd">
<!-- Generated by graphviz version 2.38.0 (20140413.2041)
 -->
<!-- Title: IGRAPHICS_UITABLEVC Pages: 1 -->
<svg width="418pt" height="84pt"
 viewBox="0.00 0.00 417.50 84.00" xmlns="http://www.w3.org/2000/svg" xmlns:xlink="http://www.w3.org/1999/xlink">
<g id="graph0" class="graph" transform="scale(1 1) rotate(0) translate(4 80)">
<title>IGRAPHICS_UITABLEVC</title>
<polygon fill="white" stroke="none" points="-4,4 -4,-80 413.5,-80 413.5,4 -4,4"/>
<!-- Node1 -->
<g id="node1" class="node"><title>Node1</title>
<polygon fill="#bfbfbf" stroke="black" points="124,-0.5 124,-19.5 249,-19.5 249,-0.5 124,-0.5"/>
<text text-anchor="middle" x="186.5" y="-7.5" font-family="Helvetica,sans-Serif" font-size="10.00">IGRAPHICS_UITABLEVC</text>
</g>
<!-- Node2 -->
<g id="node2" class="node"><title>Node2</title>
<polygon fill="white" stroke="#bfbfbf" points="0,-56.5 0,-75.5 95,-75.5 95,-56.5 0,-56.5"/>
<text text-anchor="middle" x="47.5" y="-63.5" font-family="Helvetica,sans-Serif" font-size="10.00">UIViewController</text>
</g>
<!-- Node2&#45;&gt;Node1 -->
<g id="edge1" class="edge"><title>Node2&#45;&gt;Node1</title>
<path fill="none" stroke="midnightblue" d="M78.9758,-52.772C105.085,-42.6287 141.539,-28.4669 164.578,-19.5164"/>
<polygon fill="midnightblue" stroke="midnightblue" points="77.5788,-49.5598 69.525,-56.4435 80.1137,-56.0847 77.5788,-49.5598"/>
</g>
<!-- Node3 -->
<g id="node3" class="node"><title>Node3</title>
<polygon fill="white" stroke="#bfbfbf" points="113.5,-56.5 113.5,-75.5 259.5,-75.5 259.5,-56.5 113.5,-56.5"/>
<text text-anchor="middle" x="186.5" y="-63.5" font-family="Helvetica,sans-Serif" font-size="10.00">&lt;UITableViewDataSource&gt;</text>
</g>
<!-- Node3&#45;&gt;Node1 -->
<g id="edge2" class="edge"><title>Node3&#45;&gt;Node1</title>
<path fill="none" stroke="midnightblue" d="M186.5,-45.8045C186.5,-36.9102 186.5,-26.7798 186.5,-19.7511"/>
<polygon fill="midnightblue" stroke="midnightblue" points="183,-46.083 186.5,-56.083 190,-46.083 183,-46.083"/>
</g>
<!-- Node4 -->
<g id="node4" class="node"><title>Node4</title>
<polygon fill="white" stroke="#bfbfbf" points="277.5,-56.5 277.5,-75.5 409.5,-75.5 409.5,-56.5 277.5,-56.5"/>
<text text-anchor="middle" x="343.5" y="-63.5" font-family="Helvetica,sans-Serif" font-size="10.00">&lt;UITableViewDelegate&gt;</text>
</g>
<!-- Node4&#45;&gt;Node1 -->
<g id="edge3" class="edge"><title>Node4&#45;&gt;Node1</title>
<path fill="none" stroke="midnightblue" d="M309.111,-53.172C279.548,-43.0039 237.627,-28.5852 211.261,-19.5164"/>
<polygon fill="midnightblue" stroke="midnightblue" points="308.028,-56.5007 318.623,-56.4435 310.305,-49.8813 308.028,-56.5007"/>
</g>
</g>
</svg>
