<?xml version="1.0" encoding="UTF-8" standalone="no"?>
<!DOCTYPE svg PUBLIC "-//W3C//DTD SVG 1.1//EN"
 "http://www.w3.org/Graphics/SVG/1.1/DTD/svg11.dtd">
<!-- Generated by graphviz version 2.38.0 (20140413.2041)
 -->
<!-- Title: IParam::Shape Pages: 1 -->
<svg width="398pt" height="84pt"
 viewBox="0.00 0.00 397.50 84.00" xmlns="http://www.w3.org/2000/svg" xmlns:xlink="http://www.w3.org/1999/xlink">
<g id="graph0" class="graph" transform="scale(1 1) rotate(0) translate(4 80)">
<title>IParam::Shape</title>
<polygon fill="white" stroke="none" points="-4,4 -4,-80 393.5,-80 393.5,4 -4,4"/>
<!-- Node1 -->
<g id="node1" class="node"><title>Node1</title>
<polygon fill="#bfbfbf" stroke="black" points="137,-56.5 137,-75.5 223,-75.5 223,-56.5 137,-56.5"/>
<text text-anchor="middle" x="180" y="-63.5" font-family="Helvetica,sans-Serif" font-size="10.00">IParam::Shape</text>
</g>
<!-- Node2 -->
<g id="node2" class="node"><title>Node2</title>
<g id="a_node2"><a xlink:href="struct_i_param_1_1_shape_exp.html" target="_top" xlink:title="Exponential parameter shaping. ">
<polygon fill="white" stroke="black" points="0,-0.5 0,-19.5 104,-19.5 104,-0.5 0,-0.5"/>
<text text-anchor="middle" x="52" y="-7.5" font-family="Helvetica,sans-Serif" font-size="10.00">IParam::ShapeExp</text>
</a>
</g>
</g>
<!-- Node1&#45;&gt;Node2 -->
<g id="edge1" class="edge"><title>Node1&#45;&gt;Node2</title>
<path fill="none" stroke="midnightblue" d="M150.377,-52.503C126.381,-42.3795 93.216,-28.388 72.1871,-19.5164"/>
<polygon fill="midnightblue" stroke="midnightblue" points="149.144,-55.7813 159.718,-56.4435 151.865,-49.3317 149.144,-55.7813"/>
</g>
<!-- Node3 -->
<g id="node3" class="node"><title>Node3</title>
<g id="a_node3"><a xlink:href="struct_i_param_1_1_shape_linear.html" target="_top" xlink:title="Linear parameter shaping. ">
<polygon fill="white" stroke="black" points="122,-0.5 122,-19.5 238,-19.5 238,-0.5 122,-0.5"/>
<text text-anchor="middle" x="180" y="-7.5" font-family="Helvetica,sans-Serif" font-size="10.00">IParam::ShapeLinear</text>
</a>
</g>
</g>
<!-- Node1&#45;&gt;Node3 -->
<g id="edge2" class="edge"><title>Node1&#45;&gt;Node3</title>
<path fill="none" stroke="midnightblue" d="M180,-45.8045C180,-36.9102 180,-26.7798 180,-19.7511"/>
<polygon fill="midnightblue" stroke="midnightblue" points="176.5,-46.083 180,-56.083 183.5,-46.083 176.5,-46.083"/>
</g>
<!-- Node4 -->
<g id="node4" class="node"><title>Node4</title>
<g id="a_node4"><a xlink:href="struct_i_param_1_1_shape_pow_curve.html" target="_top" xlink:title="PowCurve parameter shaping. ">
<polygon fill="white" stroke="black" points="256.5,-0.5 256.5,-19.5 389.5,-19.5 389.5,-0.5 256.5,-0.5"/>
<text text-anchor="middle" x="323" y="-7.5" font-family="Helvetica,sans-Serif" font-size="10.00">IParam::ShapePowCurve</text>
</a>
</g>
</g>
<!-- Node1&#45;&gt;Node4 -->
<g id="edge3" class="edge"><title>Node1&#45;&gt;Node4</title>
<path fill="none" stroke="midnightblue" d="M212.027,-52.9058C238.912,-42.7536 276.641,-28.5063 300.447,-19.5164"/>
<polygon fill="midnightblue" stroke="midnightblue" points="210.778,-49.6364 202.659,-56.4435 213.25,-56.1851 210.778,-49.6364"/>
</g>
</g>
</svg>
