<?xml version="1.0" encoding="UTF-8" standalone="no"?>
<!DOCTYPE svg PUBLIC "-//W3C//DTD SVG 1.1//EN"
 "http://www.w3.org/Graphics/SVG/1.1/DTD/svg11.dtd">
<!-- Generated by graphviz version 2.38.0 (20140413.2041)
 -->
<!-- Title: IByteGetter Pages: 1 -->
<svg width="174pt" height="84pt"
 viewBox="0.00 0.00 174.00 84.00" xmlns="http://www.w3.org/2000/svg" xmlns:xlink="http://www.w3.org/1999/xlink">
<g id="graph0" class="graph" transform="scale(1 1) rotate(0) translate(4 80)">
<title>IByteGetter</title>
<polygon fill="white" stroke="none" points="-4,4 -4,-80 170,-80 170,4 -4,4"/>
<!-- Node1 -->
<g id="node1" class="node"><title>Node1</title>
<polygon fill="#bfbfbf" stroke="black" points="46,-56.5 46,-75.5 117,-75.5 117,-56.5 46,-56.5"/>
<text text-anchor="middle" x="81.5" y="-63.5" font-family="Helvetica,sans-Serif" font-size="10.00">IByteGetter</text>
</g>
<!-- Node2 -->
<g id="node2" class="node"><title>Node2</title>
<g id="a_node2"><a xlink:href="class_i_byte_chunk.html" target="_top" xlink:title="Manages a block of memory, for plug&#45;in settings store/recall. ">
<polygon fill="white" stroke="black" points="0,-0.5 0,-19.5 71,-19.5 71,-0.5 0,-0.5"/>
<text text-anchor="middle" x="35.5" y="-7.5" font-family="Helvetica,sans-Serif" font-size="10.00">IByteChunk</text>
</a>
</g>
</g>
<!-- Node1&#45;&gt;Node2 -->
<g id="edge1" class="edge"><title>Node1&#45;&gt;Node2</title>
<path fill="none" stroke="#8b1a1a" d="M67.386,-48.4314C59.324,-38.9673 49.5408,-27.4827 42.9546,-19.7511"/>
<polygon fill="#8b1a1a" stroke="#8b1a1a" points="64.755,-50.7402 73.904,-56.083 70.0837,-46.2009 64.755,-50.7402"/>
</g>
<!-- Node3 -->
<g id="node3" class="node"><title>Node3</title>
<g id="a_node3"><a xlink:href="class_i_byte_stream.html" target="_top" xlink:title="Manages a non&#45;owned block of memory, for receiving arbitrary message byte streams. ">
<polygon fill="white" stroke="black" points="89,-0.5 89,-19.5 166,-19.5 166,-0.5 89,-0.5"/>
<text text-anchor="middle" x="127.5" y="-7.5" font-family="Helvetica,sans-Serif" font-size="10.00">IByteStream</text>
</a>
</g>
</g>
<!-- Node1&#45;&gt;Node3 -->
<g id="edge2" class="edge"><title>Node1&#45;&gt;Node3</title>
<path fill="none" stroke="#8b1a1a" d="M95.614,-48.4314C103.676,-38.9673 113.459,-27.4827 120.045,-19.7511"/>
<polygon fill="#8b1a1a" stroke="#8b1a1a" points="92.9163,-46.2009 89.096,-56.083 98.245,-50.7402 92.9163,-46.2009"/>
</g>
</g>
</svg>
